<svg width="243" height="241" viewBox="0 0 243 241" fill="none" xmlns="http://www.w3.org/2000/svg">
<g clip-path="url(#clip0_177_13543)">
<path d="M115.861 74.2173L109.674 67.6629L101.219 72.687C99.5155 71.4254 97.7306 70.3205 95.8813 69.3841L96.5442 59.5703L87.9159 56.9917L83.1032 65.5808C81.0237 65.3477 78.9298 65.2884 76.8411 65.4043L72.5098 56.5571L63.7525 58.6432L63.8735 68.4794C61.9742 69.3104 60.1328 70.3126 58.3624 71.4754L50.1984 65.9812L43.6587 72.1747L48.6792 80.6466C47.4218 82.352 46.3196 84.1391 45.3844 85.9907L35.5854 85.3204L33.0153 93.9609L41.5924 98.7874C41.3609 100.87 41.303 102.967 41.4188 105.06L32.5892 109.393L34.6779 118.165L44.4979 118.05C45.3278 119.953 46.3301 121.798 47.4915 123.574L42.0107 131.748L48.1978 138.302L56.6525 133.278C58.3559 134.538 60.1407 135.645 61.99 136.581L61.3271 146.395L69.9555 148.973L74.7682 140.384C76.8463 140.617 78.9416 140.677 81.0303 140.562L85.3616 149.409L94.1188 147.322L93.9978 137.486C95.8971 136.655 97.7385 135.653 99.5089 134.49L107.673 139.984L114.213 133.79L109.192 125.319C110.45 123.613 111.553 121.826 112.487 119.974L122.286 120.645L124.856 112.004L116.279 107.179C116.51 105.097 116.568 102.999 116.453 100.906L125.283 96.5737L123.195 87.8002L113.375 87.9148C112.545 86.0118 111.543 84.1668 110.38 82.3929L115.861 74.2186V74.2173ZM94.8646 119.853C85.5667 128.66 70.8985 128.243 62.1018 118.926C53.3051 109.607 53.7115 94.9156 63.0081 86.1093C72.3059 77.3029 86.9741 77.719 95.7708 87.0377C104.568 96.3564 104.161 111.048 94.8646 119.855V119.853Z" fill="white"/>
<path d="M85.3629 149.703C85.2524 149.703 85.1485 149.641 85.0985 149.537L80.8527 140.865C78.8824 140.963 76.8923 140.906 74.9312 140.698L70.2133 149.116C70.1462 149.237 70.0041 149.293 69.8713 149.254L61.2429 146.675C61.1114 146.636 61.0233 146.509 61.0325 146.372L61.6822 136.752C59.9474 135.862 58.2519 134.812 56.6341 133.628L48.3477 138.552C48.2294 138.622 48.0781 138.601 47.9834 138.501L41.7962 131.947C41.7015 131.847 41.6884 131.694 41.766 131.579L47.1377 123.567C46.0473 121.884 45.0963 120.129 44.3058 118.344L34.6805 118.456C34.549 118.463 34.4227 118.364 34.3898 118.229L32.3011 109.457C32.2695 109.323 32.334 109.185 32.4576 109.124L41.1123 104.877C41.0136 102.904 41.0689 100.912 41.2767 98.9455L32.8693 94.2151C32.7496 94.1479 32.6918 94.0057 32.7312 93.874L35.3013 85.2336C35.3408 85.1005 35.4657 85.0149 35.6038 85.0228L45.2081 85.68C46.0973 83.9416 47.1442 82.2428 48.3241 80.6269L43.4035 72.3236C43.3325 72.2051 43.3549 72.0536 43.4548 71.9588L49.9945 65.7652C50.0945 65.6704 50.247 65.6572 50.3615 65.7349L58.3637 71.1199C60.0421 70.0308 61.794 69.0773 63.5763 68.2859L63.4579 58.6445C63.4566 58.5063 63.55 58.3851 63.6841 58.3535L72.4414 56.2675C72.5755 56.2345 72.7136 56.3004 72.7741 56.4242L77.0199 65.0962C78.9889 64.9988 80.979 65.0541 82.9414 65.2635L87.6594 56.8456C87.7265 56.7244 87.8685 56.6678 88.0013 56.7073L96.6297 59.2859C96.7612 59.3254 96.8494 59.4505 96.8402 59.5888L96.1904 69.209C97.9253 70.0993 99.622 71.1502 101.237 72.3328L109.524 67.4088C109.642 67.3377 109.793 67.36 109.888 67.4601L116.075 74.0145C116.17 74.1146 116.183 74.2674 116.105 74.382L110.734 82.3942C111.823 84.0773 112.775 85.8328 113.565 87.6172L123.191 87.5053C123.325 87.5119 123.449 87.5975 123.482 87.7318L125.57 96.5052C125.602 96.6396 125.537 96.7779 125.414 96.8384L116.759 101.086C116.858 103.06 116.802 105.054 116.595 107.017L125.002 111.748C125.122 111.815 125.18 111.957 125.14 112.089L122.57 120.729C122.531 120.862 122.406 120.948 122.267 120.94L112.663 120.283C111.775 122.018 110.728 123.717 109.547 125.337L114.468 133.64C114.539 133.759 114.516 133.91 114.416 134.005L107.877 140.199C107.777 140.293 107.624 140.307 107.51 140.229L99.5076 134.844C97.8279 135.934 96.076 136.887 94.295 137.677L94.4134 147.318C94.4147 147.456 94.3214 147.577 94.1872 147.609L85.4299 149.696C85.4076 149.702 85.3839 149.704 85.3615 149.704L85.3629 149.703ZM81.0316 140.265C81.1434 140.265 81.2473 140.328 81.296 140.43L85.5233 149.066L93.8215 147.088L93.7045 137.487C93.7032 137.369 93.7729 137.261 93.8807 137.213C95.7498 136.395 97.5899 135.396 99.3484 134.241C99.4471 134.176 99.576 134.176 99.6746 134.242L107.643 139.605L113.839 133.735L108.938 125.467C108.878 125.365 108.884 125.237 108.954 125.141C110.204 123.447 111.303 121.663 112.223 119.839C112.276 119.733 112.387 119.67 112.507 119.677L122.07 120.331L124.505 112.143L116.133 107.432C116.029 107.374 115.971 107.259 115.984 107.142C116.213 105.084 116.271 102.99 116.157 100.918C116.15 100.8 116.214 100.689 116.321 100.636L124.939 96.4078L122.959 88.0939L113.375 88.2059C113.267 88.2059 113.149 88.1374 113.101 88.0294C112.283 86.1554 111.283 84.3117 110.13 82.551C110.065 82.4522 110.065 82.3231 110.131 82.2243L115.481 74.2463L109.617 68.0356L101.365 72.9386C101.263 72.9992 101.135 72.9926 101.039 72.9228C99.3484 71.6717 97.5662 70.5694 95.7432 69.6463C95.638 69.5923 95.5735 69.4816 95.5814 69.3631L96.2285 59.7837L88.0526 57.3395L83.3557 65.7218C83.2978 65.8258 83.1821 65.8851 83.0663 65.8706C81.0092 65.6401 78.9192 65.5809 76.8529 65.6954C76.7371 65.702 76.624 65.6375 76.5714 65.5308L72.344 56.8956L64.0458 58.8724L64.1629 68.4729C64.1642 68.5914 64.0945 68.6994 63.9866 68.7468C62.115 69.5659 60.2749 70.5655 58.5189 71.7191C58.4203 71.7837 58.2914 71.7837 58.1927 71.7178L50.2247 66.3552L44.0283 72.2248L48.9278 80.4939C48.9883 80.5966 48.9817 80.7244 48.912 80.8205C47.6651 82.5114 46.5655 84.2959 45.6435 86.1225C45.5896 86.2278 45.4791 86.2911 45.3594 86.2845L35.7959 85.6299L33.3612 93.8187L41.7331 98.5294C41.837 98.5873 41.8949 98.7019 41.8817 98.8191C41.6529 100.88 41.595 102.974 41.7094 105.043C41.716 105.161 41.6516 105.272 41.545 105.325L32.9272 109.553L34.9067 117.867L44.4913 117.755C44.6189 117.753 44.7175 117.824 44.7649 117.932C45.583 119.806 46.5826 121.65 47.7361 123.41C47.8006 123.509 47.8006 123.638 47.7348 123.737L42.3855 131.715L48.2491 137.926L56.5013 133.023C56.6039 132.962 56.7315 132.969 56.8275 133.038C58.5189 134.291 60.3012 135.393 62.1229 136.315C62.2281 136.369 62.2925 136.48 62.2846 136.598L61.6375 146.178L69.8134 148.622L74.5103 140.24C74.5682 140.135 74.6813 140.076 74.801 140.091C76.8568 140.321 78.9468 140.38 81.0145 140.267C81.0197 140.267 81.025 140.267 81.0303 140.267L81.0316 140.265ZM78.9666 126.489C78.7403 126.489 78.5128 126.487 78.2866 126.48C72.0192 126.302 66.195 123.692 61.8874 119.128C52.9934 109.706 53.4051 94.7972 62.8055 85.8933C67.3591 81.5804 73.32 79.2994 79.5861 79.4798C85.8535 79.6576 91.6776 82.2678 95.9852 86.8323C104.879 96.2537 104.468 111.163 95.0671 120.067C90.678 124.223 84.9841 126.489 78.9666 126.489ZM78.9061 80.0606C73.0398 80.0606 67.4893 82.2691 63.2106 86.3213C54.0456 95.0013 53.6444 109.535 62.3149 118.721C66.516 123.171 72.1928 125.716 78.3023 125.889C84.4119 126.061 90.2216 123.841 94.6607 119.637C103.826 110.957 104.227 96.4236 95.5564 87.2379C91.3554 82.788 85.6785 80.2424 79.569 80.0698C79.348 80.0632 79.1257 80.0606 78.9061 80.0606Z" fill="#090F05"/>
<path d="M168.972 26.7902L163.823 23.2687L158.843 27.9136C157.506 27.3117 156.136 26.8271 154.747 26.4663L153.753 19.7301L147.538 19.2573L145.546 25.7762C144.105 25.925 142.68 26.1936 141.284 26.5795L137.054 21.2341L131.438 23.9364L132.966 30.5725C131.803 31.414 130.705 32.3635 129.679 33.4118L123.349 30.8991L119.836 36.0523L124.477 41.0421C123.877 42.3815 123.395 43.7524 123.034 45.1431L116.308 46.1348L115.841 52.3586L122.352 54.359C122.502 55.8011 122.771 57.2287 123.157 58.6272L117.822 62.8599L120.525 68.4859L127.15 66.9608C127.992 68.125 128.94 69.226 129.987 70.2545L127.481 76.5916L132.631 80.1131L137.61 75.4683C138.948 76.0701 140.317 76.5547 141.706 76.9156L142.701 83.6517L148.915 84.1245L150.908 77.6057C152.348 77.4568 153.774 77.1882 155.17 76.8023L159.4 82.1478L165.016 79.4454L163.488 72.8094C164.65 71.9678 165.749 71.0183 166.775 69.97L173.105 72.4828L176.618 67.3296L171.977 62.3397C172.576 61.0004 173.059 59.6294 173.419 58.2387L180.146 57.2471L180.613 51.0232L174.102 49.0241C173.952 47.5821 173.682 46.1545 173.297 44.7559L178.633 40.5233L175.93 34.8973L169.305 36.4223C168.463 35.2581 167.515 34.1572 166.468 33.1287L168.974 26.7915L168.972 26.7902ZM161.482 60.7528C156.488 68.0802 146.504 69.9608 139.185 64.9551C131.864 59.9495 129.979 49.9512 134.972 42.6251C139.966 35.2977 149.949 33.4171 157.269 38.4228C164.59 43.4284 166.475 53.4267 161.482 60.7528Z" fill="white"/>
<path d="M148.917 84.417C148.909 84.417 148.902 84.417 148.894 84.417L142.68 83.9442C142.543 83.9337 142.43 83.8296 142.41 83.6927L141.445 77.1501C140.174 76.809 138.906 76.3613 137.67 75.8161L132.832 80.3279C132.731 80.4214 132.578 80.4332 132.465 80.3555L127.316 76.834C127.201 76.7563 127.156 76.6102 127.208 76.4811L129.641 70.3257C128.684 69.3709 127.806 68.3516 127.026 67.2902L120.591 68.7717C120.456 68.802 120.318 68.7362 120.259 68.6124L117.556 62.9864C117.497 62.8613 117.531 62.7125 117.639 62.6269L122.821 58.5154C122.477 57.2288 122.227 55.9079 122.079 54.583L115.754 52.6405C115.623 52.5997 115.536 52.4733 115.546 52.3363L116.013 46.1125C116.024 45.9742 116.128 45.8623 116.264 45.8425L122.798 44.8798C123.137 43.6077 123.584 42.3381 124.127 41.1015L119.618 36.2539C119.525 36.1525 119.513 35.9997 119.591 35.8864L123.104 30.7332C123.182 30.6187 123.328 30.5739 123.457 30.6253L129.606 33.0655C130.558 32.1081 131.575 31.2297 132.635 30.4488L131.151 24.0037C131.119 23.8694 131.187 23.7311 131.31 23.6705L136.927 20.9681C137.05 20.9089 137.2 20.9431 137.286 21.0511L141.396 26.2438C142.681 25.8988 144 25.6512 145.322 25.5037L147.257 19.1718C147.298 19.0401 147.424 18.9532 147.561 18.9638L153.775 19.4365C153.912 19.4471 154.025 19.5511 154.045 19.6881L155.011 26.2319C156.281 26.573 157.549 27.0208 158.785 27.566L163.623 23.0542C163.724 22.9593 163.877 22.9488 163.99 23.0265L169.139 26.548C169.254 26.6257 169.299 26.7719 169.247 26.901L166.814 33.0563C167.772 34.0111 168.649 35.0304 169.429 36.0919L175.865 34.6103C175.997 34.58 176.137 34.6459 176.196 34.7697L178.899 40.3956C178.958 40.5207 178.924 40.6696 178.816 40.7552L173.633 44.8666C173.977 46.1546 174.227 47.4755 174.374 48.799L180.7 50.7415C180.831 50.7823 180.918 50.9088 180.907 51.0457L180.441 57.2696C180.43 57.4079 180.326 57.5198 180.189 57.5396L173.656 58.5022C173.317 59.7744 172.87 61.0426 172.326 62.2805L176.835 67.1282C176.929 67.2296 176.941 67.3824 176.863 67.4956L173.35 72.6488C173.272 72.7634 173.126 72.8082 172.997 72.7568L166.848 70.3165C165.896 71.2739 164.878 72.1523 163.819 72.9319L165.303 79.3771C165.334 79.5114 165.267 79.6497 165.144 79.7102L159.527 82.4126C159.402 82.4719 159.254 82.4376 159.168 82.3296L155.058 77.1369C153.773 77.482 152.454 77.7296 151.132 77.8771L149.196 84.2089C149.157 84.334 149.042 84.4183 148.914 84.4183L148.917 84.417ZM142.958 83.3727L148.704 83.8099L150.627 77.5175C150.661 77.4043 150.761 77.3226 150.878 77.3108C152.298 77.1633 153.715 76.8973 155.091 76.5167C155.205 76.4851 155.328 76.5246 155.4 76.6181L159.484 81.7792L164.675 79.2809L163.201 72.8753C163.175 72.7594 163.219 72.6396 163.315 72.5698C164.456 71.7441 165.549 70.7998 166.565 69.7634C166.648 69.6791 166.775 69.6515 166.885 69.6962L172.996 72.122L176.242 67.3587L171.761 62.5413C171.681 62.4544 171.66 62.328 171.707 62.2186C172.3 60.8938 172.78 59.5295 173.133 58.1651C173.163 58.0505 173.258 57.9636 173.376 57.9465L179.868 56.9904L180.3 51.238L174.014 49.3074C173.901 49.2731 173.819 49.173 173.807 49.0558C173.66 47.6349 173.392 46.2152 173.012 44.8364C172.98 44.7218 173.02 44.5993 173.113 44.5256L178.264 40.4391L175.766 35.2385L169.37 36.7108C169.254 36.7372 169.134 36.6924 169.064 36.5963C168.238 35.4532 167.295 34.3575 166.259 33.3395C166.175 33.2565 166.147 33.1301 166.192 33.0195L168.611 26.9023L163.851 23.6481L159.043 28.1323C158.956 28.2139 158.829 28.2337 158.721 28.185C157.398 27.5897 156.035 27.1077 154.671 26.7535C154.557 26.7232 154.471 26.6283 154.453 26.5111L153.493 20.0081L147.747 19.5722L145.825 25.8645C145.79 25.9778 145.69 26.0594 145.573 26.0713C144.153 26.2188 142.736 26.4861 141.359 26.8654C141.245 26.897 141.122 26.8575 141.05 26.764L136.966 21.6029L131.774 24.1011L133.249 30.5067C133.275 30.6226 133.231 30.7425 133.135 30.8123C131.993 31.6393 130.9 32.5835 129.884 33.6187C129.802 33.7029 129.675 33.7293 129.565 33.6858L123.454 31.26L120.208 36.0234L124.689 40.8408C124.769 40.9277 124.79 41.0541 124.743 41.1634C124.15 42.4869 123.67 43.8513 123.317 45.2169C123.287 45.3315 123.192 45.4184 123.074 45.4356L116.581 46.3917L116.15 52.1441L122.436 54.0747C122.549 54.1089 122.631 54.209 122.642 54.3262C122.791 55.7498 123.058 57.1695 123.438 58.5457C123.47 58.6603 123.43 58.7827 123.337 58.8565L118.186 62.943L120.684 68.1436L127.08 66.6712C127.196 66.6449 127.316 66.6897 127.385 66.7858C128.211 67.9289 129.154 69.0246 130.191 70.0426C130.275 70.1255 130.303 70.252 130.258 70.3626L127.839 76.4798L132.599 79.7339L137.407 75.2498C137.493 75.1694 137.621 75.1484 137.729 75.1971C139.052 75.7923 140.415 76.2743 141.779 76.6286C141.893 76.6589 141.979 76.7537 141.997 76.8709L142.957 83.374L142.958 83.3727ZM148.204 68.058C144.947 68.058 141.767 67.0808 139.018 65.2015C131.575 60.1115 129.65 49.9105 134.729 42.4606C137.188 38.8522 140.905 36.4198 145.194 35.6112C149.482 34.8026 153.831 35.7152 157.436 38.1805C164.879 43.2705 166.803 53.4715 161.726 60.9215C159.267 64.5299 155.55 66.9623 151.261 67.7709C150.241 67.9631 149.219 68.058 148.204 68.058ZM148.249 35.9141C147.27 35.9141 146.285 36.0063 145.302 36.1906C141.168 36.9703 137.587 39.3144 135.215 42.7925C130.321 49.9737 132.176 59.806 139.351 64.7129C142.826 67.09 147.016 67.9697 151.15 67.1901C155.284 66.4105 158.867 64.0663 161.237 60.5883C166.131 53.407 164.277 43.5747 157.102 38.6678C154.453 36.8557 151.387 35.9141 148.247 35.9141H148.249Z" fill="#090F05"/>
<path d="M97.9135 204.197L79.7952 215.96C79.7808 215.969 79.7611 215.974 79.7413 215.974L34.8739 215.863C34.8055 215.863 34.7726 215.809 34.8199 215.779L52.804 204.103C52.8185 204.094 52.8382 204.089 52.8579 204.089L97.8596 204.112C97.9279 204.112 97.9621 204.166 97.9135 204.197Z" fill="white"/>
<path d="M79.7413 216.269L34.8725 216.158C34.7029 216.158 34.5595 216.057 34.5161 215.906C34.474 215.763 34.5319 215.613 34.6595 215.53L52.6435 203.856C52.7053 203.815 52.779 203.794 52.8579 203.794L97.8595 203.817C98.0292 203.817 98.1726 203.919 98.2173 204.069C98.2594 204.211 98.2015 204.361 98.0739 204.444L79.9557 216.207C79.8939 216.248 79.8189 216.269 79.7413 216.269ZM35.6841 215.57L79.6861 215.679L97.048 204.407L52.9145 204.384L35.6841 215.57ZM52.9671 204.349H52.9645C52.9645 204.349 52.9658 204.349 52.9671 204.349Z" fill="#090F05"/>
<path d="M97.9542 204.122V228.283L79.9583 239.974C79.8899 240.019 79.7728 239.987 79.7728 239.924V215.973C79.7728 215.973 97.6951 204.129 97.9555 204.122H97.9542Z" fill="#090F05"/>
<path d="M79.7728 239.995L34.7673 239.886L34.8054 215.888L79.7728 215.974C79.7728 215.974 79.7728 240.036 79.7728 239.995Z" fill="white"/>
<path d="M79.7728 240.29L34.7673 240.181C34.6042 240.181 34.4727 240.048 34.4727 239.884L34.5108 215.887C34.5108 215.808 34.5424 215.733 34.5976 215.678C34.6529 215.622 34.7318 215.591 34.8067 215.592L79.7742 215.678C79.9373 215.678 80.0688 215.811 80.0688 215.973V239.994C80.0688 240.073 80.0372 240.148 79.982 240.203C79.9267 240.258 79.8518 240.289 79.7742 240.289L79.7728 240.29ZM35.0619 239.591L79.4782 239.699V216.268L35.1001 216.182L35.0632 239.589L35.0619 239.591Z" fill="#090F05"/>
<path d="M164.31 159.644L146.209 171.348L96.072 171.238C96.0194 171.238 95.9931 171.197 96.0313 171.173L114.068 159.511L164.241 159.535C164.329 159.535 164.374 159.605 164.311 159.644H164.31Z" fill="white"/>
<path d="M146.209 171.645L96.072 171.534C95.9116 171.534 95.7748 171.435 95.7314 171.29C95.6906 171.152 95.7471 171.006 95.8708 170.925L113.907 159.264C113.955 159.234 114.011 159.217 114.068 159.217L164.241 159.24C164.423 159.24 164.575 159.347 164.621 159.505C164.665 159.651 164.604 159.808 164.471 159.893L146.37 171.597C146.323 171.627 146.266 171.645 146.21 171.645H146.209ZM96.9283 170.945L146.122 171.055L163.48 159.832L114.155 159.808L96.9283 170.945Z" fill="#090F05"/>
<path d="M164.391 159.546V228.268L146.347 239.941C146.295 239.974 146.209 239.95 146.209 239.904V171.348C146.209 171.348 164.131 159.554 164.391 159.546Z" fill="#090F05"/>
<path d="M146.209 240.018L96.0076 239.908C96.1154 239.978 96.0457 171.263 96.0457 171.263L146.209 171.348C146.209 171.348 146.209 240.057 146.209 240.018Z" fill="white"/>
<path d="M146.209 240.314L96.0076 240.204C95.8708 240.204 95.7511 240.11 95.7208 239.975C95.7116 239.936 95.7116 239.895 95.7182 239.857C95.8182 238.369 95.7524 171.938 95.7511 171.265C95.7511 171.186 95.7827 171.111 95.8379 171.056C95.8931 171.001 95.9681 170.969 96.047 170.969L146.21 171.055C146.373 171.055 146.504 171.188 146.504 171.35V240.019C146.504 240.098 146.473 240.173 146.418 240.228C146.362 240.283 146.287 240.314 146.21 240.314H146.209ZM96.3048 239.614L145.913 239.722V171.645L96.3403 171.56C96.343 173.899 96.3574 189.729 96.3614 205.565C96.3627 214.142 96.3614 222.721 96.3535 229.159C96.3496 232.379 96.343 235.063 96.3351 236.944C96.3285 238.411 96.3246 239.19 96.3061 239.614H96.3048Z" fill="#090F05"/>
<path d="M130.616 233.737C130.518 233.737 130.424 233.689 130.367 233.601C130.279 233.464 130.318 233.281 130.455 233.193L135.025 230.238C135.161 230.149 135.344 230.189 135.432 230.326C135.52 230.463 135.481 230.646 135.344 230.734L130.775 233.689C130.725 233.721 130.67 233.737 130.616 233.737Z" fill="#090F05"/>
<path d="M229.66 110.553L211.389 124.68L161.917 124.548C161.843 124.548 161.808 124.48 161.859 124.44L179.855 110.525L229.659 110.554L229.66 110.553Z" fill="white"/>
<path d="M211.389 124.975L161.917 124.843C161.753 124.843 161.609 124.743 161.559 124.595C161.511 124.453 161.559 124.301 161.68 124.206L179.676 110.291C179.728 110.251 179.792 110.229 179.856 110.229L229.66 110.258C229.786 110.258 229.898 110.338 229.939 110.458C229.98 110.578 229.939 110.71 229.84 110.787L211.57 124.914C211.518 124.954 211.454 124.976 211.389 124.976V124.975ZM162.581 124.253L211.289 124.383L228.797 110.847L179.958 110.819L162.583 124.253H162.581Z" fill="#090F05"/>
<path d="M229.66 110.565V226.046L211.666 239.967C211.596 240.021 211.478 239.983 211.478 239.907V124.678C211.478 124.678 229.4 110.574 229.66 110.563V110.565Z" fill="#090F05"/>
<path d="M211.478 239.994L161.796 239.863C161.904 239.946 161.834 124.577 161.834 124.577L211.478 124.68C211.478 124.68 211.478 240.042 211.478 239.994Z" fill="white"/>
<path d="M211.479 240.289L161.797 240.158C161.658 240.158 161.538 240.061 161.509 239.924C161.502 239.888 161.502 239.853 161.507 239.817C161.608 238.017 161.542 125.714 161.541 124.577C161.541 124.498 161.573 124.423 161.628 124.368C161.683 124.312 161.758 124.281 161.836 124.281L211.479 124.383C211.642 124.383 211.774 124.516 211.774 124.678V239.992C211.774 240.071 211.742 240.146 211.687 240.202C211.631 240.257 211.556 240.287 211.479 240.287V240.289ZM162.099 239.568L211.184 239.697V124.973L162.132 124.872C162.133 127.984 162.149 155.088 162.153 182.198C162.154 196.606 162.153 211.016 162.145 221.826C162.141 227.233 162.134 231.738 162.126 234.893C162.122 236.472 162.117 237.713 162.112 238.56C162.109 239.026 162.107 239.344 162.1 239.567L162.099 239.568Z" fill="#090F05"/>
<path d="M182.934 226.087C182.846 226.087 182.759 226.047 182.7 225.972C182.6 225.843 182.624 225.657 182.753 225.557L197.138 214.435C197.267 214.334 197.453 214.358 197.552 214.487C197.652 214.616 197.629 214.802 197.5 214.902L183.114 226.025C183.061 226.067 182.997 226.087 182.934 226.087Z" fill="#090F05"/>
<path d="M182.427 217.712C182.338 217.712 182.252 217.673 182.192 217.598C182.092 217.469 182.116 217.283 182.245 217.183L186.814 213.65C186.943 213.55 187.129 213.573 187.229 213.702C187.329 213.831 187.305 214.017 187.176 214.117L182.607 217.65C182.553 217.693 182.49 217.712 182.427 217.712Z" fill="#090F05"/>
<path d="M14.8563 222.826L13.6317 233.696L18.2497 235.622L19.9504 223.771L14.8563 222.826Z" fill="white"/>
<path d="M18.2497 235.917C18.2116 235.917 18.1734 235.909 18.1366 235.894L13.5199 233.969C13.3989 233.919 13.3252 233.794 13.3397 233.663L14.5642 222.793C14.5734 222.712 14.6155 222.638 14.6813 222.589C14.7471 222.541 14.8299 222.521 14.9102 222.537L20.0043 223.481C20.1595 223.51 20.2647 223.656 20.2424 223.813L18.5417 235.663C18.5285 235.753 18.4746 235.832 18.3957 235.877C18.351 235.902 18.2997 235.915 18.2497 235.915V235.917ZM13.95 233.509L18.0116 235.203L19.6176 224.01L15.114 223.175L13.95 233.509Z" fill="#090F05"/>
<path d="M12.5571 232.67C12.4111 233.702 12.177 235.612 12.1572 237.326C12.1454 238.402 12.9517 239.31 14.0184 239.447C17.033 239.834 23.8713 240.259 29.6954 239.729C30.094 239.692 30.799 239.403 30.9962 238.406C31.6552 235.058 25.839 234.237 19.4637 231.81C19.2138 231.716 18.931 231.772 18.739 231.958L18.0511 232.624C17.3632 233.292 16.3425 233.48 15.4613 233.105L13.3699 232.212C13.0135 232.061 12.611 232.288 12.5571 232.672V232.67Z" fill="white"/>
<path d="M23.6267 240.274C19.7071 240.274 16.0519 240.006 13.9816 239.74C12.7597 239.583 11.8495 238.544 11.8626 237.322C11.8824 235.579 12.1231 233.633 12.2651 232.628C12.3046 232.353 12.465 232.117 12.7057 231.982C12.9464 231.846 13.2305 231.83 13.4857 231.938L15.577 232.831C16.3504 233.162 17.2409 232.997 17.8459 232.411L18.5338 231.745C18.8061 231.48 19.2125 231.398 19.569 231.534C21.0566 232.1 22.4863 232.57 23.8687 233.025C28.3236 234.488 31.842 235.644 31.2869 238.464C31.0765 239.53 30.3136 239.971 29.7244 240.024C27.7435 240.205 25.6509 240.276 23.6293 240.276L23.6267 240.274ZM13.1398 232.458C13.0898 232.458 13.0411 232.471 12.9964 232.497C12.9162 232.541 12.8623 232.62 12.8504 232.711C12.711 233.703 12.4729 235.62 12.4532 237.33C12.4427 238.252 13.1319 239.035 14.0565 239.155C17.1699 239.555 23.8963 239.96 29.6691 239.435C29.8086 239.422 30.5175 239.31 30.7069 238.349C31.1607 236.042 28.025 235.012 23.6845 233.586C22.2956 233.129 20.8593 232.657 19.3585 232.086C19.2151 232.032 19.0534 232.065 18.9442 232.17L18.2563 232.836C17.4816 233.588 16.3386 233.8 15.3455 233.376L13.2542 232.483C13.2174 232.468 13.1779 232.46 13.1385 232.46L13.1398 232.458Z" fill="#090F05"/>
<path d="M12.1625 237.067C12.1625 237.067 12.1586 237.241 12.1586 237.325C12.1467 238.401 12.953 239.31 14.0197 239.447C17.0344 239.834 23.8726 240.258 29.6968 239.729C30.0953 239.692 30.8003 239.402 30.9976 238.405C31.0581 238.1 31.0213 237.549 31.0213 237.549L30.6083 237.57C24.7223 237.861 18.8232 237.719 12.9583 237.148L12.1638 237.07L12.1625 237.067Z" fill="white"/>
<path d="M23.6267 240.274C19.7071 240.274 16.0519 240.006 13.9816 239.74C12.7597 239.583 11.8495 238.544 11.8626 237.322L11.8666 237.061C11.8679 236.979 11.9047 236.9 11.9652 236.846C12.027 236.791 12.1073 236.763 12.1901 236.772L12.9846 236.85C18.8153 237.419 24.7381 237.561 30.5912 237.272L31.0042 237.252C31.1633 237.244 31.3027 237.366 31.3133 237.527C31.3172 237.588 31.3514 238.126 31.2856 238.461C31.0752 239.528 30.3123 239.967 29.7231 240.021C27.7422 240.202 25.6496 240.273 23.628 240.273L23.6267 240.274ZM12.4532 237.393C12.4742 238.286 13.1529 239.038 14.0565 239.154C17.1699 239.554 23.8963 239.958 29.6691 239.434C29.8086 239.421 30.5175 239.309 30.7069 238.348C30.7319 238.221 30.7372 238.026 30.7358 237.858L30.6214 237.863C24.7407 238.154 18.7877 238.01 12.9293 237.439L12.4545 237.393H12.4532Z" fill="#090F05"/>
<path d="M20.925 235.719C20.8501 235.719 20.7738 235.69 20.7159 235.632C20.6002 235.516 20.6002 235.329 20.7159 235.215L22.9532 232.973C23.0677 232.857 23.2557 232.857 23.3702 232.973C23.4859 233.089 23.4859 233.276 23.3702 233.391L21.1328 235.632C21.075 235.69 21 235.719 20.9237 235.719H20.925Z" fill="#090F05"/>
<path d="M23.1229 235.952C23.0492 235.952 22.9756 235.924 22.9177 235.869C22.8007 235.756 22.7967 235.569 22.9098 235.452L24.6973 233.592C24.8104 233.475 24.9972 233.471 25.1143 233.584C25.2313 233.697 25.2353 233.885 25.1222 234.002L23.3347 235.861C23.2768 235.922 23.1992 235.952 23.1216 235.952H23.1229Z" fill="#090F05"/>
<path d="M31.625 151.19C31.625 151.19 28.8142 152.823 27.7172 162.4C26.6203 171.977 26.9859 183.267 19.3467 194.463C13.245 203.405 13.7817 218.496 12.8952 228.388C12.8517 228.866 13.2187 229.279 13.6975 229.296L19.5466 229.497C19.9188 229.51 20.2542 229.275 20.3687 228.92C21.4143 225.679 26.6124 210.041 32.4523 200.974C38.6237 191.392 46.1288 166.519 46.1288 166.519C46.1288 166.519 44.7359 160.232 44.5425 154.207C44.3492 148.181 31.625 151.19 31.625 151.19Z" fill="#090F05"/>
<path d="M63.7301 195.627L61.2639 206.284L65.6294 208.728L68.6822 197.154L63.7301 195.627Z" fill="white"/>
<path d="M65.6294 209.025C65.5794 209.025 65.5294 209.012 65.4847 208.986L61.1192 206.542C61.0048 206.478 60.9456 206.346 60.9759 206.218L63.442 195.562C63.4605 195.481 63.5118 195.413 63.5828 195.372C63.6538 195.331 63.738 195.322 63.8169 195.346L68.769 196.872C68.9203 196.918 69.0084 197.076 68.9676 197.23L65.9148 208.806C65.8911 208.894 65.8293 208.967 65.7451 209.002C65.7083 209.018 65.6688 209.026 65.6294 209.026V209.025ZM61.6019 206.135L65.4413 208.286L68.3244 197.353L63.9458 196.004L61.6006 206.135H61.6019Z" fill="#090F05"/>
<path d="M60.7404 205.655C60.5944 206.686 59.6698 208.639 59.65 210.352C59.6382 211.428 60.4445 212.337 61.5112 212.474C64.5258 212.861 72.0533 213.243 77.8787 212.714C78.2773 212.677 78.9823 212.387 79.1796 211.39C79.8385 208.042 74.0223 207.222 67.647 204.795C67.3971 204.7 67.1143 204.757 66.9223 204.942L66.2344 205.609C65.5465 206.276 64.5258 206.465 63.6446 206.089L61.5533 205.196C61.1968 205.045 60.7943 205.273 60.7404 205.656V205.655Z" fill="white"/>
<path d="M71.3483 213.265C67.4103 213.265 63.5828 213.037 61.473 212.766C60.2511 212.609 59.3409 211.57 59.3541 210.348C59.3672 209.225 59.7513 208.008 60.0617 207.03C60.2419 206.461 60.3971 205.969 60.4471 205.613C60.4852 205.337 60.647 205.102 60.8877 204.966C61.1284 204.83 61.4125 204.815 61.6677 204.923L63.759 205.815C64.5337 206.146 65.4229 205.98 66.0279 205.395L66.7158 204.729C66.9881 204.464 67.3932 204.383 67.7496 204.518C69.2372 205.084 70.667 205.555 72.0493 206.009C76.5043 207.472 80.0227 208.628 79.4676 211.448C79.2572 212.515 78.4943 212.956 77.905 213.009C75.8834 213.192 73.5974 213.267 71.3483 213.267V213.265ZM61.3218 205.443C61.2718 205.443 61.2231 205.456 61.1784 205.481C61.0982 205.526 61.0442 205.605 61.0324 205.696C60.9745 206.101 60.8127 206.615 60.6247 207.209C60.3274 208.149 59.9565 209.32 59.9447 210.356C59.9341 211.278 60.6233 212.062 61.548 212.181C64.2825 212.533 71.8718 212.964 77.8511 212.42C77.9905 212.407 78.6995 212.295 78.8889 211.333C79.344 209.026 76.207 207.996 71.8665 206.57C70.4776 206.114 69.0413 205.642 67.5405 205.07C67.3971 205.016 67.2353 205.049 67.1262 205.153L66.4383 205.819C65.6623 206.571 64.5206 206.783 63.5275 206.359L61.4362 205.466C61.3994 205.451 61.3599 205.443 61.3205 205.443H61.3218Z" fill="#090F05"/>
<path d="M59.8144 210.023C59.8144 210.023 59.8105 210.197 59.8105 210.281C59.7987 211.357 60.6049 212.266 61.6716 212.403C64.6863 212.79 72.0546 213.243 77.8787 212.715C78.2773 212.678 78.9823 212.388 79.1796 211.391C79.2401 211.086 79.2032 210.535 79.2032 210.535L78.7902 210.555C72.9043 210.846 67.0052 210.704 61.1403 210.132L59.8158 210.026L59.8144 210.023Z" fill="white"/>
<path d="M71.9086 213.251C67.5458 213.251 63.4578 212.93 61.6335 212.695C60.4116 212.538 59.5014 211.499 59.5145 210.277L59.5185 210.017C59.5198 209.935 59.5553 209.859 59.6158 209.803C59.6763 209.748 59.7552 209.72 59.8381 209.728L61.1626 209.835C66.9999 210.404 72.9227 210.546 78.7745 210.258L79.1875 210.238C79.3532 210.234 79.486 210.352 79.4966 210.513C79.5005 210.574 79.5347 211.112 79.4689 211.447C79.2585 212.513 78.4956 212.955 77.9064 213.007C75.9781 213.182 73.9144 213.251 71.9099 213.251H71.9086ZM60.1051 210.343C60.1235 211.239 60.8035 211.993 61.7085 212.109C64.3522 212.449 71.7758 212.972 77.8524 212.42C77.9919 212.407 78.7008 212.295 78.8902 211.333C78.9152 211.206 78.9205 211.012 78.9191 210.844L78.8047 210.849C72.9253 211.139 66.9723 210.996 61.1113 210.425L60.1064 210.343H60.1051Z" fill="#090F05"/>
<path d="M69.1083 208.703C69.0333 208.703 68.9571 208.674 68.8992 208.616C68.7834 208.501 68.7834 208.314 68.8992 208.199L71.1365 205.958C71.2509 205.842 71.439 205.842 71.5535 205.958C71.6692 206.073 71.6692 206.26 71.5535 206.375L69.3161 208.616C69.2583 208.674 69.1833 208.703 69.107 208.703H69.1083Z" fill="#090F05"/>
<path d="M71.3049 208.936C71.2312 208.936 71.1576 208.909 71.0997 208.854C70.9827 208.74 70.9787 208.553 71.0918 208.436L72.8793 206.577C72.9924 206.459 73.1792 206.455 73.2963 206.569C73.4133 206.682 73.4173 206.869 73.3042 206.986L71.5167 208.846C71.4588 208.906 71.3812 208.936 71.3036 208.936H71.3049Z" fill="#090F05"/>
<path d="M41.4437 167.214C41.4437 167.214 55.2333 171.322 69.9001 163.436C70.3329 163.203 70.7932 163.701 70.5315 164.117C69.7936 165.286 67.6825 168.159 66.5816 171.151C65.2256 174.836 62.3635 193.898 61.4204 199.83C61.3349 200.366 61.7387 200.854 62.2806 200.871L67.9193 201.055C68.2757 201.066 68.6046 200.868 68.7598 200.545C70.7945 196.3 85.2773 163.002 84.7709 156.78C84.2224 150.053 75.356 150.397 72.1572 150.192C68.8479 149.98 42.4578 150.595 42.4578 150.595L41.445 167.213L41.4437 167.214Z" fill="#090F05"/>
<path d="M2.91996 158.384C3.37373 157.842 3.96299 157.206 4.46806 156.705C5.12177 156.059 7.30253 151.809 7.30253 151.809L11.1169 152.891C11.1169 152.891 9.33335 156.014 9.76214 157.569C10.1607 159.018 10.475 162.076 8.3574 164.303C8.11407 164.558 7.58269 164.625 7.39723 164.582C6.84481 164.453 6.83297 163.684 7.10392 163.185L7.86811 161.774C7.93519 161.65 7.83391 161.503 7.69449 161.523C7.12233 161.603 5.86359 161.97 4.54698 163.597C3.5342 164.848 1.52574 167.641 0.849677 167.179C-0.356451 166.353 0.431413 161.351 2.91864 158.384H2.91996Z" fill="white"/>
<path d="M1.01934 167.528C0.899647 167.528 0.787846 167.495 0.685253 167.424C0.349852 167.193 0.134143 166.75 0.0460184 166.106C-0.222302 164.142 0.71419 160.56 2.69503 158.196C3.15012 157.652 3.73674 157.017 4.26286 156.497C4.77057 155.994 6.441 152.847 7.04209 151.676C7.10654 151.551 7.24991 151.489 7.38538 151.527L11.1984 152.61C11.2852 152.635 11.3563 152.698 11.3918 152.782C11.426 152.866 11.4194 152.961 11.3747 153.04C10.8959 153.879 9.72398 156.315 10.0489 157.493C10.2435 158.2 11.0893 161.865 8.57441 164.508C8.24032 164.86 7.58925 164.932 7.33408 164.872C7.06708 164.808 6.85663 164.633 6.74088 164.376C6.57516 164.005 6.61725 163.47 6.84874 163.045L7.48797 161.865C6.91582 162.003 5.87147 162.437 4.77978 163.784C4.62852 163.97 4.45621 164.191 4.26944 164.429C2.86602 166.219 1.773 167.528 1.02197 167.528H1.01934ZM7.45509 152.161C6.96975 153.097 5.27959 156.321 4.67718 156.917C4.17079 157.418 3.58548 158.054 3.14749 158.575C1.32843 160.746 0.377474 164.179 0.631326 166.025C0.69446 166.485 0.832567 166.809 1.01934 166.937C1.44944 167.06 3.16196 164.883 3.80382 164.064C3.99323 163.823 4.16816 163.601 4.31942 163.412C5.68076 161.732 6.99342 161.325 7.65502 161.232C7.82995 161.207 8.00226 161.282 8.10222 161.427C8.2035 161.573 8.21402 161.76 8.12852 161.916L7.36434 163.327C7.2236 163.586 7.18677 163.933 7.27621 164.134C7.31567 164.224 7.37617 164.275 7.46561 164.296C7.58004 164.322 7.99173 164.261 8.14431 164.1C10.4395 161.686 9.65822 158.303 9.47802 157.648C9.10316 156.289 10.2277 153.942 10.6815 153.076L7.45509 152.161Z" fill="#090F05"/>
<path d="M94.341 110.385L91.8762 106.224C91.4711 105.54 90.1952 105.333 89.5586 105.808C75.6309 116.203 60.8154 111.964 58.5255 111.417C52.8473 110.063 49.9852 109.856 45.5027 109.584C38.942 109.183 29.5047 112.983 23.1545 119.341C18.1024 124.399 9.4859 140.806 5.57815 152.204C5.41374 152.683 5.6255 153.209 6.07402 153.443L9.99492 155.481C10.4921 155.739 11.1024 155.55 11.3655 155.055C13.3608 151.291 22.0049 135.683 31.0502 130.53C31.7144 130.152 32.7154 130.552 32.6772 131.316C32.5562 133.715 31.0699 142.609 30.6162 150.849C30.557 151.937 31.3054 152.901 32.3747 153.099L36.3325 153.834C43.2351 155.444 49.7064 153.651 52.558 152.632C53.4313 152.32 53.8535 151.477 53.9864 150.559C54.206 149.035 57.2707 136.819 62.8568 128.739C63.5604 127.722 64.6258 127.017 65.8596 126.945C70.8406 126.654 85.0208 124.659 94.2792 111.67C94.5489 111.291 94.5765 110.79 94.3397 110.39L94.341 110.385Z" fill="white"/>
<path d="M10.4632 155.889C10.2593 155.889 10.0528 155.841 9.86075 155.741L5.93984 153.704C5.35585 153.401 5.08753 152.729 5.30061 152.108C9.332 140.346 18.0722 124.012 22.9466 119.132C29.0667 113.004 38.5619 108.863 45.5211 109.289C50.1128 109.569 52.9841 109.792 58.5939 111.13C58.6833 111.151 58.7925 111.179 58.92 111.21C70.1645 114.002 80.6988 112.053 89.3824 105.571C89.7638 105.287 90.3359 105.187 90.916 105.302C91.4618 105.412 91.9038 105.694 92.13 106.074L94.5949 110.234C94.8895 110.732 94.8606 111.36 94.5212 111.837C85.3089 124.761 71.422 126.911 65.878 127.236C64.8021 127.299 63.7893 127.906 63.1014 128.903C57.7823 136.597 54.5677 148.605 54.281 150.597C54.1113 151.773 53.5352 152.594 52.6605 152.907C49.4775 154.045 43.1141 155.715 36.2693 154.119L32.3247 153.387C31.1173 153.163 30.2571 152.063 30.3255 150.829C30.6175 145.526 31.3264 140.029 31.8446 136.016C32.1235 133.854 32.3445 132.146 32.3865 131.299C32.3997 131.034 32.2156 130.879 32.1038 130.81C31.8341 130.644 31.4632 130.634 31.1988 130.784C22.3837 135.805 13.9908 150.736 11.6285 155.192C11.3931 155.635 10.9353 155.889 10.4645 155.889H10.4632ZM44.5123 109.85C37.8135 109.85 29.093 113.812 23.3649 119.549C18.5391 124.381 9.86864 140.603 5.85961 152.299C5.74255 152.641 5.88986 153.013 6.21211 153.18L10.133 155.217C10.4842 155.4 10.9222 155.264 11.1076 154.915C13.4883 150.423 21.9536 135.372 30.9068 130.272C31.3567 130.016 31.9617 130.031 32.4128 130.308C32.7903 130.542 32.9955 130.913 32.9745 131.329C32.9311 132.198 32.7088 133.917 32.4286 136.092C31.9117 140.097 31.2041 145.581 30.9134 150.863C30.8621 151.801 31.5145 152.636 32.4313 152.807L36.389 153.542C43.101 155.106 49.3394 153.468 52.4619 152.351C53.3077 152.05 53.5997 151.186 53.697 150.514C53.893 149.157 56.88 136.865 62.6174 128.567C63.4105 127.42 64.5864 126.721 65.8451 126.647C71.3036 126.327 84.9774 124.212 94.0425 111.495C94.2463 111.209 94.2647 110.834 94.0885 110.537L91.6236 106.377C91.4855 106.143 91.1777 105.958 90.8016 105.883C90.3912 105.802 89.9821 105.863 89.7362 106.046C81.0328 112.543 70.0383 114.58 58.7793 111.784C58.6544 111.753 58.5465 111.726 58.4584 111.705C52.896 110.379 50.0457 110.157 45.4856 109.879C45.166 109.859 44.8411 109.85 44.5123 109.85Z" fill="#090F05"/>
<path d="M90.9489 107.475C90.8963 107.166 91.0068 106.853 91.2449 106.648C91.5605 106.38 92.0932 105.921 92.8653 105.245C94.228 104.051 95.9326 101.669 97.4176 100.955C98.9025 100.24 104.291 98.1331 105.153 98.5809C106.014 99.0286 105.587 100.041 104.364 100.63C103.14 101.219 101.548 101.823 101.548 101.823C101.548 101.823 102.438 101.772 103.096 102.802C103.753 103.832 102.842 104.248 103.226 104.757C103.718 105.411 103.573 106.169 103.183 106.502C102.293 107.261 101.215 105.762 100.411 107.312C99.8522 108.389 98.5329 109.091 95.855 109.604C95.1368 109.741 94.4516 110.017 93.8321 110.406C93.5756 110.566 93.2507 110.578 92.9863 110.429C92.3471 110.069 91.2383 109.207 90.9463 107.477L90.9489 107.475Z" fill="white"/>
<path d="M93.3888 110.828C93.2007 110.828 93.0126 110.781 92.8443 110.686C92.1616 110.3 90.97 109.377 90.6582 107.525C90.5885 107.113 90.7411 106.692 91.0542 106.424C91.3698 106.156 91.8999 105.699 92.672 105.023C93.1547 104.601 93.6821 104.024 94.2411 103.413C95.2499 102.309 96.2943 101.169 97.2913 100.689C97.9266 100.384 104.155 97.7274 105.291 98.3187C105.691 98.5268 105.908 98.8573 105.903 99.2511C105.893 99.853 105.354 100.482 104.494 100.896C103.823 101.219 103.038 101.548 102.463 101.781C102.754 101.943 103.071 102.209 103.347 102.642C103.802 103.355 103.621 103.864 103.5 104.2C103.411 104.448 103.406 104.5 103.464 104.578C104.052 105.358 103.876 106.299 103.376 106.726C102.888 107.142 102.353 107.03 101.922 106.941C101.369 106.825 101.035 106.755 100.676 107.448C100.056 108.642 98.6316 109.373 95.9129 109.893C95.2394 110.022 94.5936 110.278 93.9912 110.656C93.8071 110.772 93.5979 110.83 93.3888 110.83V110.828ZM91.2396 107.427C91.5106 109.037 92.5431 109.837 93.1336 110.171C93.3007 110.266 93.5098 110.259 93.6782 110.154C94.3424 109.738 95.0566 109.455 95.8011 109.313C98.3225 108.831 99.6233 108.191 100.151 107.175C100.716 106.086 101.483 106.245 102.042 106.363C102.466 106.451 102.738 106.494 102.993 106.276C103.242 106.064 103.413 105.491 102.993 104.934C102.733 104.589 102.85 104.263 102.943 104.001C103.048 103.706 103.148 103.428 102.848 102.96C102.3 102.101 101.595 102.115 101.563 102.117C101.421 102.122 101.291 102.022 101.262 101.88C101.233 101.737 101.31 101.597 101.445 101.545C101.461 101.539 103.04 100.938 104.237 100.363C104.973 100.008 105.307 99.5448 105.311 99.2406C105.311 99.18 105.315 98.9956 105.017 98.8415C104.391 98.5163 99.4997 100.281 97.5451 101.221C96.6507 101.652 95.6459 102.75 94.6738 103.812C94.1043 104.435 93.5651 105.023 93.0587 105.467C92.284 106.145 91.7513 106.604 91.4343 106.874C91.2764 107.008 91.2028 107.215 91.2383 107.427H91.2396Z" fill="#090F05"/>
<path d="M54.944 98.3081L47.5757 110.536C47.4757 110.675 46.3932 110.637 45.1739 110.761C44.6044 110.819 44.0086 110.906 43.5153 110.986C43.1089 111.052 42.9945 111.582 43.3378 111.809L44.657 112.684C47.4218 114.517 50.7047 115.465 54.014 115.241C54.9334 115.179 55.8147 115.031 56.5986 114.786L59.4199 113.897C59.8434 113.764 59.8395 113.162 59.416 113.033L55.8226 111.942L58.857 105.495L54.944 98.3081Z" fill="white"/>
<path d="M53.0683 115.568C50.0944 115.568 47.0837 114.647 44.4939 112.93L43.1746 112.056C42.9168 111.885 42.7919 111.579 42.8576 111.276C42.9221 110.973 43.1628 110.745 43.4679 110.695C44.0901 110.594 44.653 110.518 45.1436 110.468C45.6474 110.416 46.1314 110.392 46.5208 110.373C46.8522 110.356 47.2244 110.337 47.3704 110.308L54.6914 98.1554C54.7453 98.0646 54.8413 98.0119 54.9505 98.0132C55.0557 98.0158 55.1531 98.0738 55.203 98.1673L59.1161 105.354C59.1608 105.437 59.1634 105.536 59.1239 105.621L56.2355 111.759L59.5027 112.751C59.8224 112.849 60.0302 113.128 60.0328 113.462C60.0341 113.797 59.8289 114.079 59.5106 114.179L56.6893 115.068C55.9067 115.311 55.0136 115.469 54.0364 115.535C53.7154 115.557 53.3932 115.568 53.0696 115.568H53.0683ZM54.9321 98.9021L47.8295 110.689C47.673 110.907 47.3902 110.921 46.551 110.963C46.1683 110.982 45.6921 111.006 45.2041 111.055C44.7254 111.104 44.1729 111.179 43.564 111.277C43.4679 111.293 43.4416 111.368 43.4351 111.4C43.4285 111.432 43.4219 111.509 43.5021 111.563L44.8214 112.438C47.5835 114.27 50.8415 115.16 53.9956 114.946C54.9281 114.883 55.7739 114.734 56.5131 114.504L59.3344 113.615C59.4343 113.583 59.4436 113.499 59.4436 113.465C59.4436 113.431 59.4317 113.346 59.3331 113.316L55.7397 112.226C55.6581 112.201 55.5911 112.141 55.5555 112.062C55.5213 111.983 55.5213 111.894 55.5582 111.816L58.5281 105.504L54.9334 98.9008L54.9321 98.9021Z" fill="#090F05"/>
<path d="M58.2335 105.746C58.6202 105.796 59.0174 105.812 59.4265 105.791L60.1538 105.753C60.1538 105.753 64.326 105.198 64.9954 104.163C65.6649 103.127 64.2497 99.3669 64.2497 99.3669C64.8955 98.8652 65.0388 98.2304 64.9007 98.0171C64.7626 97.8037 63.8327 97.4785 63.4552 97.2006C63.1474 96.9741 62.4582 95.1738 62.1636 94.4008C62.1636 94.4008 61.6178 91.3481 56.7275 91.7445C45.5238 92.6532 53.5787 103.035 53.5787 103.035C53.7523 103.236 53.9312 103.43 54.1153 103.614L58.2322 105.748L58.2335 105.746Z" fill="white"/>
<path d="M59.0753 106.095C58.4532 106.095 57.8429 106.012 57.2536 105.848C57.0971 105.804 57.005 105.641 57.0484 105.484C57.0918 105.327 57.2549 105.235 57.4114 105.279C58.0546 105.459 58.7267 105.53 59.4107 105.496L60.1381 105.458C61.6756 105.252 64.3141 104.673 64.7469 104.002C65.1756 103.339 64.4996 100.871 63.9735 99.4709C63.9274 99.3497 63.9669 99.2128 64.0682 99.1337C64.5719 98.7413 64.689 98.2777 64.6482 98.1684C64.5956 98.1171 64.2668 97.9604 64.0484 97.8563C63.7643 97.7207 63.4723 97.5798 63.2803 97.4388C63.0054 97.236 62.6279 96.4419 61.8874 94.5073C61.8808 94.4902 61.8756 94.4718 61.8729 94.4533C61.8519 94.3414 61.2929 91.672 56.7512 92.0394C53.9877 92.2633 52.2252 93.0587 51.5123 94.4033C50.3075 96.6777 52.2252 100.078 53.3708 102.109L53.4721 102.289C53.5524 102.431 53.5024 102.612 53.3603 102.692C53.2183 102.772 53.0381 102.722 52.9578 102.58L52.8566 102.4C51.6504 100.264 49.6328 96.6882 50.9902 94.1267C51.803 92.5925 53.7247 91.6917 56.7025 91.4507C61.5165 91.0596 62.3609 93.9621 62.4451 94.3151C63.2119 96.3194 63.5144 96.862 63.6328 96.9647C63.7775 97.0701 64.0563 97.2044 64.3036 97.323C64.7666 97.5442 65.0336 97.6785 65.148 97.8563C65.3743 98.2066 65.198 98.9033 64.5969 99.459C64.9047 100.316 65.9017 103.303 65.2414 104.324C64.5193 105.442 60.6326 105.988 60.192 106.046L59.4409 106.087C59.3186 106.094 59.1963 106.096 59.074 106.096L59.0753 106.095Z" fill="#090F05"/>
<path d="M54.4415 90.417C55.6634 90.176 57.055 90.3657 57.6508 90.1629C58.611 89.8349 58.5886 88.73 59.942 88.6207C61.1324 88.5246 62.2386 88.7471 62.8396 89.6598C62.9396 89.8125 63.0264 89.9824 63.0974 90.1747C64.0352 92.7546 62.7397 93.9978 62.1662 94.4021C62.1662 94.4021 58.5373 96.147 57.9112 96.6488C57.3259 97.1176 56.6354 98.2344 57.0116 99.8503C57.0602 100.058 56.9603 100.274 56.7735 100.378C56.5552 100.501 56.2776 100.44 56.1343 100.233C55.6844 99.5829 54.6966 98.3239 53.9653 98.6137C53.1117 98.9521 52.8223 101.1 54.3902 101.631C54.8729 101.794 55.032 102.428 54.6848 102.8C54.3967 103.11 53.9548 103.327 53.2893 103.157C53.2893 103.157 49.3855 100.37 48.9238 96.6988C48.4621 93.0272 52.8158 90.7384 54.4415 90.417Z" fill="#090F05"/>
<path d="M200.269 87.2117H190.016V114.582H200.269V87.2117Z" fill="white"/>
<path d="M200.269 114.878H190.016C189.853 114.878 189.721 114.746 189.721 114.583V87.213C189.721 87.0497 189.853 86.918 190.016 86.918H200.269C200.432 86.918 200.563 87.0497 200.563 87.213V114.583C200.563 114.746 200.432 114.878 200.269 114.878ZM190.312 114.287H199.974V87.5066H190.312V114.287Z" fill="#090F05"/>
<path d="M202.432 107.325H187.747C186.655 107.325 185.77 108.211 185.77 109.305V113.018C185.77 114.111 186.655 114.998 187.747 114.998H202.432C203.524 114.998 204.409 114.111 204.409 113.018V109.305C204.409 108.211 203.524 107.325 202.432 107.325Z" fill="white"/>
<path d="M202.432 115.293H187.747C186.495 115.293 185.475 114.272 185.475 113.018V109.305C185.475 108.051 186.495 107.03 187.747 107.03H202.432C203.684 107.03 204.704 108.051 204.704 109.305V113.018C204.704 114.272 203.684 115.293 202.432 115.293ZM187.747 107.62C186.82 107.62 186.066 108.375 186.066 109.303V113.017C186.066 113.946 186.82 114.7 187.747 114.7H202.432C203.36 114.7 204.113 113.946 204.113 113.017V109.303C204.113 108.375 203.36 107.62 202.432 107.62H187.747Z" fill="#090F05"/>
<path d="M178.865 113.753H211.313C213.103 113.753 214.555 115.208 214.555 116.999V119.766H175.621V116.999C175.621 115.207 177.075 113.753 178.863 113.753H178.865Z" fill="white"/>
<path d="M214.555 120.061H175.621C175.458 120.061 175.327 119.93 175.327 119.766V116.999C175.327 115.046 176.913 113.458 178.863 113.458H211.312C213.262 113.458 214.849 115.046 214.849 116.999V119.766C214.849 119.93 214.717 120.061 214.554 120.061H214.555ZM175.916 119.47H214.259V116.998C214.259 115.37 212.938 114.047 211.312 114.047H178.863C177.238 114.047 175.916 115.37 175.916 116.998V119.47Z" fill="#090F05"/>
<path d="M187.226 85.8751C176.471 79.8277 165.717 70.7013 157.724 60.8361C152.815 54.7782 144.987 43.4433 147.701 35.589C148.485 33.3213 150.479 30.4727 155.527 29.7787C159.192 29.2756 164.147 29.971 170.255 31.845L168.922 37.2431C163.449 35.564 159.148 34.9227 156.142 35.3362C154.071 35.6206 152.809 36.3831 152.387 37.6026C151.386 40.4973 153.8 47.643 161.45 57.0841C169.045 66.4568 179.265 75.1288 189.487 80.8773L187.226 85.8764V85.8751Z" fill="white"/>
<path d="M187.226 86.1713C187.176 86.1713 187.126 86.1582 187.081 86.1331C176.295 80.0686 165.511 70.9159 157.495 61.023C152.548 54.9177 144.66 43.4827 147.423 35.4929C148.233 33.1474 150.291 30.2014 155.487 29.4863C159.194 28.9766 164.191 29.6759 170.34 31.5631C170.49 31.6092 170.578 31.7646 170.54 31.916L169.208 37.3142C169.188 37.3932 169.137 37.4604 169.067 37.4999C168.996 37.5394 168.912 37.5486 168.836 37.5249C163.403 35.859 159.144 35.2202 156.181 35.6285C154.231 35.8958 153.048 36.5925 152.665 37.6987C151.692 40.5157 154.1 47.5455 161.679 56.8971C169.251 66.2421 179.44 74.8878 189.632 80.6191C189.765 80.6942 189.819 80.8588 189.757 80.9984L187.496 85.9975C187.462 86.0726 187.397 86.1305 187.319 86.1568C187.289 86.1661 187.259 86.1713 187.227 86.1713H187.226ZM158.012 29.9169C157.141 29.9169 156.326 29.9696 155.567 30.0736C150.667 30.7466 148.737 33.4977 147.979 35.6878C145.31 43.4077 153.082 54.6425 157.952 60.6517C165.854 70.4036 176.459 79.4299 187.089 85.4602L189.106 81.001C178.931 75.2341 168.778 66.5977 161.219 57.2698C153.498 47.7417 151.079 40.4788 152.106 37.5065C152.568 36.1724 153.911 35.344 156.1 35.0438C159.095 34.6316 163.335 35.2466 168.709 36.8704L169.9 32.0464C165.22 30.6294 161.234 29.9156 158.011 29.9156L158.012 29.9169Z" fill="#090F05"/>
<path d="M203.275 85.5643C213.857 79.5169 224.436 70.3905 232.3 60.5253C237.129 54.4674 244.831 43.1325 242.161 35.2782C241.39 33.0105 239.428 30.1619 234.461 29.4679C230.856 28.9648 225.981 29.6602 219.972 31.5342L221.282 36.9323C226.667 35.2532 230.898 34.6119 233.856 35.0254C235.892 35.3098 237.135 36.0723 237.549 37.2918C238.533 40.1865 236.158 47.3322 228.633 56.7733C221.161 66.146 211.108 74.818 201.05 80.5665L203.274 85.5656L203.275 85.5643Z" fill="white"/>
<path d="M203.275 85.8592C203.245 85.8592 203.214 85.854 203.183 85.8447C203.104 85.8184 203.04 85.7605 203.006 85.6841L200.782 80.685C200.72 80.5467 200.774 80.3834 200.905 80.3083C210.932 74.5783 220.954 65.9326 228.404 56.5876C235.859 47.2347 238.229 40.2049 237.272 37.3866C236.896 36.2817 235.733 35.585 233.817 35.3177C230.901 34.9095 226.714 35.5482 221.371 37.2141C221.294 37.2378 221.209 37.2299 221.138 37.1891C221.067 37.1483 221.016 37.0811 220.998 37.0021L219.686 31.6039C219.65 31.4525 219.736 31.2984 219.885 31.2523C225.937 29.3651 230.855 28.6658 234.502 29.1755C239.617 29.8893 241.641 32.8366 242.44 35.1834C245.156 43.1719 237.397 54.6056 232.53 60.7096C224.644 70.6025 214.035 79.7552 203.421 85.821C203.377 85.8461 203.325 85.8592 203.275 85.8592ZM201.429 80.6889L203.412 85.1454C213.867 79.1152 224.298 70.0902 232.069 60.3409C236.86 54.3304 244.506 43.0956 241.881 35.373C241.136 33.1843 239.237 30.4332 234.42 29.7602C230.911 29.2716 226.171 29.9341 220.324 31.7343L221.495 36.5569C226.778 34.9345 230.951 34.3195 233.897 34.7317C236.053 35.0319 237.376 35.8616 237.83 37.1957C238.84 40.1667 236.459 47.4283 228.865 56.9563C221.428 66.2855 211.441 74.922 201.429 80.6889Z" fill="#090F05"/>
<path d="M195.167 90.7357C222.533 91.0412 222.829 52.1151 228.716 21.1078L161.409 20.8589C166.849 52.7618 167.843 91.2533 195.167 90.7357Z" fill="white"/>
<path d="M194.63 91.036C184.292 91.036 176.846 85.3508 171.877 73.6722C167.401 63.1525 165.312 48.8452 163.292 35.0081C162.61 30.3409 161.905 25.5156 161.12 20.909C161.106 20.8234 161.129 20.7351 161.186 20.668C161.242 20.6021 161.324 20.5534 161.412 20.5639L228.718 20.8128C228.807 20.8128 228.889 20.8523 228.945 20.9208C229 20.9893 229.024 21.0775 229.007 21.1645C228.003 26.448 227.148 32.0556 226.322 37.4787C224.311 50.6731 222.23 64.3166 217.848 74.357C212.951 85.576 205.631 91.0334 195.482 91.0347C195.377 91.0347 195.274 91.0347 195.168 91.0334C194.988 91.0373 194.809 91.0387 194.63 91.0387V91.036ZM161.759 21.1552C162.522 25.6644 163.21 30.3686 163.874 34.9225C165.889 48.7214 167.973 62.9918 172.418 73.4404C177.348 85.0281 184.409 90.4447 194.605 90.446C194.789 90.446 194.973 90.4447 195.16 90.4408C195.163 90.4408 195.165 90.4408 195.169 90.4408C195.278 90.4408 195.388 90.4421 195.495 90.4421C205.511 90.4421 212.447 85.2468 217.306 74.1186C221.658 64.1494 223.732 50.5454 225.738 37.3878C226.547 32.0793 227.383 26.5929 228.361 21.4015L161.761 21.1552H161.759Z" fill="#090F05"/>
<path d="M220.453 57.0524C220.433 57.0524 220.414 57.0511 220.394 57.0459C220.235 57.0129 220.131 56.8575 220.164 56.6969C221.413 50.6113 222.259 43.97 223.077 37.5486C223.38 35.1728 223.693 32.7154 224.022 30.3199C224.044 30.1579 224.191 30.0446 224.354 30.067C224.516 30.0894 224.629 30.2382 224.607 30.4002C224.278 32.7931 223.965 35.2479 223.662 37.6223C222.843 44.0556 221.996 50.7074 220.743 56.8154C220.714 56.955 220.591 57.0511 220.454 57.0511L220.453 57.0524Z" fill="#090F05"/>
<path d="M195.753 88.9184C195.602 88.9184 195.473 88.8025 195.46 88.6484C195.445 88.4864 195.566 88.3429 195.728 88.3284C205.728 87.4619 212.425 80.3701 216.801 66.0115C216.848 65.8561 217.012 65.7679 217.169 65.8153C217.324 65.8627 217.412 66.0287 217.365 66.1841C214.561 75.3829 209.273 87.7476 195.779 88.9171C195.77 88.9171 195.762 88.9171 195.753 88.9171V88.9184Z" fill="#090F05"/>
<path d="M230.272 15.6978H160.502C159.182 15.6978 158.112 16.7691 158.112 18.0906V22.1692C158.112 23.4907 159.182 24.5621 160.502 24.5621H230.272C231.592 24.5621 232.662 23.4907 232.662 22.1692V18.0906C232.662 16.7691 231.592 15.6978 230.272 15.6978Z" fill="white"/>
<path d="M230.273 24.8571H160.502C159.021 24.8571 157.817 23.6508 157.817 22.1693V18.0907C157.817 16.6078 159.022 15.4028 160.502 15.4028H230.273C231.754 15.4028 232.958 16.6091 232.958 18.0907V22.1693C232.958 23.6521 231.753 24.8571 230.273 24.8571ZM160.502 15.9928C159.347 15.9928 158.407 16.9331 158.407 18.0907V22.1693C158.407 23.3255 159.346 24.2672 160.502 24.2672H230.273C231.428 24.2672 232.368 23.3269 232.368 22.1693V18.0907C232.368 16.9344 231.429 15.9928 230.273 15.9928H160.502Z" fill="#090F05"/>
<path d="M209.706 19.6499C209.544 19.6499 209.413 19.5195 209.411 19.3575C209.41 19.1942 209.54 19.0612 209.703 19.0586L223.664 18.9019H223.668C223.83 18.9019 223.961 19.0322 223.962 19.1942C223.964 19.3575 223.834 19.4905 223.67 19.4932L209.71 19.6499H209.706Z" fill="#090F05"/>
<path d="M198.273 19.7776C198.111 19.7776 197.98 19.6472 197.979 19.4852C197.977 19.3219 198.108 19.1889 198.271 19.1863L206.047 19.0994H206.051C206.212 19.0994 206.344 19.2297 206.345 19.3917C206.347 19.555 206.216 19.688 206.053 19.6907L198.277 19.7776H198.273Z" fill="#090F05"/>
<path d="M217.757 221.599C217.757 221.599 205.659 195.047 212.598 160.626C212.598 160.626 231.349 176.358 224.59 221.599H217.757Z" fill="white"/>
<path d="M224.588 221.895H217.756C217.64 221.895 217.535 221.828 217.487 221.722C217.457 221.655 214.424 214.927 212.284 204.078C210.311 194.069 208.713 178.396 212.308 160.568C212.329 160.465 212.401 160.382 212.5 160.348C212.597 160.314 212.706 160.333 212.786 160.4C212.98 160.562 217.575 164.491 221.402 174.039C224.921 182.821 228.382 198.209 224.88 221.645C224.859 221.79 224.734 221.896 224.588 221.896V221.895ZM217.949 221.304H224.335C227.754 198.14 224.335 182.94 220.854 174.257C217.708 166.406 213.965 162.352 212.784 161.201C209.343 178.713 210.919 194.089 212.86 203.944C214.796 213.772 217.466 220.19 217.949 221.304Z" fill="#090F05"/>
<path d="M220.715 219.126C220.715 219.126 220.704 219.126 220.699 219.126C220.536 219.116 220.412 218.978 220.42 218.815C221.348 201.83 213.7 165.589 213.623 165.226C213.589 165.067 213.691 164.91 213.85 164.876C214.01 164.841 214.166 164.943 214.2 165.103C214.278 165.468 221.941 201.787 221.01 218.848C221 219.004 220.871 219.127 220.715 219.127V219.126Z" fill="#090F05"/>
<path d="M229.929 178.431C229.929 178.431 214.341 206.629 223.718 218.83H228.733C228.733 218.83 238.757 196.787 229.929 178.431Z" fill="white"/>
<path d="M228.733 219.125H223.718C223.626 219.125 223.54 219.083 223.484 219.009C219.532 213.868 219.379 205.441 223.026 193.964C225.729 185.459 229.631 178.357 229.671 178.286C229.725 178.19 229.823 178.125 229.938 178.133C230.048 178.136 230.147 178.2 230.196 178.3C234.79 187.855 234.22 198.401 232.933 205.565C231.54 213.318 229.028 218.895 229.003 218.952C228.955 219.057 228.85 219.124 228.734 219.124L228.733 219.125ZM223.864 218.534H228.54C229.434 216.453 237.747 196.15 229.911 179.088C227.882 182.95 215.576 207.466 223.864 218.534Z" fill="#090F05"/>
<path d="M226.059 219.873C225.901 219.873 225.771 219.748 225.764 219.589C225.454 211.569 227.386 195.215 228.566 186.181C228.587 186.019 228.733 185.904 228.897 185.927C229.059 185.948 229.172 186.096 229.151 186.258C227.974 195.274 226.044 211.59 226.354 219.567C226.36 219.73 226.233 219.867 226.071 219.873C226.067 219.873 226.063 219.873 226.059 219.873Z" fill="#090F05"/>
<path d="M200.167 188.943C200.167 188.943 213.447 193.478 218.254 220.335H213.031C213.031 220.335 202.131 205.586 200.167 188.943Z" fill="white"/>
<path d="M218.254 220.629H213.031C212.938 220.629 212.849 220.585 212.794 220.51C212.685 220.362 201.826 205.506 199.874 188.977C199.862 188.877 199.903 188.777 199.982 188.712C200.061 188.648 200.166 188.629 200.262 188.662C200.4 188.709 203.702 189.874 207.629 194.372C211.23 198.498 216.048 206.342 218.543 220.282C218.559 220.367 218.535 220.457 218.479 220.523C218.422 220.589 218.339 220.628 218.253 220.628L218.254 220.629ZM213.182 220.038H217.902C215.418 206.482 210.732 198.837 207.221 194.802C204.221 191.354 201.554 189.889 200.524 189.413C202.514 204.804 212.163 218.616 213.184 220.038H213.182Z" fill="#090F05"/>
<path d="M215.4 219.873C215.258 219.873 215.133 219.771 215.109 219.626C213.131 207.656 204.57 195.598 204.484 195.478C204.389 195.345 204.42 195.161 204.551 195.066C204.684 194.971 204.868 195.002 204.963 195.133C205.05 195.255 213.69 207.422 215.69 219.53C215.717 219.69 215.608 219.843 215.447 219.87C215.431 219.872 215.414 219.873 215.398 219.873H215.4Z" fill="#090F05"/>
<path d="M205.29 218.202H238.051L238.786 233.717C238.966 237.52 235.934 240.703 232.13 240.703H213.42C208.919 240.703 205.273 237.049 205.277 232.542L205.29 218.201V218.202Z" fill="white"/>
<path d="M232.13 241H213.42C211.165 241 209.044 240.12 207.45 238.523C205.856 236.925 204.979 234.802 204.981 232.544L204.994 218.202C204.994 218.039 205.127 217.907 205.289 217.907H238.049C238.207 217.907 238.336 218.031 238.344 218.189L239.079 233.704C239.17 235.625 238.49 237.449 237.164 238.841C235.838 240.233 234.051 241 232.129 241H232.13ZM205.585 218.499L205.572 232.545C205.569 234.646 206.386 236.62 207.868 238.106C209.351 239.592 211.322 240.411 213.42 240.411H232.13C233.889 240.411 235.525 239.709 236.738 238.436C237.952 237.162 238.574 235.492 238.49 233.734L237.769 218.5H205.585V218.499Z" fill="#090F05"/>
<path d="M33.6401 46.7066C33.5677 46.7066 33.4954 46.6802 33.4388 46.6276C33.3191 46.5169 33.3126 46.3299 33.4244 46.2101C51.3742 26.9275 68.8046 18.827 80.2661 15.4266C92.7022 11.7379 101.015 12.6321 101.098 12.6413C101.26 12.6597 101.375 12.8059 101.357 12.9679C101.338 13.1299 101.191 13.2458 101.031 13.2273C100.949 13.2181 92.7298 12.3384 80.3989 16.0021C69.0163 19.384 51.7017 27.4398 33.8558 46.6118C33.7979 46.6737 33.719 46.7053 33.6401 46.7053V46.7066Z" fill="#090F05"/>
<path d="M37.9411 34.6512C37.8596 34.6512 37.7793 34.6183 37.7201 34.5524C37.6123 34.43 37.6228 34.2443 37.7451 34.135C57.3825 16.6631 75.2364 10.2154 86.7571 7.88308C99.2603 5.3506 107.232 6.98624 107.311 7.00336C107.47 7.0376 107.573 7.19432 107.539 7.35367C107.505 7.51302 107.349 7.61442 107.189 7.5815C107.111 7.56438 99.2301 5.95376 86.8373 8.47043C75.3969 10.7935 57.6614 17.207 38.1371 34.5774C38.0805 34.6275 38.0108 34.6525 37.9411 34.6525V34.6512Z" fill="#090F05"/>
<path d="M116.534 3.55698C116.501 3.55698 116.468 3.55698 116.435 3.55434C115.606 3.50693 115.128 2.8748 114.666 2.26242C114.231 1.6856 113.819 1.14171 113.13 1.02977C112.304 0.896758 111.636 1.49465 110.93 2.12678C110.154 2.82081 109.354 3.53986 108.253 3.37524C107.28 3.23038 106.746 2.47314 106.273 1.80676C105.821 1.16805 105.432 0.614933 104.749 0.592545C104.17 0.572791 103.711 0.946802 103.23 1.34188C102.664 1.80545 102.024 2.32959 101.139 2.14785C100.676 2.05303 100.388 1.81598 100.134 1.60659C99.8838 1.40115 99.6865 1.23785 99.3458 1.22073C98.8026 1.19307 98.216 1.55259 97.6083 2.28876C97.5044 2.41387 97.3189 2.43231 97.1927 2.32827C97.0677 2.22423 97.0493 2.03855 97.1532 1.91212C97.8872 1.0245 98.6316 0.591228 99.3761 0.630736C99.9101 0.658392 100.228 0.919146 100.509 1.14961C100.739 1.33925 100.937 1.50255 101.257 1.5684C101.867 1.69351 102.325 1.31818 102.856 0.883589C103.377 0.4569 103.969 -0.0277338 104.769 0.0012389C105.743 0.0341624 106.258 0.761113 106.755 1.46436C107.198 2.09122 107.616 2.68253 108.34 2.79052C109.165 2.91299 109.831 2.31774 110.536 1.68692C111.315 0.990261 112.121 0.269895 113.224 0.447682C114.147 0.596496 114.673 1.29316 115.136 1.90685C115.552 2.45733 115.911 2.93275 116.468 2.96567C117.254 3.01308 118.165 2.15707 119.103 0.496408C119.183 0.354179 119.363 0.304135 119.505 0.384468C119.647 0.464802 119.697 0.645222 119.617 0.787452C118.565 2.65092 117.555 3.55829 116.534 3.55829V3.55698Z" fill="#090F05"/>
<path d="M229.885 89.5308C229.871 89.5308 229.856 89.5308 229.842 89.5282C229.68 89.5045 229.569 89.3543 229.593 89.1923L229.931 86.9259C229.955 86.7639 230.107 86.6546 230.267 86.677C230.428 86.7007 230.539 86.8508 230.515 87.0128L230.177 89.2793C230.155 89.4254 230.03 89.5308 229.885 89.5308Z" fill="#090F05"/>
<path d="M229.099 94.8092C229.084 94.8092 229.07 94.8092 229.055 94.8065C228.893 94.7828 228.783 94.6314 228.807 94.4707L229.145 92.2042C229.168 92.0423 229.32 91.9316 229.48 91.9553C229.642 91.9791 229.752 92.1292 229.729 92.2912L229.391 94.5576C229.368 94.7038 229.243 94.8092 229.099 94.8092Z" fill="#090F05"/>
<path d="M228.157 90.8121C228.142 90.8121 228.128 90.8121 228.113 90.8094L225.85 90.471C225.688 90.4473 225.578 90.2971 225.601 90.1352C225.625 89.9732 225.776 89.8625 225.937 89.8863L228.2 90.2247C228.362 90.2484 228.473 90.3985 228.449 90.5605C228.426 90.7067 228.302 90.8121 228.157 90.8121Z" fill="#090F05"/>
<path d="M233.429 91.5997C233.414 91.5997 233.4 91.5997 233.385 91.597L231.122 91.2586C230.96 91.2349 230.849 91.0847 230.873 90.9227C230.897 90.7608 231.048 90.6501 231.208 90.6739L233.472 91.0123C233.634 91.036 233.744 91.1875 233.721 91.3481C233.698 91.4943 233.573 91.5997 233.429 91.5997Z" fill="#090F05"/>
<path d="M131.217 9.55039C130.551 9.55039 129.904 9.32914 129.362 8.90904C128.034 7.87788 127.762 5.95778 128.757 4.62899C129.236 3.98895 129.936 3.57807 130.726 3.47139C131.532 3.36341 132.335 3.5807 132.986 4.08641C134.316 5.11757 134.587 7.03767 133.591 8.36646C133.112 9.00649 132.412 9.41738 131.622 9.52405C131.486 9.54249 131.351 9.55171 131.217 9.55171V9.55039ZM129.229 4.98193C128.426 6.05523 128.648 7.60659 129.724 8.44153C130.249 8.84846 130.895 9.02625 131.543 8.93801C132.176 8.85241 132.736 8.52318 133.119 8.01089C133.922 6.93758 133.7 5.38623 132.624 4.55129C132.099 4.14435 131.452 3.96788 130.805 4.0548C130.172 4.1404 129.612 4.46964 129.229 4.98193Z" fill="#090F05"/>
</g>
<defs>
<clipPath id="clip0_177_13543">
<rect width="243" height="241" fill="white"/>
</clipPath>
</defs>
</svg>
