<svg width="241" height="241" viewBox="0 0 241 241" fill="none" xmlns="http://www.w3.org/2000/svg">
<rect width="241" height="241" fill="white"/>
<g clip-path="url(#clip0_177_14107)">
<path d="M175.893 179.044H202.862C205.097 179.044 206.908 177.231 206.908 174.994V29.0067C206.908 26.5133 204.889 24.4937 202.4 24.4937H134.061L175.893 179.044Z" fill="white"/>
<path d="M206.909 141.166V29.0067C206.909 26.5133 204.891 24.4937 202.401 24.4937H134.062L206.91 141.167L206.909 141.166Z" fill="white"/>
<path d="M206.909 88.7142C206.763 88.7142 206.644 88.5952 206.644 88.4486V29.0065C206.644 26.6646 204.74 24.7591 202.401 24.7591H134.062C133.916 24.7591 133.797 24.6401 133.797 24.4935C133.797 24.3468 133.916 24.2278 134.062 24.2278H202.401C205.033 24.2278 207.176 26.3713 207.176 29.0077V88.4498C207.176 88.5964 207.057 88.7154 206.91 88.7154L206.909 88.7142Z" fill="#090F05"/>
<path d="M175.893 179.044H202.862C204.172 179.044 205.337 178.42 206.077 177.454L175.893 179.044Z" fill="white"/>
<path d="M202.863 179.31H175.894C175.747 179.31 175.629 179.191 175.629 179.044C175.629 178.897 175.747 178.778 175.894 178.778H202.863C204.05 178.778 205.145 178.236 205.867 177.292C205.956 177.176 206.123 177.154 206.239 177.243C206.356 177.332 206.377 177.499 206.288 177.616C205.465 178.693 204.217 179.311 202.863 179.311V179.31Z" fill="#090F05"/>
<path d="M175.019 185.666C174.73 187.126 173.45 188.178 171.963 188.178H14.3805C12.4183 188.178 10.9448 186.383 11.3254 184.455L42.6578 26.964C42.946 25.5033 44.2262 24.4514 45.7129 24.4514H203.296C205.258 24.4514 206.732 26.2463 206.351 28.1746L175.019 185.666Z" fill="white"/>
<path d="M171.963 188.444H14.3805C13.3657 188.444 12.4134 187.993 11.7685 187.208C11.1236 186.423 10.8679 185.4 11.0648 184.404L42.3972 26.9123C42.7094 25.3327 44.1036 24.1858 45.7128 24.1858H203.296C204.311 24.1858 205.263 24.6366 205.908 25.4216C206.553 26.2067 206.808 27.2297 206.611 28.2263L175.279 185.719C174.967 187.298 173.573 188.445 171.963 188.445V188.444ZM45.7128 24.7172C44.357 24.7172 43.1814 25.6837 42.9184 27.0157L11.586 184.508C11.4203 185.348 11.6364 186.21 12.1792 186.872C12.722 187.534 13.5242 187.913 14.3805 187.913H171.963C173.319 187.913 174.495 186.946 174.758 185.614L206.09 28.1217C206.256 27.2814 206.04 26.4195 205.497 25.7583C204.954 25.0958 204.152 24.7172 203.296 24.7172H45.7128Z" fill="#090F05"/>
<path d="M54.1779 125.157H35.9088C35.8295 125.157 35.7551 125.122 35.7046 125.061C35.6542 125 35.6338 124.919 35.6482 124.842L38.947 107.498C38.9711 107.373 39.0803 107.282 39.2076 107.282H57.4767C57.556 107.282 57.6305 107.317 57.6809 107.378C57.7313 107.439 57.7517 107.52 57.7373 107.597L54.4385 124.941C54.4145 125.066 54.3052 125.157 54.1779 125.157ZM36.2294 124.626H53.9581L57.1561 107.813H39.4274L36.2294 124.626Z" fill="#090F05"/>
<path d="M56.4608 124.89L59.7597 107.548H78.0288L74.7299 124.89H56.4608Z" fill="white"/>
<path d="M95.2819 125.157H77.0128C76.9335 125.157 76.8591 125.122 76.8086 125.061C76.7582 125 76.7378 124.919 76.7522 124.842L80.051 107.498C80.0751 107.373 80.1843 107.282 80.3116 107.282H98.5807C98.66 107.282 98.7345 107.317 98.7849 107.378C98.8353 107.439 98.8557 107.52 98.8413 107.597L95.5425 124.941C95.5185 125.066 95.4092 125.157 95.2819 125.157ZM77.3334 124.626H95.0621L98.2601 107.813H80.5314L77.3334 124.626Z" fill="#090F05"/>
<path d="M115.835 125.157H97.566C97.4868 125.157 97.4123 125.122 97.3619 125.061C97.3114 125 97.291 124.919 97.3054 124.842L100.604 107.498C100.628 107.373 100.738 107.282 100.865 107.282H119.134C119.213 107.282 119.288 107.317 119.338 107.378C119.389 107.439 119.409 107.52 119.395 107.597L116.096 124.941C116.072 125.066 115.962 125.157 115.835 125.157ZM97.8867 124.626H115.615L118.813 107.813H101.085L97.8867 124.626Z" fill="#090F05"/>
<path d="M136.387 125.157H118.118C118.039 125.157 117.964 125.122 117.914 125.061C117.863 125 117.843 124.919 117.857 124.842L121.156 107.498C121.18 107.373 121.29 107.282 121.417 107.282H139.686C139.765 107.282 139.84 107.317 139.89 107.378C139.941 107.439 139.961 107.52 139.947 107.597L136.648 124.941C136.624 125.066 136.514 125.157 136.387 125.157ZM118.439 124.626H136.167L139.365 107.813H121.637L118.439 124.626Z" fill="#090F05"/>
<path d="M156.94 125.157H138.671C138.592 125.157 138.518 125.122 138.467 125.061C138.417 125 138.396 124.919 138.411 124.842L141.709 107.498C141.733 107.373 141.843 107.282 141.97 107.282H160.239C160.318 107.282 160.393 107.317 160.443 107.378C160.494 107.439 160.514 107.52 160.5 107.597L157.201 124.941C157.177 125.066 157.068 125.157 156.94 125.157ZM138.992 124.626H156.721L159.919 107.813H142.19L138.992 124.626Z" fill="#090F05"/>
<path d="M177.492 125.157H159.223C159.144 125.157 159.07 125.122 159.019 125.061C158.969 125 158.948 124.919 158.963 124.842L162.261 107.498C162.286 107.373 162.395 107.282 162.522 107.282H180.791C180.87 107.282 180.945 107.317 180.995 107.378C181.046 107.439 181.066 107.52 181.052 107.597L177.753 124.941C177.729 125.066 177.62 125.157 177.492 125.157ZM159.544 124.626H177.273L180.471 107.813H162.742L159.544 124.626Z" fill="#090F05"/>
<path d="M50.5236 144.543H32.2545C32.1752 144.543 32.1008 144.508 32.0503 144.446C31.9999 144.385 31.9795 144.305 31.9939 144.228L35.2927 126.884C35.3168 126.759 35.426 126.667 35.5533 126.667H53.8224C53.9017 126.667 53.9762 126.702 54.0266 126.763C54.077 126.825 54.0974 126.905 54.083 126.982L50.7842 144.326C50.7602 144.451 50.6509 144.543 50.5236 144.543ZM32.5751 144.011H50.3038L53.5018 127.199H35.7731L32.5751 144.011Z" fill="#090F05"/>
<path d="M52.8077 144.277L56.1054 126.933H74.3745L71.0757 144.277H52.8077Z" fill="white"/>
<path d="M91.6288 144.543H73.3597C73.2805 144.543 73.206 144.508 73.1556 144.446C73.1051 144.385 73.0847 144.305 73.0991 144.228L76.398 126.884C76.422 126.759 76.5313 126.667 76.6586 126.667H94.9277C95.0069 126.667 95.0814 126.702 95.1318 126.763C95.1823 126.825 95.2027 126.905 95.1883 126.982L91.8894 144.326C91.8654 144.451 91.7561 144.543 91.6288 144.543ZM73.6804 144.011H91.4091L94.607 127.199H76.8783L73.6804 144.011Z" fill="#090F05"/>
<path d="M112.181 144.543H93.9117C93.8325 144.543 93.758 144.508 93.7076 144.446C93.6571 144.385 93.6367 144.305 93.6511 144.228L96.95 126.884C96.974 126.759 97.0833 126.667 97.2106 126.667H115.48C115.559 126.667 115.633 126.702 115.684 126.763C115.734 126.825 115.755 126.905 115.74 126.982L112.441 144.326C112.417 144.451 112.308 144.543 112.181 144.543ZM94.2324 144.011H111.961L115.159 127.199H97.4303L94.2324 144.011Z" fill="#090F05"/>
<path d="M132.734 144.543H114.465C114.386 144.543 114.311 144.508 114.261 144.446C114.21 144.385 114.19 144.305 114.204 144.228L117.503 126.884C117.527 126.759 117.636 126.667 117.764 126.667H136.033C136.112 126.667 136.187 126.702 136.237 126.763C136.287 126.825 136.308 126.905 136.293 126.982L132.995 144.326C132.971 144.451 132.861 144.543 132.734 144.543ZM114.786 144.011H132.514L135.712 127.199H117.984L114.786 144.011Z" fill="#090F05"/>
<path d="M153.286 144.543H135.017C134.938 144.543 134.863 144.508 134.813 144.446C134.762 144.385 134.742 144.305 134.756 144.228L138.055 126.884C138.079 126.759 138.188 126.667 138.316 126.667H156.585C156.664 126.667 156.739 126.702 156.789 126.763C156.839 126.825 156.86 126.905 156.845 126.982L153.547 144.326C153.523 144.451 153.413 144.543 153.286 144.543ZM135.338 144.011H153.066L156.264 127.199H138.536L135.338 144.011Z" fill="#090F05"/>
<path d="M173.838 144.543H155.569C155.49 144.543 155.415 144.508 155.365 144.446C155.314 144.385 155.294 144.305 155.308 144.228L158.607 126.884C158.631 126.759 158.74 126.667 158.868 126.667H177.137C177.216 126.667 177.291 126.702 177.341 126.763C177.391 126.825 177.412 126.905 177.397 126.982L174.099 144.326C174.075 144.451 173.965 144.543 173.838 144.543ZM155.89 144.011H173.618L176.816 127.199H159.088L155.89 144.011Z" fill="#090F05"/>
<path d="M61.4853 86.3843H43.2162C43.1369 86.3843 43.0624 86.3495 43.012 86.2882C42.9616 86.2268 42.9412 86.1463 42.9556 86.0694L46.2544 68.7254C46.2784 68.6004 46.3877 68.509 46.515 68.509H64.7841C64.8634 68.509 64.9378 68.5439 64.9883 68.6052C65.0387 68.6665 65.0591 68.7471 65.0447 68.824L61.7459 86.1679C61.7218 86.293 61.6126 86.3843 61.4853 86.3843ZM43.5368 85.853H61.2655L64.4635 69.0404H46.7348L43.5368 85.853Z" fill="#090F05"/>
<path d="M82.0469 86.3663H63.7778C63.6985 86.3663 63.6241 86.3314 63.5737 86.2701C63.5232 86.2088 63.5028 86.1282 63.5172 86.0513L66.8161 68.7074C66.8401 68.5823 66.9493 68.491 67.0766 68.491H85.3458C85.425 68.491 85.4995 68.5258 85.5499 68.5871C85.6003 68.6485 85.6208 68.729 85.6064 68.8059L82.3075 86.1499C82.2835 86.2749 82.1742 86.3663 82.0469 86.3663ZM64.0984 85.8349H81.8272L85.0251 69.0223H67.2964L64.0984 85.8349Z" fill="#090F05"/>
<path d="M102.589 86.3843H84.3202C84.2409 86.3843 84.1664 86.3495 84.116 86.2882C84.0656 86.2268 84.0452 86.1463 84.0596 86.0694L87.3584 68.7254C87.3824 68.6004 87.4917 68.509 87.619 68.509H105.888C105.967 68.509 106.042 68.5439 106.092 68.6052C106.143 68.6665 106.163 68.7471 106.149 68.824L102.85 86.1679C102.826 86.293 102.717 86.3843 102.589 86.3843ZM84.6408 85.853H102.37L105.567 69.0404H87.8388L84.6408 85.853Z" fill="#090F05"/>
<path d="M123.142 86.3843H104.873C104.794 86.3843 104.72 86.3495 104.669 86.2882C104.619 86.2268 104.598 86.1463 104.613 86.0694L107.912 68.7254C107.936 68.6004 108.045 68.509 108.172 68.509H126.441C126.521 68.509 126.595 68.5439 126.645 68.6052C126.696 68.6665 126.716 68.7471 126.702 68.824L123.403 86.1679C123.379 86.293 123.27 86.3843 123.142 86.3843ZM105.194 85.853H122.923L126.121 69.0404H108.392L105.194 85.853Z" fill="#090F05"/>
<path d="M143.694 86.3843H125.425C125.346 86.3843 125.272 86.3495 125.221 86.2882C125.171 86.2268 125.15 86.1463 125.165 86.0694L128.464 68.7254C128.488 68.6004 128.597 68.509 128.724 68.509H146.993C147.073 68.509 147.147 68.5439 147.197 68.6052C147.248 68.6665 147.268 68.7471 147.254 68.824L143.955 86.1679C143.931 86.293 143.822 86.3843 143.694 86.3843ZM125.746 85.853H143.475L146.673 69.0404H128.944L125.746 85.853Z" fill="#090F05"/>
<path d="M164.248 86.3843H145.979C145.899 86.3843 145.825 86.3495 145.774 86.2882C145.724 86.2268 145.704 86.1463 145.718 86.0694L149.017 68.7254C149.041 68.6004 149.15 68.509 149.277 68.509H167.547C167.626 68.509 167.7 68.5439 167.751 68.6052C167.801 68.6665 167.822 68.7471 167.807 68.824L164.508 86.1679C164.484 86.293 164.375 86.3843 164.248 86.3843ZM146.299 85.853H164.028L167.226 69.0404H149.497L146.299 85.853Z" fill="#090F05"/>
<path d="M184.8 86.3843H166.531C166.451 86.3843 166.377 86.3495 166.326 86.2882C166.276 86.2268 166.256 86.1463 166.27 86.0694L169.569 68.7254C169.593 68.6004 169.702 68.509 169.829 68.509H188.099C188.178 68.509 188.252 68.5439 188.303 68.6052C188.353 68.6665 188.374 68.7471 188.359 68.824L185.06 86.1679C185.036 86.293 184.927 86.3843 184.8 86.3843ZM166.851 85.853H184.58L187.778 69.0404H170.049L166.851 85.853Z" fill="#090F05"/>
<path d="M57.831 105.771H39.5619C39.4826 105.771 39.4081 105.736 39.3577 105.675C39.3073 105.613 39.2869 105.533 39.3013 105.456L42.6001 88.1119C42.6241 87.9869 42.7334 87.8955 42.8607 87.8955H61.1298C61.2091 87.8955 61.2835 87.9304 61.334 87.9917C61.3844 88.053 61.4048 88.1335 61.3904 88.2105L58.0916 105.554C58.0676 105.679 57.9583 105.771 57.831 105.771ZM39.8825 105.239H57.6112L60.8092 88.4269H43.0805L39.8825 105.239Z" fill="#090F05"/>
<path d="M78.383 105.771H60.1139C60.0346 105.771 59.9601 105.736 59.9097 105.675C59.8593 105.613 59.8389 105.533 59.8533 105.456L63.1521 88.1119C63.1761 87.9869 63.2854 87.8955 63.4127 87.8955H81.6818C81.7611 87.8955 81.8355 87.9304 81.886 87.9917C81.9364 88.053 81.9568 88.1335 81.9424 88.2105L78.6436 105.554C78.6196 105.679 78.5103 105.771 78.383 105.771ZM60.4345 105.239H78.1632L81.3612 88.4269H63.6325L60.4345 105.239Z" fill="#090F05"/>
<path d="M98.9362 105.771H80.6671C80.5878 105.771 80.5134 105.736 80.4629 105.675C80.4125 105.613 80.3921 105.533 80.4065 105.456L83.7053 88.1119C83.7293 87.9869 83.8386 87.8955 83.9659 87.8955H102.235C102.314 87.8955 102.389 87.9304 102.439 87.9917C102.49 88.053 102.51 88.1335 102.496 88.2105L99.1968 105.554C99.1728 105.679 99.0635 105.771 98.9362 105.771ZM80.9877 105.239H98.7164L101.914 88.4269H84.1857L80.9877 105.239Z" fill="#090F05"/>
<path d="M119.488 105.771H101.219C101.14 105.771 101.065 105.736 101.015 105.675C100.965 105.613 100.944 105.533 100.958 105.456L104.257 88.1119C104.281 87.9869 104.391 87.8955 104.518 87.8955H122.787C122.866 87.8955 122.941 87.9304 122.991 87.9917C123.042 88.053 123.062 88.1335 123.048 88.2105L119.749 105.554C119.725 105.679 119.616 105.771 119.488 105.771ZM101.54 105.239H119.268L122.466 88.4269H104.738L101.54 105.239Z" fill="#090F05"/>
<path d="M140.041 105.771H121.772C121.693 105.771 121.619 105.736 121.568 105.675C121.518 105.613 121.497 105.533 121.512 105.456L124.811 88.1119C124.835 87.9869 124.944 87.8955 125.071 87.8955H143.34C143.42 87.8955 143.494 87.9304 143.544 87.9917C143.595 88.053 143.615 88.1335 143.601 88.2105L140.302 105.554C140.278 105.679 140.169 105.771 140.041 105.771ZM122.093 105.239H139.822L143.02 88.4269H125.291L122.093 105.239Z" fill="#090F05"/>
<path d="M180.903 105.771H162.634C162.555 105.771 162.48 105.736 162.43 105.675C162.379 105.613 162.359 105.533 162.373 105.456L165.672 88.1119C165.696 87.9869 165.805 87.8955 165.933 87.8955H184.202C184.281 87.8955 184.355 87.9304 184.406 87.9917C184.456 88.053 184.477 88.1335 184.462 88.2105L181.163 105.554C181.139 105.679 181.03 105.771 180.903 105.771ZM162.954 105.239H180.683L183.881 88.4269H166.152L162.954 105.239Z" fill="#090F05"/>
<path d="M160.593 105.771H142.324C142.245 105.771 142.171 105.736 142.12 105.675C142.07 105.613 142.049 105.533 142.064 105.456L145.363 88.1119C145.387 87.9869 145.496 87.8955 145.623 87.8955H163.892C163.972 87.8955 164.046 87.9304 164.096 87.9917C164.147 88.053 164.167 88.1335 164.153 88.2105L160.854 105.554C160.83 105.679 160.721 105.771 160.593 105.771ZM142.645 105.239H160.374L163.572 88.4269H145.843L142.645 105.239Z" fill="#090F05"/>
<path d="M75.9127 24.4094C75.7662 24.4094 75.6473 24.2904 75.6473 24.1437C75.6473 21.1948 74.6926 18.4093 72.8853 16.0891C72.7952 15.9737 72.8156 15.8066 72.9309 15.7164C73.0462 15.6262 73.2131 15.6467 73.3032 15.7621C75.1838 18.1761 76.1769 21.0745 76.1769 24.1437C76.1769 24.2904 76.058 24.4094 75.9115 24.4094H75.9127Z" fill="#090F05"/>
<path d="M62.5481 37.7884C55.0329 37.7884 48.9192 31.6681 48.9192 24.1448C48.9192 16.6215 55.0329 10.5 62.5481 10.5C65.3954 10.5 68.1226 11.3704 70.4355 13.0162C70.5544 13.1015 70.5832 13.2674 70.498 13.3864C70.4127 13.5055 70.247 13.5343 70.1281 13.449C67.9052 11.8669 65.2849 11.0314 62.5481 11.0314C55.3259 11.0314 49.45 16.9137 49.45 24.1436C49.45 31.3736 55.3259 37.2558 62.5481 37.2558C62.6946 37.2558 62.8135 37.3749 62.8135 37.5215C62.8135 37.6682 62.6946 37.7872 62.5481 37.7872V37.7884Z" fill="#090F05"/>
<path d="M93.8157 24.4092C93.6691 24.4092 93.5503 24.2902 93.5503 24.1436C93.5503 21.1225 92.5535 18.2841 90.6657 15.935C90.5733 15.8208 90.5925 15.6537 90.7066 15.5612C90.8206 15.4698 90.9876 15.4878 91.08 15.602C93.0159 18.0124 94.0811 21.0455 94.0811 24.1436C94.0811 24.2902 93.9622 24.4092 93.8157 24.4092Z" fill="#090F05"/>
<path d="M80.4521 37.7884C72.937 37.7884 66.8232 31.6681 66.8232 24.1448C66.8232 16.6215 72.937 10.5 80.4521 10.5C83.1409 10.5 85.742 11.2826 87.9745 12.7649C88.097 12.8455 88.1306 13.0114 88.0489 13.1328C87.9685 13.2554 87.8028 13.2891 87.6815 13.2073C85.5367 11.7839 83.0376 11.0314 80.4521 11.0314C73.23 11.0314 67.354 16.9137 67.354 24.1436C67.354 31.3736 73.23 37.2558 80.4521 37.2558C80.5986 37.2558 80.7175 37.3749 80.7175 37.5215C80.7175 37.6682 80.5986 37.7872 80.4521 37.7872V37.7884Z" fill="#090F05"/>
<path d="M111.72 24.4094C111.573 24.4094 111.454 24.2903 111.454 24.1437C111.454 21.1154 110.399 18.1604 108.482 15.8258C108.388 15.7127 108.405 15.5444 108.518 15.4519C108.631 15.3593 108.799 15.3749 108.892 15.4879C110.886 17.9188 111.985 20.9927 111.985 24.1437C111.985 24.2903 111.866 24.4094 111.72 24.4094Z" fill="#090F05"/>
<path d="M98.355 37.7884C90.8398 37.7884 84.7261 31.6681 84.7261 24.1448C84.7261 16.6215 90.8398 10.5 98.355 10.5C101.158 10.5 103.849 11.3451 106.14 12.944C106.26 13.0282 106.29 13.1941 106.206 13.3143C106.122 13.4345 105.958 13.4646 105.836 13.3804C103.635 11.844 101.049 11.0326 98.355 11.0326C91.1328 11.0326 85.2569 16.9149 85.2569 24.1448C85.2569 31.3748 91.1328 37.2571 98.355 37.2571C98.5015 37.2571 98.6204 37.3761 98.6204 37.5227C98.6204 37.6694 98.5015 37.7884 98.355 37.7884Z" fill="#090F05"/>
<path d="M129.622 24.4092C129.476 24.4092 129.357 24.2902 129.357 24.1435C129.357 21.0731 128.275 18.0869 126.309 15.7354C126.216 15.6224 126.23 15.4553 126.343 15.3616C126.455 15.2678 126.623 15.2822 126.716 15.3952C128.761 17.8417 129.887 20.9493 129.887 24.1447C129.887 24.2914 129.768 24.4104 129.621 24.4104L129.622 24.4092Z" fill="#090F05"/>
<path d="M116.259 37.7884C108.744 37.7884 102.63 31.6681 102.63 24.1448C102.63 16.6215 108.744 10.5 116.259 10.5C118.99 10.5 121.625 11.3055 123.879 12.8298C124 12.9116 124.032 13.0775 123.949 13.1989C123.868 13.3203 123.702 13.3528 123.581 13.2698C121.414 11.8056 118.883 11.0314 116.258 11.0314C109.036 11.0314 103.16 16.9137 103.16 24.1436C103.16 31.3736 109.036 37.2558 116.258 37.2558C116.404 37.2558 116.523 37.3749 116.523 37.5215C116.523 37.6682 116.404 37.7872 116.258 37.7872L116.259 37.7884Z" fill="#090F05"/>
<path d="M147.526 24.4094C147.38 24.4094 147.261 24.2904 147.261 24.1437C147.261 21.1515 146.281 18.3335 144.426 15.9965C144.335 15.8811 144.354 15.714 144.469 15.6226C144.584 15.5312 144.75 15.5505 144.842 15.6659C146.772 18.0991 147.793 21.0312 147.793 24.1437C147.793 24.2904 147.674 24.4094 147.528 24.4094H147.526Z" fill="#090F05"/>
<path d="M134.162 37.7884C126.647 37.7884 120.533 31.6681 120.533 24.1448C120.533 16.6215 126.647 10.5 134.162 10.5C136.882 10.5 139.508 11.2995 141.756 12.813C141.878 12.8948 141.91 13.0595 141.828 13.1821C141.747 13.3035 141.581 13.336 141.46 13.2542C139.299 11.7996 136.775 11.0314 134.161 11.0314C126.938 11.0314 121.063 16.9137 121.063 24.1436C121.063 31.3736 126.938 37.2558 134.161 37.2558C134.307 37.2558 134.426 37.3749 134.426 37.5215C134.426 37.6682 134.307 37.7872 134.161 37.7872L134.162 37.7884Z" fill="#090F05"/>
<path d="M165.429 24.4092C165.283 24.4092 165.164 24.2902 165.164 24.1435C165.164 21.1669 164.194 18.3622 162.356 16.03C162.265 15.9146 162.285 15.7475 162.401 15.6573C162.516 15.5659 162.683 15.5864 162.773 15.7018C164.685 18.1278 165.695 21.0467 165.695 24.1435C165.695 24.2902 165.576 24.4092 165.429 24.4092Z" fill="#090F05"/>
<path d="M152.066 37.7884C144.551 37.7884 138.437 31.6681 138.437 24.1448C138.437 16.6215 144.551 10.5 152.066 10.5C154.723 10.5 157.298 11.2658 159.514 12.7156C159.636 12.7962 159.671 12.9609 159.591 13.0835C159.51 13.2061 159.346 13.241 159.223 13.1604C157.095 11.7683 154.62 11.0314 152.066 11.0314C144.844 11.0314 138.968 16.9137 138.968 24.1436C138.968 31.3736 144.844 37.2558 152.066 37.2558C152.212 37.2558 152.331 37.3749 152.331 37.5215C152.331 37.6682 152.212 37.7872 152.066 37.7872V37.7884Z" fill="#090F05"/>
<path d="M183.333 24.4093C183.187 24.4093 183.068 24.2903 183.068 24.1436C183.068 21.1322 182.023 18.1916 180.126 15.8618C180.033 15.7476 180.05 15.5805 180.164 15.4879C180.278 15.3953 180.445 15.4122 180.538 15.5264C182.512 17.95 183.6 21.0108 183.6 24.1436C183.6 24.2903 183.481 24.4093 183.335 24.4093H183.333Z" fill="#090F05"/>
<path d="M169.969 37.7884C162.454 37.7884 156.34 31.6681 156.34 24.1448C156.34 16.6215 162.454 10.5 169.969 10.5C172.615 10.5 175.181 11.2598 177.39 12.6976C177.513 12.7781 177.548 12.9416 177.468 13.0655C177.388 13.1881 177.223 13.223 177.101 13.1436C174.979 11.7623 172.512 11.0314 169.97 11.0314C162.748 11.0314 156.872 16.9137 156.872 24.1436C156.872 31.3736 162.748 37.2558 169.97 37.2558C170.116 37.2558 170.235 37.3749 170.235 37.5215C170.235 37.6682 170.116 37.7872 169.97 37.7872L169.969 37.7884Z" fill="#090F05"/>
<path d="M187.873 37.7884C180.358 37.7884 174.244 31.6681 174.244 24.1448C174.244 16.6215 180.358 10.5 187.873 10.5C195.388 10.5 201.502 16.6203 201.502 24.1436C201.502 24.2903 201.383 24.4093 201.236 24.4093C201.09 24.4093 200.971 24.2903 200.971 24.1436C200.971 16.9137 195.095 11.0314 187.873 11.0314C180.651 11.0314 174.775 16.9137 174.775 24.1436C174.775 31.3736 180.651 37.2558 187.873 37.2558C188.019 37.2558 188.138 37.3749 188.138 37.5215C188.138 37.6682 188.019 37.7872 187.873 37.7872V37.7884Z" fill="#090F05"/>
<path d="M62.8062 40.2325C62.04 40.2325 61.3027 39.9079 60.7839 39.3429C60.6842 39.2347 60.6914 39.0664 60.7995 38.9678C60.9076 38.868 61.0757 38.8764 61.1742 38.9834C61.5921 39.4402 62.1878 39.7011 62.805 39.7011C64.0251 39.7011 65.0194 38.7069 65.0194 37.4843C65.0194 36.2617 64.0263 35.2674 62.805 35.2674C62.1013 35.2674 61.4324 35.6077 61.0169 36.1775C60.9304 36.2965 60.7647 36.3218 60.6458 36.2352C60.5269 36.1487 60.5017 35.9827 60.5882 35.8637C61.1045 35.158 61.9332 34.7361 62.805 34.7361C64.3181 34.7361 65.5502 35.9683 65.5502 37.4843C65.5502 39.0002 64.3193 40.2325 62.805 40.2325H62.8062Z" fill="#090F05"/>
<path d="M80.4004 40.2325C79.6343 40.2325 78.8969 39.9079 78.3782 39.3429C78.2785 39.2347 78.2857 39.0664 78.3938 38.9678C78.5018 38.868 78.67 38.8764 78.7684 38.9834C79.1863 39.4402 79.782 39.7011 80.3992 39.7011C81.6194 39.7011 82.6137 38.7069 82.6137 37.4843C82.6137 36.2617 81.6206 35.2674 80.3992 35.2674C79.6955 35.2674 79.0266 35.6077 78.6111 36.1775C78.5247 36.2965 78.3589 36.3218 78.24 36.2352C78.1212 36.1487 78.0959 35.9827 78.1824 35.8637C78.6988 35.158 79.5274 34.7361 80.3992 34.7361C81.9124 34.7361 83.1445 35.9683 83.1445 37.4843C83.1445 39.0002 81.9136 40.2325 80.3992 40.2325H80.4004Z" fill="#090F05"/>
<path d="M97.9947 40.2325C97.2285 40.2325 96.4912 39.9079 95.9724 39.3429C95.8727 39.2347 95.8799 39.0664 95.988 38.9678C96.0961 38.868 96.2642 38.8764 96.3627 38.9834C96.7806 39.4402 97.3762 39.7011 97.9935 39.7011C99.2136 39.7011 100.208 38.7069 100.208 37.4843C100.208 36.2617 99.2148 35.2674 97.9935 35.2674C97.2898 35.2674 96.6209 35.6077 96.2054 36.1775C96.1189 36.2965 95.9532 36.3218 95.8343 36.2352C95.7154 36.1487 95.6902 35.9827 95.7766 35.8637C96.293 35.158 97.1216 34.7361 97.9935 34.7361C99.5066 34.7361 100.739 35.9683 100.739 37.4843C100.739 39.0002 99.5078 40.2325 97.9935 40.2325H97.9947Z" fill="#090F05"/>
<path d="M116.093 40.2325C115.327 40.2325 114.59 39.9079 114.071 39.3429C113.971 39.2347 113.979 39.0664 114.087 38.9678C114.195 38.868 114.363 38.8764 114.461 38.9834C114.879 39.4402 115.475 39.7011 116.092 39.7011C117.312 39.7011 118.307 38.7069 118.307 37.4843C118.307 36.2617 117.313 35.2674 116.092 35.2674C115.388 35.2674 114.72 35.6077 114.304 36.1775C114.218 36.2953 114.052 36.3218 113.933 36.2352C113.814 36.1487 113.789 35.9827 113.875 35.8637C114.39 35.158 115.219 34.7361 116.092 34.7361C117.605 34.7361 118.837 35.9683 118.837 37.4843C118.837 39.0002 117.606 40.2325 116.092 40.2325H116.093Z" fill="#090F05"/>
<path d="M133.874 40.2325C133.107 40.2325 132.37 39.9079 131.851 39.3429C131.752 39.2347 131.759 39.0664 131.867 38.9678C131.975 38.868 132.143 38.8764 132.242 38.9834C132.659 39.4402 133.255 39.7011 133.872 39.7011C135.092 39.7011 136.087 38.7069 136.087 37.4843C136.087 36.2617 135.094 35.2674 133.872 35.2674C133.169 35.2674 132.5 35.6077 132.084 36.1775C131.998 36.2965 131.832 36.3218 131.713 36.2352C131.594 36.1487 131.569 35.9827 131.656 35.8637C132.172 35.158 133.001 34.7361 133.872 34.7361C135.386 34.7361 136.618 35.9683 136.618 37.4843C136.618 39.0002 135.387 40.2325 133.872 40.2325H133.874Z" fill="#090F05"/>
<path d="M152.503 40.2325C151.737 40.2325 150.999 39.9079 150.481 39.3429C150.381 39.2347 150.388 39.0664 150.496 38.9678C150.604 38.868 150.773 38.8764 150.871 38.9834C151.289 39.4402 151.885 39.7011 152.502 39.7011C153.722 39.7011 154.716 38.7069 154.716 37.4843C154.716 36.2617 153.723 35.2674 152.502 35.2674C151.798 35.2674 151.129 35.6077 150.714 36.1775C150.627 36.2953 150.461 36.3218 150.343 36.2352C150.224 36.1487 150.198 35.9827 150.285 35.8637C150.8 35.158 151.629 34.7361 152.502 34.7361C154.015 34.7361 155.247 35.9683 155.247 37.4843C155.247 39.0002 154.016 40.2325 152.502 40.2325H152.503Z" fill="#090F05"/>
<path d="M170.097 40.2325C169.331 40.2325 168.594 39.9079 168.075 39.3429C167.975 39.2347 167.982 39.0664 168.091 38.9678C168.199 38.868 168.367 38.8764 168.465 38.9834C168.883 39.4402 169.479 39.7011 170.096 39.7011C171.317 39.7011 172.31 38.7069 172.31 37.4843C172.31 36.2617 171.317 35.2674 170.096 35.2674C169.392 35.2674 168.723 35.6077 168.308 36.1775C168.221 36.2953 168.056 36.3218 167.937 36.2352C167.818 36.1487 167.793 35.9827 167.879 35.8637C168.394 35.158 169.223 34.7361 170.096 34.7361C171.609 34.7361 172.841 35.9683 172.841 37.4843C172.841 39.0002 171.61 40.2325 170.096 40.2325H170.097Z" fill="#090F05"/>
<path d="M187.691 40.2325C186.925 40.2325 186.188 39.9079 185.669 39.3429C185.569 39.2347 185.577 39.0664 185.685 38.9678C185.793 38.868 185.961 38.8764 186.059 38.9834C186.477 39.4402 187.073 39.7011 187.69 39.7011C188.91 39.7011 189.905 38.7069 189.905 37.4843C189.905 36.2617 188.912 35.2674 187.69 35.2674C186.987 35.2674 186.318 35.6077 185.902 36.1775C185.816 36.2953 185.65 36.3218 185.531 36.2352C185.412 36.1487 185.387 35.9827 185.473 35.8637C185.989 35.158 186.817 34.7361 187.69 34.7361C189.203 34.7361 190.435 35.9683 190.435 37.4843C190.435 39.0002 189.205 40.2325 187.69 40.2325H187.691Z" fill="#090F05"/>
<path d="M152.77 101.222C152.714 101.222 152.659 101.217 152.604 101.206C152.287 101.146 152.037 100.927 151.936 100.621L149.955 95.4476C149.902 95.3105 149.97 95.1567 150.107 95.1038C150.244 95.0521 150.398 95.1194 150.451 95.2565L152.436 100.441C152.479 100.574 152.577 100.659 152.701 100.683C152.82 100.706 152.938 100.665 153.018 100.576L158.493 91.8278C158.571 91.704 158.734 91.6655 158.859 91.7437C158.984 91.8218 159.021 91.9853 158.943 92.1103L153.459 100.875C153.453 100.885 153.446 100.895 153.439 100.903C153.269 101.109 153.028 101.222 152.771 101.222H152.77Z" fill="#090F05"/>
<path d="M124.839 140.103C124.785 140.103 124.731 140.098 124.677 140.087C124.366 140.028 124.121 139.814 124.023 139.513L122.07 134.413C122.017 134.276 122.086 134.122 122.223 134.069C122.358 134.017 122.513 134.085 122.566 134.222L124.524 139.333C124.566 139.46 124.658 139.541 124.776 139.563C124.889 139.585 125 139.546 125.076 139.462L130.397 130.959C130.475 130.834 130.638 130.797 130.763 130.875C130.888 130.953 130.925 131.116 130.847 131.241L125.517 139.76C125.511 139.77 125.503 139.779 125.496 139.788C125.331 139.99 125.094 140.1 124.841 140.1L124.839 140.103Z" fill="#090F05"/>
<path d="M114.802 82.0276C114.747 82.0276 114.691 82.0228 114.634 82.012C114.314 81.9518 114.063 81.7306 113.961 81.4217L111.936 76.1345C111.883 75.9974 111.951 75.8435 112.088 75.7906C112.225 75.7377 112.379 75.8063 112.432 75.9433L114.461 81.2438C114.506 81.3784 114.605 81.4662 114.733 81.4902C114.855 81.5131 114.974 81.4722 115.057 81.3796L120.6 72.5219C120.678 72.3981 120.842 72.3596 120.967 72.4378C121.091 72.5159 121.129 72.6794 121.051 72.8044L115.496 81.679C115.49 81.6886 115.483 81.6982 115.476 81.7066C115.306 81.9146 115.062 82.0288 114.802 82.0288V82.0276Z" fill="#090F05"/>
<path d="M105.552 201.521C107.944 193.855 108.171 181.346 105.552 173.543L107.432 170.828L178.784 172.931L177.012 202.093L107.306 202.455L105.552 201.522V201.521Z" fill="white"/>
<path d="M107.305 202.721C107.262 202.721 107.219 202.71 107.18 202.69L105.426 201.757C105.313 201.697 105.259 201.564 105.297 201.443C107.778 193.492 107.778 181.014 105.3 173.628C105.273 173.549 105.285 173.461 105.333 173.392L107.214 170.678C107.266 170.605 107.348 170.56 107.44 170.564L178.792 172.666C178.864 172.669 178.931 172.7 178.98 172.753C179.028 172.806 179.053 172.877 179.049 172.949L177.276 202.111C177.268 202.251 177.152 202.36 177.013 202.361L107.308 202.723H107.306L107.305 202.721ZM105.869 201.39L107.37 202.188L176.761 201.828L178.502 173.187L107.568 171.096L105.846 173.584C108.292 181.009 108.301 193.385 105.87 201.389L105.869 201.39Z" fill="#090F05"/>
<path d="M210.74 169.355H104.597C103.482 169.355 102.577 169.7 102.577 171.439C102.577 173.177 103.482 173.522 104.597 173.522H170.275C173.489 173.522 176.093 176.516 176.093 181.52V193.524C176.093 198.529 173.489 201.257 170.275 201.257H104.597C103.482 201.257 102.577 201.336 102.577 203.074C102.577 204.813 103.482 205.158 104.597 205.158H210.74C216.665 205.158 221.468 197.678 221.468 188.45V186.065C221.468 176.838 216.664 169.357 210.74 169.357V169.355Z" fill="white"/>
<path d="M210.74 205.422H104.597C103.616 205.422 102.312 205.179 102.312 203.073C102.312 200.967 103.633 200.99 104.597 200.99H170.275C173.597 200.99 175.828 197.989 175.828 193.523V181.519C175.828 176.967 173.545 173.787 170.275 173.787H104.597C103.616 173.787 102.312 173.544 102.312 171.438C102.312 169.331 103.616 169.089 104.597 169.089H210.74C216.802 169.089 221.733 176.703 221.733 186.062V188.447C221.733 197.806 216.801 205.421 210.74 205.421V205.422ZM104.597 201.522C103.477 201.522 102.843 201.595 102.843 203.074C102.843 204.554 103.544 204.892 104.597 204.892H210.74C216.509 204.892 221.202 197.517 221.202 188.451V186.066C221.202 177 216.509 169.625 210.74 169.625H104.597C103.544 169.625 102.843 169.934 102.843 171.442C102.843 172.951 103.544 173.26 104.597 173.26H170.275C173.857 173.26 176.359 176.659 176.359 181.524V193.528C176.359 199.053 173.304 201.526 170.275 201.526H104.597V201.522Z" fill="#090F05"/>
<path d="M210.74 205.422H104.597C103.616 205.422 102.312 205.18 102.312 203.073C102.312 200.967 103.633 200.99 104.597 200.99H170.275C173.597 200.99 175.828 197.989 175.828 193.523V181.519C175.828 176.967 173.545 173.787 170.275 173.787H148.23C148.084 173.787 147.965 173.668 147.965 173.521C147.965 173.374 148.084 173.255 148.23 173.255H170.275C173.857 173.255 176.359 176.654 176.359 181.519V193.523C176.359 199.048 173.304 201.521 170.275 201.521H104.597C103.477 201.521 102.843 201.593 102.843 203.073C102.843 204.553 103.544 204.891 104.597 204.891H210.74C216.509 204.891 221.202 197.516 221.202 188.45V186.065C221.202 176.999 216.509 169.624 210.74 169.624H148.759C148.612 169.624 148.493 169.505 148.493 169.358C148.493 169.211 148.612 169.092 148.759 169.092H210.74C216.802 169.092 221.733 176.707 221.733 186.066V188.451C221.733 197.81 216.801 205.425 210.74 205.425V205.422Z" fill="#090F05"/>
<path d="M148.23 173.787H104.597C103.616 173.787 102.312 173.544 102.312 171.438C102.312 169.331 103.616 169.089 104.597 169.089H148.759C148.905 169.089 149.024 169.208 149.024 169.354C149.024 169.501 148.905 169.62 148.759 169.62H104.597C103.544 169.62 102.843 169.929 102.843 171.438C102.843 172.946 103.544 173.255 104.597 173.255H148.23C148.377 173.255 148.496 173.374 148.496 173.521C148.496 173.668 148.377 173.787 148.23 173.787Z" fill="#090F05"/>
<path d="M153.087 182.66H146.268C146.122 182.66 146.003 182.541 146.003 182.394C146.003 182.248 146.122 182.129 146.268 182.129H153.087C153.233 182.129 153.352 182.248 153.352 182.394C153.352 182.541 153.233 182.66 153.087 182.66Z" fill="#090F05"/>
<path d="M140.04 182.66H110.512C110.365 182.66 110.246 182.541 110.246 182.394C110.246 182.248 110.365 182.129 110.512 182.129H140.04C140.187 182.129 140.306 182.248 140.306 182.394C140.306 182.541 140.187 182.66 140.04 182.66Z" fill="#090F05"/>
<path d="M143.866 186.451H110.694C110.548 186.451 110.429 186.332 110.429 186.185C110.429 186.038 110.548 185.919 110.694 185.919H143.866C144.013 185.919 144.132 186.038 144.132 186.185C144.132 186.332 144.013 186.451 143.866 186.451Z" fill="#090F05"/>
<path d="M153.158 193.244H148.88C148.734 193.244 148.615 193.125 148.615 192.978C148.615 192.832 148.734 192.713 148.88 192.713H153.158C153.304 192.713 153.423 192.832 153.423 192.978C153.423 193.125 153.304 193.244 153.158 193.244Z" fill="white"/>
<path d="M143.684 193.244H110.512C110.365 193.244 110.246 193.125 110.246 192.978C110.246 192.832 110.365 192.713 110.512 192.713H143.684C143.83 192.713 143.949 192.832 143.949 192.978C143.949 193.125 143.83 193.244 143.684 193.244Z" fill="#090F05"/>
<path d="M109.313 227.873H209.624V207.441H109.313C111.948 214.342 112.02 221.156 109.313 227.873Z" fill="white"/>
<path d="M209.624 228.139H109.313C109.224 228.139 109.143 228.095 109.093 228.022C109.044 227.949 109.034 227.856 109.067 227.774C111.699 221.243 111.698 214.434 109.064 207.536C109.033 207.454 109.044 207.363 109.093 207.29C109.143 207.218 109.224 207.175 109.312 207.175H209.623C209.77 207.175 209.889 207.294 209.889 207.441V227.873C209.889 228.02 209.77 228.139 209.623 228.139H209.624ZM109.703 227.607H209.358V207.706H109.695C112.194 214.482 112.196 221.173 109.702 227.607H109.703Z" fill="#090F05"/>
<path d="M198.881 208.448H108.699C107.748 208.448 106.977 207.727 106.977 206.838C106.977 205.95 107.748 205.229 108.699 205.229H222.429C226.611 205.229 230 208.397 230 212.304V223.425C230 227.332 226.611 230.5 222.429 230.5H108.699C107.748 230.5 106.977 229.779 106.977 228.89C106.977 228.002 107.748 227.28 108.699 227.28H198.881C201.835 227.28 204.229 225.043 204.229 222.282V213.446C204.229 210.685 201.834 208.447 198.881 208.447V208.448Z" fill="#090F05"/>
<path d="M136.845 212.557H115.253C115.106 212.557 114.987 212.438 114.987 212.292C114.987 212.145 115.106 212.026 115.253 212.026H136.845C136.991 212.026 137.11 212.145 137.11 212.292C137.11 212.438 136.991 212.557 136.845 212.557Z" fill="#090F05"/>
<path d="M192.565 212.557H168.61C168.464 212.557 168.345 212.438 168.345 212.292C168.345 212.145 168.464 212.026 168.61 212.026H192.565C192.711 212.026 192.83 212.145 192.83 212.292C192.83 212.438 192.711 212.557 192.565 212.557Z" fill="#090F05"/>
<path d="M138.687 216.879H115.53C115.384 216.879 115.265 216.76 115.265 216.613C115.265 216.467 115.384 216.348 115.53 216.348H138.687C138.833 216.348 138.952 216.467 138.952 216.613C138.952 216.76 138.833 216.879 138.687 216.879Z" fill="#090F05"/>
<path d="M196.12 216.879H166.38C166.234 216.879 166.115 216.76 166.115 216.613C166.115 216.467 166.234 216.348 166.38 216.348H196.12C196.267 216.348 196.386 216.467 196.386 216.613C196.386 216.76 196.267 216.879 196.12 216.879Z" fill="#090F05"/>
<path d="M158.864 222.837H115.53C115.384 222.837 115.265 222.718 115.265 222.571C115.265 222.425 115.384 222.306 115.53 222.306H158.864C159.011 222.306 159.13 222.425 159.13 222.571C159.13 222.718 159.011 222.837 158.864 222.837Z" fill="#090F05"/>
<path d="M196.014 222.837H168.271C168.124 222.837 168.005 222.718 168.005 222.571C168.005 222.425 168.124 222.306 168.271 222.306H196.014C196.16 222.306 196.279 222.425 196.279 222.571C196.279 222.718 196.16 222.837 196.014 222.837Z" fill="#090F05"/>
<path d="M154.994 203.998L153.018 211.252L148.484 210.851L149.464 203.251L154.994 203.998Z" fill="white"/>
<path d="M153.018 211.518C153.011 211.518 153.003 211.518 152.994 211.518L148.46 211.117C148.388 211.111 148.322 211.075 148.276 211.019C148.23 210.962 148.21 210.89 148.219 210.818L149.199 203.218C149.209 203.148 149.245 203.084 149.301 203.041C149.358 202.998 149.428 202.978 149.498 202.988L155.029 203.735C155.104 203.744 155.171 203.787 155.215 203.851C155.257 203.915 155.27 203.994 155.249 204.068L153.274 211.322C153.243 211.438 153.137 211.518 153.018 211.518ZM148.783 210.611L152.82 210.968L154.657 204.22L149.693 203.551L148.783 210.611Z" fill="#090F05"/>
<path d="M152.717 219.542C149.387 221.122 140.73 224.945 133.965 225.456C132.521 225.565 131.623 224.177 131.959 222.766C133.386 216.78 148.086 206.702 148.086 206.702L150.211 207.418C150.956 207.669 151.321 208.511 150.996 209.229L150.556 210.198L153.962 209.908C154.738 209.842 155.413 210.438 155.437 211.217C155.478 212.539 155.377 214.691 154.629 217.283C154.342 218.276 153.649 219.1 152.717 219.542Z" fill="white"/>
<path d="M133.805 225.727C133.172 225.727 132.607 225.469 132.197 224.988C131.688 224.389 131.502 223.536 131.7 222.704C133.134 216.687 147.331 206.895 147.935 206.482C148.003 206.435 148.091 206.423 148.169 206.449L150.293 207.166C150.72 207.31 151.067 207.628 151.247 208.042C151.426 208.456 151.422 208.927 151.236 209.337L150.984 209.893L153.938 209.642C154.39 209.604 154.822 209.748 155.159 210.048C155.494 210.348 155.687 210.759 155.701 211.207C155.743 212.572 155.636 214.745 154.882 217.357C154.573 218.425 153.825 219.309 152.828 219.783C149.424 221.397 140.772 225.208 133.983 225.72C133.923 225.725 133.863 225.727 133.804 225.727H133.805ZM148.127 206.996C146.784 207.931 133.54 217.277 132.216 222.828C132.058 223.495 132.201 224.174 132.601 224.644C132.935 225.037 133.414 225.231 133.943 225.191C140.643 224.686 149.223 220.905 152.601 219.303C153.46 218.895 154.106 218.133 154.373 217.21C155.108 214.666 155.212 212.551 155.171 211.225C155.162 210.924 155.032 210.647 154.808 210.446C154.581 210.244 154.286 210.147 153.985 210.172L150.579 210.462C150.483 210.47 150.394 210.427 150.34 210.35C150.286 210.273 150.277 210.173 150.315 210.087L150.753 209.118C150.879 208.84 150.882 208.534 150.761 208.254C150.639 207.973 150.413 207.767 150.125 207.669L148.128 206.995L148.127 206.996Z" fill="#090F05"/>
<path d="M134.183 223.324C134.055 223.324 133.941 223.23 133.922 223.098C133.9 222.953 134 222.818 134.144 222.795C143.315 221.403 151.874 217.01 151.959 216.967C152.09 216.9 152.25 216.95 152.317 217.081C152.384 217.211 152.334 217.372 152.203 217.439C152.116 217.484 143.483 221.916 134.223 223.322C134.21 223.324 134.197 223.325 134.183 223.325V223.324Z" fill="#090F05"/>
<path d="M141.027 217.864C140.944 217.864 140.862 217.825 140.81 217.752L138.71 214.78C138.625 214.66 138.653 214.494 138.773 214.41C138.893 214.326 139.059 214.353 139.143 214.474L141.243 217.445C141.327 217.566 141.3 217.732 141.18 217.816C141.133 217.848 141.08 217.865 141.027 217.865V217.864Z" fill="#090F05"/>
<path d="M145.048 216.248C144.965 216.248 144.882 216.21 144.831 216.136L142.192 212.402C142.108 212.282 142.136 212.116 142.256 212.032C142.376 211.948 142.542 211.975 142.626 212.096L145.264 215.83C145.348 215.95 145.321 216.116 145.2 216.2C145.154 216.232 145.101 216.249 145.048 216.249V216.248Z" fill="#090F05"/>
<path d="M175.785 172.792C174.551 175.998 171.162 184.145 166.926 188.838C166.021 189.84 164.525 189.48 163.847 188.313C160.968 183.356 164.422 167.105 164.422 167.105L166.314 166.223C166.978 165.914 167.765 166.246 168.006 166.939L168.332 167.876L170.444 165.491C170.926 164.947 171.763 164.916 172.279 165.426C173.156 166.291 174.468 167.81 175.626 170.039C176.069 170.892 176.13 171.895 175.786 172.793L175.785 172.792Z" fill="white"/>
<path d="M165.648 189.688C165.577 189.688 165.505 189.685 165.432 189.677C164.698 189.601 164.02 189.141 163.617 188.446C160.721 183.459 164.02 167.717 164.162 167.049C164.179 166.967 164.235 166.898 164.31 166.864L166.203 165.981C166.587 165.802 167.031 165.794 167.423 165.96C167.813 166.125 168.118 166.45 168.257 166.85L168.434 167.359L170.246 165.313C170.528 164.994 170.919 164.81 171.344 164.796C171.77 164.781 172.165 164.938 172.467 165.235C173.371 166.128 174.694 167.665 175.862 169.915C176.342 170.839 176.404 171.922 176.033 172.887C174.771 176.166 171.377 184.304 167.124 189.016C166.729 189.454 166.211 189.688 165.649 189.688H165.648ZM164.655 167.289C164.339 168.832 161.416 183.598 164.076 188.18C164.394 188.728 164.921 189.09 165.487 189.149C165.959 189.198 166.4 189.025 166.729 188.66C170.923 184.014 174.286 175.949 175.537 172.697C175.853 171.874 175.8 170.95 175.391 170.161C174.255 167.973 172.971 166.481 172.093 165.615C171.897 165.421 171.64 165.319 171.362 165.328C171.083 165.338 170.829 165.458 170.644 165.666L168.531 168.051C168.469 168.122 168.373 168.155 168.282 168.136C168.189 168.117 168.113 168.051 168.082 167.962L167.757 167.026C167.665 166.763 167.473 166.558 167.218 166.449C166.961 166.341 166.681 166.345 166.429 166.463L164.656 167.289H164.655Z" fill="#090F05"/>
<path d="M165.535 187.345C165.479 187.345 165.421 187.327 165.373 187.29C165.256 187.2 165.236 187.033 165.326 186.917C170.621 180.082 173.575 171.619 173.604 171.535C173.652 171.397 173.802 171.322 173.941 171.371C174.079 171.419 174.154 171.57 174.106 171.708C174.076 171.794 171.093 180.338 165.745 187.243C165.694 187.31 165.614 187.346 165.535 187.346V187.345Z" fill="#090F05"/>
<path d="M166.651 179.262C166.634 179.262 166.617 179.261 166.599 179.257L163.276 178.602C163.132 178.573 163.038 178.434 163.067 178.289C163.096 178.145 163.234 178.052 163.379 178.08L166.702 178.735C166.846 178.764 166.94 178.904 166.911 179.048C166.886 179.174 166.776 179.262 166.651 179.262Z" fill="#090F05"/>
<path d="M168.326 175.587C168.309 175.587 168.292 175.586 168.274 175.582L164.099 174.76C163.955 174.731 163.861 174.591 163.89 174.447C163.919 174.303 164.057 174.209 164.202 174.238L168.378 175.06C168.522 175.089 168.615 175.228 168.587 175.373C168.561 175.499 168.451 175.587 168.326 175.587Z" fill="#090F05"/>
<path d="M191.952 143.473C191.611 143.113 167.291 132.595 157.351 130.358C147.41 128.121 143.238 127.845 140.324 133.787C136.678 141.221 156.617 170.507 156.617 170.507L198.478 159.584L191.952 143.473Z" fill="#090F05"/>
<path d="M165.922 154.279C165.821 154.279 165.724 154.22 165.679 154.121C160.656 142.898 152.369 134.883 152.284 134.802C152.179 134.701 152.175 134.533 152.276 134.426C152.378 134.32 152.545 134.317 152.652 134.418C152.736 134.498 161.099 142.585 166.163 153.903C166.223 154.036 166.163 154.194 166.03 154.254C165.995 154.269 165.958 154.277 165.922 154.277V154.279Z" fill="white"/>
<path d="M213.468 153.885C213.468 153.885 215.401 158.984 209.327 164.996C201.715 172.531 166.031 168.579 166.031 168.579C166.031 168.579 165.793 174.777 164.936 179.232C162.563 191.559 161.362 192.16 155.737 206.239L148.289 205.072C148.289 205.072 148.473 163.349 153.946 156.911C159.42 150.472 193.893 150.118 193.893 150.118L213.47 153.886L213.468 153.885Z" fill="#090F05"/>
<path d="M151.198 162.984C151.169 162.984 151.139 162.979 151.11 162.97C150.972 162.922 150.899 162.77 150.947 162.632C151.961 159.711 152.903 157.728 153.743 156.739C157.536 152.277 184.37 150.051 192.503 149.475C192.655 149.466 192.777 149.575 192.787 149.722C192.798 149.868 192.687 149.995 192.541 150.005C184.459 150.578 157.806 152.779 154.148 157.083C153.35 158.022 152.442 159.947 151.449 162.806C151.41 162.916 151.308 162.984 151.198 162.984Z" fill="white"/>
<path d="M194.795 141.412L184.172 124.983C183.985 124.696 183.671 124.518 183.329 124.507L173.858 124.223L167.846 119.466L166.11 121.216L176.778 135.103L184.935 141.591L194.796 141.412H194.795Z" fill="white"/>
<path d="M184.934 141.857C184.874 141.857 184.816 141.836 184.768 141.799L176.611 135.311C176.594 135.298 176.578 135.282 176.565 135.265L165.898 121.379C165.816 121.273 165.826 121.124 165.919 121.029L167.655 119.278C167.749 119.182 167.902 119.173 168.008 119.257L173.952 123.96L183.335 124.241C183.763 124.254 184.16 124.477 184.393 124.837L195.016 141.266C195.068 141.347 195.072 141.45 195.028 141.536C194.983 141.621 194.894 141.675 194.798 141.676L184.938 141.857C184.938 141.857 184.934 141.857 184.933 141.857H184.934ZM176.967 134.914L185.024 141.323L194.312 141.153L183.949 125.126C183.811 124.912 183.576 124.78 183.321 124.771L173.851 124.487C173.795 124.486 173.739 124.466 173.694 124.43L167.866 119.819L166.461 121.236L176.967 134.912V134.914Z" fill="#090F05"/>
<path d="M193.466 143.006L182.755 126.439C182.625 126.238 182.405 126.114 182.166 126.107L172.53 125.818L166.115 120.743C165.775 120.473 165.32 120.887 165.554 121.252L175.45 136.698L183.607 143.186L193.468 143.007L193.466 143.006Z" fill="white"/>
<path d="M183.607 143.452C183.547 143.452 183.489 143.431 183.441 143.394L175.284 136.906C175.261 136.888 175.242 136.866 175.225 136.841L165.33 121.395C165.156 121.123 165.2 120.78 165.44 120.562C165.68 120.345 166.025 120.334 166.278 120.533L172.625 125.555L182.173 125.841C182.499 125.851 182.799 126.02 182.976 126.294L193.687 142.862C193.74 142.942 193.744 143.046 193.699 143.131C193.655 143.216 193.566 143.27 193.47 143.272L183.61 143.452C183.61 143.452 183.606 143.452 183.605 143.452H183.607ZM175.65 136.517L183.698 142.918L192.986 142.749L182.534 126.582C182.451 126.454 182.311 126.376 182.16 126.371L172.524 126.083C172.468 126.082 172.412 126.061 172.367 126.026L165.952 120.951C165.883 120.897 165.827 120.93 165.799 120.955C165.772 120.981 165.732 121.034 165.779 121.108L175.65 136.517Z" fill="#090F05"/>
<path d="M182.129 140.847C182.041 140.847 181.957 140.803 181.906 140.725L173.185 127.237C173.105 127.114 173.14 126.949 173.263 126.869C173.386 126.79 173.55 126.824 173.63 126.947L182.351 140.436C182.43 140.558 182.395 140.723 182.273 140.803C182.229 140.832 182.178 140.846 182.129 140.846V140.847Z" fill="#090F05"/>
<path d="M225.114 149.149C225.114 149.149 230.21 142.667 229.09 129.239C228.013 116.346 221.276 114.315 216.807 112.73C212.409 111.171 194.682 112.869 192.264 138.207C192.225 138.616 192.561 149.572 192.53 149.994L211.1 154.58L211.325 145.366L225.114 149.149Z" fill="white"/>
<path d="M211.1 154.845C211.079 154.845 211.058 154.843 211.037 154.838L192.466 150.253C192.34 150.222 192.255 150.105 192.264 149.975C192.278 149.778 192.203 146.953 192.137 144.461C192.037 140.697 191.979 138.396 191.999 138.182C193.308 124.462 199.088 118.07 203.705 115.123C209.076 111.694 214.647 111.682 216.895 112.48L217.256 112.608C221.65 114.156 228.291 116.497 229.353 129.217C230.469 142.595 225.373 149.249 225.321 149.314C225.255 149.398 225.146 149.434 225.043 149.405L211.582 145.712L211.366 154.586C211.363 154.666 211.325 154.742 211.261 154.79C211.214 154.826 211.158 154.844 211.1 154.844V154.845ZM192.796 149.786L210.843 154.243L211.061 145.36C211.063 145.278 211.102 145.202 211.168 145.153C211.234 145.104 211.318 145.088 211.396 145.11L225.007 148.844C225.715 147.83 229.834 141.354 228.824 129.26C227.79 116.884 221.601 114.702 217.081 113.109L216.718 112.98C214.564 112.217 209.203 112.243 203.991 115.57C199.473 118.453 193.817 124.726 192.529 138.231C192.511 138.456 192.598 141.777 192.669 144.445C192.744 147.253 192.793 149.142 192.798 149.785L192.796 149.786Z" fill="#090F05"/>
<path d="M210.393 144.401C210.376 144.401 210.359 144.399 210.341 144.396C210.197 144.367 210.104 144.228 210.132 144.085L212.556 131.706C212.583 131.561 212.723 131.468 212.867 131.496C213.011 131.525 213.105 131.665 213.076 131.808L210.652 144.187C210.627 144.313 210.517 144.402 210.392 144.402L210.393 144.401Z" fill="#090F05"/>
<path d="M189.645 135.688C188.698 135.365 187.821 136.002 188.496 136.866C189.035 137.557 191.617 139.048 192.029 139.306C192.13 139.368 192.089 139.559 191.974 139.534C188.646 138.801 186.913 138.85 186.013 139.078C185.377 139.238 184.994 139.885 185.129 140.527C186.1 145.152 195.64 144.627 196.757 144.76C197.673 144.869 203.675 150.396 203.675 150.396C206.389 153.205 210.065 155.469 212.72 156.793C218.159 159.504 220.163 150.3 220.715 148.008C220.715 148.008 203.627 143.351 197.623 140.365C196.833 139.972 196.107 139.466 195.443 138.885C194.678 138.217 193.026 136.842 189.645 135.691V135.688Z" fill="white"/>
<path d="M214.623 157.551C213.975 157.551 213.3 157.377 212.601 157.028C210.927 156.194 206.689 153.895 203.484 150.579C200.576 147.901 197.246 145.085 196.726 145.022C196.589 145.005 196.279 144.999 195.886 144.992C193.115 144.937 185.754 144.789 184.871 140.58C184.704 139.788 185.178 139.015 185.949 138.82C187.06 138.539 188.813 138.631 191.168 139.094C189.913 138.33 188.679 137.529 188.288 137.031C187.806 136.413 188.03 135.956 188.15 135.788C188.449 135.366 189.1 135.223 189.733 135.438C193.298 136.654 194.984 138.129 195.62 138.684C196.299 139.278 197.014 139.764 197.743 140.127C203.656 143.067 220.616 147.705 220.787 147.751C220.925 147.788 221.009 147.93 220.975 148.07L220.924 148.287C220.435 150.343 219.137 155.806 216.122 157.217C215.645 157.441 215.144 157.554 214.626 157.554L214.623 157.551ZM187.469 139.195C186.838 139.195 186.392 139.256 186.077 139.336C185.584 139.461 185.281 139.96 185.389 140.472C186.187 144.267 193.241 144.409 195.897 144.462C196.321 144.47 196.626 144.476 196.789 144.496C197.742 144.61 202.843 149.267 203.855 150.2C207.014 153.469 211.189 155.732 212.839 156.554C213.945 157.105 214.973 157.165 215.895 156.734C218.662 155.438 219.92 150.206 220.398 148.195C218.268 147.607 203.069 143.368 197.505 140.602C196.735 140.219 195.984 139.708 195.269 139.085C194.655 138.548 193.027 137.123 189.56 135.941C189.105 135.786 188.717 135.905 188.581 136.096C188.436 136.301 188.597 136.565 188.705 136.704C189.136 137.256 191.119 138.449 191.866 138.897C192.004 138.98 192.11 139.044 192.17 139.081C192.33 139.182 192.395 139.395 192.321 139.576C192.254 139.742 192.087 139.832 191.916 139.794C189.864 139.342 188.446 139.195 187.468 139.195H187.469Z" fill="#090F05"/>
<path d="M212.103 101.265C212.173 101.394 214.313 107.341 215.353 109.535C215.932 110.755 216.797 111.814 217.878 112.623L219.882 114.125C218.752 114.984 217.122 115.839 214.331 116.58C211.483 117.335 209.067 117.182 207.653 116.985C207.775 116.598 207.982 116.094 208.341 115.566C208.906 114.736 209.58 114.242 210.01 113.977C209.096 112.406 206.902 106.251 205.988 104.681L212.102 101.265H212.103Z" fill="white"/>
<path d="M209.997 117.414C209.204 117.414 208.41 117.359 207.617 117.248C207.539 117.237 207.47 117.193 207.428 117.127C207.386 117.061 207.375 116.979 207.399 116.904C207.567 116.374 207.81 115.874 208.121 115.417C208.532 114.814 209.048 114.299 209.658 113.888C209.187 112.994 208.49 111.258 207.753 109.428C206.993 107.537 206.207 105.583 205.76 104.814C205.724 104.753 205.714 104.679 205.734 104.61C205.753 104.541 205.798 104.482 205.86 104.447L211.973 101.032C212.036 100.997 212.108 100.989 212.176 101.009C212.245 101.028 212.301 101.075 212.336 101.136C212.359 101.179 212.399 101.282 212.714 102.133C213.393 103.96 214.806 107.762 215.593 109.42C216.15 110.595 216.996 111.629 218.038 112.409L220.042 113.911C220.109 113.961 220.148 114.04 220.149 114.122C220.149 114.205 220.111 114.285 220.045 114.335C218.664 115.385 216.871 116.179 214.4 116.835C212.952 117.219 211.479 117.412 209.997 117.412V117.414ZM208.013 116.764C210.114 117.015 212.216 116.867 214.265 116.324C216.496 115.732 218.152 115.029 219.438 114.124L217.721 112.837C216.61 112.005 215.709 110.903 215.115 109.649C214.319 107.97 212.9 104.154 212.218 102.319C212.122 102.06 212.032 101.819 211.967 101.646L206.351 104.785C206.822 105.684 207.517 107.412 208.248 109.231C209.008 111.122 209.795 113.075 210.242 113.845C210.314 113.97 210.274 114.13 210.152 114.205C209.513 114.599 208.977 115.107 208.563 115.718C208.341 116.044 208.157 116.396 208.014 116.765L208.013 116.764Z" fill="#090F05"/>
<path d="M199.501 93.6648C201.84 92.4217 203.858 94.6229 206.608 93.0745C207.868 92.3652 208.143 91.5105 209.534 91.264C210.455 91.1005 212.02 91.1775 212.875 92.1537C213.963 93.3967 212.707 94.7371 213.057 98.3846C213.303 100.946 214.106 102.202 213.364 102.932C212.615 103.672 211.399 102.776 210.52 103.522C209.382 104.487 210.672 106.618 209.829 108.137C209.295 109.096 207.548 110.23 203.876 110.149C203.303 110.137 202.817 109.721 202.724 109.155C202.602 108.4 202.449 107.437 202.382 106.505C202.067 102.133 203.015 100.676 202.088 99.9318C200.668 98.7921 198.244 100.934 197.22 99.9318C196.158 98.8907 197.098 94.9415 199.5 93.6648H199.501Z" fill="#090F05"/>
<path d="M207.405 97.3748L206.758 98.5097C206.758 98.5097 207.543 102.65 207.53 104.152C207.517 105.653 202.87 105.963 202.87 105.963L202.35 104.661L201.34 104.506C201.137 104.475 201.003 104.278 201.053 104.078C201.244 103.296 201.635 101.37 201.467 99.2863C201.401 98.4568 201.902 97.691 202.674 97.3844C203.768 96.9492 205.443 96.6198 207.404 97.376L207.405 97.3748Z" fill="white"/>
<path d="M202.87 106.229C202.761 106.229 202.663 106.163 202.623 106.062L202.16 104.9L201.3 104.768C201.129 104.742 200.977 104.644 200.881 104.501C200.786 104.358 200.755 104.181 200.794 104.014C200.972 103.285 201.368 101.366 201.203 99.3066C201.127 98.3653 201.679 97.4937 202.576 97.1367C203.687 96.6943 205.444 96.3336 207.5 97.1271C207.572 97.1547 207.629 97.2124 207.655 97.2858C207.681 97.3591 207.674 97.4396 207.636 97.507L207.037 98.5565C207.158 99.2032 207.808 102.755 207.796 104.154C207.781 105.818 203.704 106.174 202.888 106.229C202.882 106.229 202.876 106.229 202.87 106.229ZM205.044 97.1908C204.133 97.1908 203.357 97.3988 202.773 97.6308C202.094 97.9013 201.676 98.5577 201.732 99.2646C201.904 101.402 201.494 103.387 201.311 104.141C201.304 104.169 201.313 104.192 201.322 104.207C201.329 104.219 201.347 104.238 201.38 104.244L202.39 104.399C202.483 104.414 202.562 104.476 202.597 104.563L203.045 105.684C204.856 105.536 207.259 104.985 207.266 104.149C207.279 102.691 206.507 98.5997 206.499 98.5589C206.487 98.4964 206.499 98.4326 206.529 98.3773L207.019 97.5178C206.312 97.2822 205.648 97.1908 205.044 97.1908Z" fill="#090F05"/>
<path d="M208.205 101.053C208.205 101.053 208.431 98.1885 209.563 98.5155C210.696 98.8425 210.377 101.992 208.205 101.053Z" fill="white"/>
<path d="M61.9153 212.283C61.9153 212.283 60.2629 219.838 62.0906 221.996L62.6575 222.92L60.8897 223.675C58.6453 224.635 56.043 224.207 54.2296 222.58L53.9858 222.361L54.4146 221.407C55.1783 219.708 56.4921 214.437 56.366 212.642L61.9153 212.282V212.283Z" fill="white"/>
<path d="M58.4255 224.446C56.8379 224.446 55.2696 223.873 54.0519 222.78L53.8081 222.561C53.7216 222.484 53.6952 222.359 53.7432 222.254L54.1732 221.3C54.9165 219.647 56.2231 214.393 56.1018 212.663C56.097 212.592 56.1198 212.523 56.1666 212.47C56.2135 212.417 56.2795 212.384 56.3492 212.38L61.8985 212.02C61.9813 212.015 62.063 212.049 62.117 212.112C62.1711 212.175 62.1927 212.261 62.1747 212.341C62.1579 212.416 60.5715 219.791 62.2924 221.825C62.3008 221.836 62.3092 221.847 62.3164 221.858L62.8832 222.783C62.924 222.85 62.9336 222.929 62.9096 223.003C62.8856 223.077 62.8316 223.137 62.7607 223.167L60.9942 223.922C60.1692 224.274 59.2949 224.446 58.4267 224.446H58.4255ZM54.3064 222.294L54.4061 222.383C56.1366 223.936 58.6405 224.347 60.784 223.431L62.2683 222.797L61.872 222.151C60.2088 220.147 61.2788 214.101 61.5826 212.571L56.6374 212.891C56.6398 214.925 55.4017 219.856 54.6547 221.516L54.3052 222.294H54.3064Z" fill="#090F05"/>
<path d="M62.5577 219.409L63.5532 220.293C65.5371 222.057 67.916 223.307 70.4847 223.936L70.9747 224.056C71.1608 224.102 71.3134 224.238 71.3806 224.419L71.4154 224.512C71.7973 225.539 70.8834 228.098 67.1619 229.393C66.1952 229.729 63.6109 229.478 59.7692 229.475C58.1036 229.475 56.3863 229.47 55.3908 229.467C54.4133 229.465 53.4453 229.202 52.6359 228.649C51.7305 228.032 50.9103 226.996 51.2525 225.322C51.5876 223.681 52.9061 220.469 53.6195 219.26C53.7576 219.026 54.0578 218.973 54.2751 219.135L55.0149 220.95C55.5157 222.179 56.7694 222.968 58.07 222.768C58.1516 222.756 58.2345 222.739 58.3173 222.721C59.152 222.53 59.8713 221.997 60.3745 221.299L61.6666 219.507C61.8768 219.216 62.2899 219.171 62.5577 219.409Z" fill="white"/>
<path d="M65.2489 229.834C64.6737 229.834 64 229.817 63.2242 229.797C62.2143 229.772 61.0686 229.742 59.7693 229.742C58.1036 229.742 56.3852 229.737 55.3896 229.734C54.3148 229.732 53.3109 229.433 52.4859 228.87C51.2057 227.997 50.6893 226.753 50.9908 225.271C51.3246 223.634 52.6252 220.422 53.3901 219.126C53.4934 218.951 53.6603 218.832 53.8573 218.791C54.0566 218.751 54.2656 218.798 54.4325 218.922C54.4709 218.951 54.5022 218.99 54.5202 219.035L55.2599 220.85C55.7223 221.985 56.8859 222.681 58.0292 222.506C58.1048 222.494 58.1805 222.479 58.2573 222.462C58.9911 222.294 59.6672 221.825 60.1595 221.144L61.4529 219.352C61.597 219.153 61.8192 219.023 62.0642 218.995C62.3079 218.969 62.5517 219.047 62.7355 219.209L63.731 220.094C65.6752 221.823 68.0326 223.061 70.5496 223.678L71.0396 223.798C71.3122 223.864 71.5332 224.062 71.6316 224.327L71.6665 224.419C71.855 224.924 71.7697 225.624 71.4347 226.338C71.0456 227.165 69.9852 228.693 67.252 229.644C66.8317 229.791 66.1676 229.834 65.2525 229.834H65.2489ZM53.999 219.309C53.987 219.309 53.975 219.309 53.963 219.313C53.9293 219.32 53.8813 219.34 53.8477 219.397C53.1187 220.633 51.8302 223.815 51.512 225.378C51.2526 226.651 51.6801 227.677 52.7849 228.431C53.5222 228.934 54.4229 229.201 55.3908 229.203C56.3864 229.205 58.1036 229.209 59.7693 229.21C61.0758 229.21 62.2239 229.24 63.2374 229.267C65.1204 229.315 66.481 229.35 67.0743 229.143C69.625 228.256 70.5977 226.864 70.9507 226.112C71.2702 225.433 71.2714 224.888 71.1657 224.606L71.1309 224.513C71.0936 224.415 71.012 224.34 70.9099 224.315L70.4199 224.195C67.8188 223.559 65.3834 222.278 63.3743 220.493L62.3788 219.608C62.3067 219.543 62.2143 219.515 62.1182 219.524C62.0221 219.535 61.9369 219.584 61.8804 219.664L60.5871 221.455C60.019 222.241 59.2337 222.783 58.3738 222.98C58.2838 223.001 58.1949 223.018 58.1072 223.031C56.7046 223.247 55.3296 222.432 54.7652 221.051L54.0602 219.32C54.0398 219.313 54.0182 219.308 53.9966 219.308L53.999 219.309Z" fill="#090F05"/>
<path d="M57.251 227.955C54.1215 227.955 52.5771 226.3 52.5099 226.226C52.4114 226.118 52.4186 225.95 52.5267 225.851C52.6348 225.753 52.8029 225.76 52.9014 225.868C52.9242 225.892 54.4949 227.55 57.6172 227.415C59.9602 227.314 63.4223 227.357 65.2765 227.39C66.3825 227.409 67.4093 227.115 68.2667 226.535C68.5501 226.343 68.7651 226.153 68.9044 225.969C68.9933 225.853 69.159 225.829 69.2767 225.917C69.3932 226.006 69.416 226.172 69.3283 226.29C69.1542 226.521 68.8972 226.752 68.5645 226.975C67.6158 227.616 66.475 227.944 65.2669 227.922C63.4187 227.888 59.9698 227.847 57.6401 227.947C57.508 227.953 57.3783 227.955 57.251 227.955Z" fill="#090F05"/>
<path d="M37.2105 211.844C37.2105 211.844 34.9373 216.462 35.6458 219.084L35.7743 220.126L28.3972 215.52L29.2114 214.993C30.8254 213.924 32.4154 212.197 32.9498 210.545L37.2105 211.846V211.844Z" fill="white"/>
<path d="M35.7743 220.392C35.7251 220.392 35.677 220.379 35.6338 220.351L28.2567 215.743C28.1799 215.695 28.133 215.611 28.1318 215.52C28.1318 215.428 28.1775 215.344 28.2531 215.295L29.0673 214.768C30.7954 213.624 32.2209 211.932 32.6976 210.461C32.742 210.323 32.8898 210.247 33.0279 210.289L37.2886 211.59C37.3631 211.613 37.4243 211.667 37.4543 211.739C37.4856 211.81 37.4832 211.891 37.4483 211.961C37.4255 212.007 35.2279 216.52 35.9016 219.014C35.9052 219.026 35.9076 219.038 35.9088 219.05L36.0373 220.093C36.0505 220.195 36.0037 220.295 35.9172 220.35C35.874 220.378 35.8235 220.392 35.7743 220.392ZM28.8932 215.515L35.4428 219.606L35.3852 219.136C34.7667 216.796 36.3543 213.067 36.8407 212.009L33.1167 210.872C32.5367 212.389 31.0896 214.067 29.3591 215.213L28.8932 215.514V215.515Z" fill="#090F05"/>
<path d="M36.4828 217.553L36.6173 218.826C36.8827 221.348 37.7522 223.767 39.1488 225.874L40.2224 227.493C40.3245 227.647 40.3449 227.843 40.2764 228.015L40.2416 228.103C39.8525 229.075 37.5696 230.281 34.1183 228.76C31.9831 227.82 29.8287 224.94 23.6826 219.139C23.3643 218.84 23.4664 218.292 23.7426 217.953C24.7489 216.717 27.2684 213.853 29.5189 213.161C29.7699 213.084 30.0317 213.235 30.0821 213.495L30.566 215.99C30.7834 217.109 31.8594 217.836 32.9666 217.613L35.7947 217.04C36.1298 216.973 36.4492 217.21 36.4852 217.553H36.4828Z" fill="white"/>
<path d="M37.2154 229.749C36.3616 229.749 35.288 229.567 34.0102 229.003C32.6112 228.387 31.271 227.033 28.8368 224.574C27.4606 223.185 25.7481 221.455 23.4988 219.333C23.0653 218.924 23.177 218.224 23.5349 217.786C24.5352 216.557 27.1135 213.623 29.4384 212.907C29.6318 212.848 29.8407 212.874 30.0137 212.976C30.183 213.078 30.3019 213.249 30.3403 213.443L30.8243 215.938C30.9167 216.413 31.1869 216.82 31.5856 217.087C31.9783 217.351 32.4503 217.444 32.9126 217.35L35.7407 216.778C35.9725 216.731 36.215 216.785 36.406 216.925C36.5981 217.067 36.723 217.284 36.7482 217.524L36.8827 218.797C37.1433 221.266 38.0032 223.662 39.3722 225.726L40.4458 227.345C40.5959 227.573 40.6259 227.86 40.525 228.112L40.4902 228.199C40.2969 228.681 39.7877 229.121 39.09 229.406C38.6901 229.57 38.0608 229.747 37.219 229.747L37.2154 229.749ZM29.6486 213.407C29.6306 213.407 29.6114 213.41 29.5933 213.416C27.4077 214.088 24.9147 216.931 23.9456 218.121C23.745 218.368 23.6634 218.758 23.8627 218.946C26.118 221.075 27.834 222.807 29.2139 224.201C31.6024 226.612 32.9174 227.942 34.224 228.516C36.5849 229.556 38.1581 229.212 38.8858 228.916C39.5403 228.647 39.8874 228.269 39.993 228.003L40.0279 227.915C40.0639 227.824 40.0543 227.721 40.0002 227.639L38.9267 226.019C37.512 223.886 36.6209 221.407 36.3519 218.852L36.2174 217.579C36.2078 217.488 36.1622 217.407 36.089 217.353C36.0169 217.3 35.9304 217.281 35.844 217.299L33.0159 217.871C32.413 217.994 31.8006 217.871 31.289 217.528C30.7714 217.182 30.422 216.653 30.3019 216.038L29.8179 213.543C29.8047 213.478 29.7627 213.443 29.7387 213.43C29.711 213.413 29.6798 213.405 29.6486 213.405V213.407Z" fill="#090F05"/>
<path d="M37.8482 227.668C37.835 227.668 37.8218 227.668 37.8086 227.665L37.2298 227.58C35.2987 227.295 33.4758 226.37 32.0972 224.977L25.6784 218.494C25.5751 218.389 25.5763 218.221 25.6796 218.117C25.7841 218.014 25.9522 218.015 26.0555 218.119L32.4742 224.602C33.7736 225.914 35.4897 226.784 37.3078 227.053L37.8867 227.139C38.032 227.16 38.1316 227.295 38.11 227.44C38.0908 227.573 37.9767 227.668 37.8482 227.668Z" fill="#090F05"/>
<path d="M66.1856 136.132C71.2353 137.535 74.3624 138.392 74.3624 138.392C74.3624 138.392 64.3038 174.523 61.3916 183.575C58.7521 191.781 41.4521 209.655 38.3838 213.274C38.0668 213.648 37.1673 214.025 37.1673 214.025C35.4032 214.452 33.5586 213.756 32.503 212.265C32.503 212.265 31.947 211.014 32.0779 210.377L33.0386 205.683C36.6857 190.791 43.6605 183.419 46.6159 167.872C51.076 144.407 54.4109 139.108 55.1566 137.326C57.4647 131.804 66.1868 136.135 66.1868 136.135L66.1856 136.132Z" fill="#090F05"/>
<path d="M82.932 136.801C83.8254 145.272 83.297 159.892 82.4756 166.496C80.2156 184.674 65.2033 210.249 62.4364 215.443C62.0822 216.108 61.4289 216.56 60.6855 216.644C58.5575 216.887 57.7686 216.356 56.6806 215.799C55.8988 215.398 55.4436 214.577 55.4244 213.692C55.051 195.884 58.841 180.633 62.7715 170.92C64.2882 167.173 65.9466 145.855 65.7413 138.172L82.9308 136.801H82.932Z" fill="#090F05"/>
<path d="M55.8556 195.888C55.84 195.888 55.8231 195.887 55.8063 195.883C55.6622 195.857 55.5673 195.717 55.5938 195.573C57.3699 185.99 58.8626 180.05 60.5823 175.709C62.984 169.648 64.2474 163.338 64.335 156.955L64.3783 153.786C64.3807 153.64 64.5116 153.525 64.6473 153.524C64.7938 153.527 64.9115 153.647 64.9091 153.793L64.8658 156.962C64.777 163.41 63.5016 169.784 61.0758 175.905C59.3694 180.213 57.8851 186.123 56.1162 195.669C56.0921 195.797 55.9805 195.887 55.8556 195.887V195.888Z" fill="white"/>
<path d="M100.746 100.425C101.152 99.6302 101.348 99.1313 101.413 98.9041C101.413 98.9041 101.564 98.6276 101.522 98.2585C101.391 97.1165 100.917 94.3154 101.712 93.2358C103.042 91.4289 104.86 92.4496 104.86 92.4496C104.86 92.4496 105.694 90.7653 106.763 91.4001C107.583 91.887 108.381 92.9533 108.241 94.6099C108.05 96.8688 107.667 99.0267 105.271 100.317C104.806 100.567 104.436 100.966 104.231 101.455L100.746 100.425Z" fill="white"/>
<path d="M104.23 101.721C104.205 101.721 104.179 101.717 104.154 101.71L100.669 100.68C100.594 100.657 100.531 100.603 100.5 100.529C100.469 100.457 100.471 100.374 100.507 100.303C100.888 99.5569 101.091 99.0532 101.154 98.8308C101.16 98.8115 101.168 98.7923 101.177 98.7755C101.177 98.7755 101.286 98.5615 101.255 98.2874C101.241 98.1612 101.222 98.0145 101.201 97.8534C101.023 96.4577 100.726 94.1218 101.494 93.0771C102.649 91.5083 104.163 91.8833 104.744 92.1082C104.943 91.7848 105.368 91.2077 105.939 91.0394C106.264 90.9432 106.585 90.9877 106.893 91.1704C107.319 91.4229 108.689 92.4171 108.501 94.6315C108.31 96.882 107.913 99.1926 105.394 100.55C104.978 100.774 104.651 101.132 104.472 101.557C104.43 101.658 104.332 101.721 104.227 101.721H104.23ZM101.126 100.26L104.088 101.135C104.326 100.693 104.693 100.324 105.144 100.081C107.433 98.8476 107.788 96.7774 107.974 94.5859C108.135 92.6792 106.982 91.8389 106.624 91.6273C106.445 91.5215 106.271 91.495 106.091 91.5491C105.618 91.6886 105.212 92.3306 105.096 92.5662C105.063 92.6311 105.006 92.6804 104.936 92.702C104.866 92.7237 104.791 92.7153 104.728 92.6804C104.662 92.6443 103.094 91.8016 101.923 93.3933C101.28 94.2673 101.572 96.5562 101.728 97.7873C101.749 97.952 101.768 98.101 101.784 98.2285C101.827 98.6096 101.706 98.9065 101.659 99.0027C101.612 99.159 101.48 99.5413 101.124 100.261L101.126 100.26Z" fill="#090F05"/>
<path d="M98.594 103.418L95.4573 99.5411L97.4027 98.1105C97.5096 98.0312 97.6345 97.9795 97.7654 97.9579L98.0032 97.9194C98.3022 97.8713 98.5532 97.6633 98.6564 97.3808C98.7129 97.2269 98.8138 97.0923 98.9471 96.9949L113.395 86.3495C113.514 86.2618 113.645 86.1897 113.782 86.1368L118.006 84.491L115.605 88.13C115.474 88.3283 115.318 88.5087 115.14 88.6674L101.776 100.585C101.662 100.687 101.523 100.755 101.373 100.783L101.336 100.79C101.049 100.844 100.808 101.046 100.705 101.319L100.654 101.457C100.607 101.584 100.529 101.697 100.427 101.788L98.5952 103.421L98.594 103.418Z" fill="white"/>
<path d="M98.5941 103.685C98.5869 103.685 98.5796 103.685 98.5724 103.685C98.5004 103.679 98.4331 103.644 98.3875 103.588L95.2508 99.7107C95.2052 99.6542 95.1847 99.582 95.1943 99.5099C95.2039 99.4378 95.2424 99.3729 95.3 99.3296L97.2443 97.899C97.3848 97.7956 97.5505 97.7259 97.721 97.6982L97.9588 97.6597C98.1629 97.6261 98.3347 97.4854 98.4055 97.2919C98.48 97.0887 98.6121 96.9132 98.7874 96.7833L113.235 86.138C113.373 86.0358 113.524 85.9529 113.683 85.8915L117.908 84.2458C118.016 84.2037 118.139 84.2361 118.211 84.3263C118.283 84.4165 118.289 84.5427 118.225 84.6401L115.823 88.2791C115.68 88.4955 115.509 88.6938 115.314 88.8682L101.951 100.785C101.8 100.919 101.617 101.01 101.42 101.048L101.383 101.055C101.187 101.092 101.021 101.23 100.951 101.417L100.9 101.555C100.837 101.721 100.734 101.871 100.601 101.99L98.7706 103.623C98.7214 103.666 98.6589 103.69 98.5941 103.69V103.685ZM95.8392 99.5917L98.6253 103.036L100.248 101.588C100.316 101.527 100.37 101.449 100.403 101.364L100.454 101.225C100.589 100.867 100.907 100.6 101.284 100.528L101.321 100.521C101.423 100.502 101.519 100.455 101.597 100.385L114.961 88.4678C115.122 88.3248 115.262 88.1613 115.38 87.9821L117.322 85.0404L113.875 86.3832C113.76 86.4289 113.65 86.489 113.55 86.5624L99.102 97.2077C99.0108 97.275 98.9423 97.3664 98.9039 97.471C98.767 97.8449 98.4379 98.1166 98.0441 98.1815L97.8063 98.22C97.7174 98.2344 97.631 98.2704 97.5577 98.3245L95.8368 99.5905L95.8392 99.5917Z" fill="#090F05"/>
<path d="M114.424 87.5098C114.35 87.5098 114.275 87.4785 114.222 87.4172L113.385 86.4435C113.289 86.3317 113.303 86.1646 113.413 86.0684C113.525 85.9722 113.692 85.9854 113.788 86.096L114.625 87.0698C114.721 87.1816 114.708 87.3487 114.597 87.4449C114.547 87.4882 114.485 87.5098 114.424 87.5098Z" fill="#090F05"/>
<path d="M92.2161 102.069L95.515 99.4763L98.6217 103.412L95.3228 106.005C94.7188 106.48 93.8505 106.388 93.3858 105.797L91.9652 103.998C91.4992 103.407 91.6121 102.544 92.2161 102.069Z" fill="#090F05"/>
<path d="M94.4522 106.574C93.9695 106.574 93.4951 106.365 93.1781 105.962L91.7574 104.162C91.492 103.826 91.3731 103.404 91.4248 102.975C91.4776 102.533 91.6998 102.138 92.0528 101.86L95.3517 99.2671C95.467 99.177 95.6327 99.1962 95.724 99.3116L98.8307 103.248C98.8739 103.303 98.8943 103.374 98.8859 103.444C98.8775 103.513 98.8415 103.577 98.7862 103.621L95.4874 106.215C95.1799 106.456 94.8137 106.574 94.4522 106.574ZM92.3795 102.279C92.1381 102.469 91.9856 102.738 91.9508 103.037C91.9171 103.326 91.9952 103.608 92.1729 103.833L93.5936 105.633C93.9683 106.108 94.6696 106.18 95.1583 105.796L98.247 103.368L95.4694 99.849L92.3795 102.279Z" fill="#090F05"/>
<path d="M94.4582 104.836C94.3778 104.836 94.2985 104.8 94.2457 104.73C94.1568 104.613 94.1808 104.446 94.2973 104.357L96.1287 102.972C96.2464 102.883 96.4121 102.907 96.5009 103.024C96.5898 103.141 96.5658 103.308 96.4493 103.397L94.618 104.782C94.5699 104.818 94.5135 104.836 94.4582 104.836Z" fill="white"/>
<path d="M101.411 98.9038C101.411 98.9038 101.87 96.4538 103.478 94.8813C104.464 93.9172 105.381 89.736 107.258 91.7424C107.663 92.1752 107.944 92.4409 108.167 93.1382C108.29 93.5192 108.454 94.469 108.415 94.9342C108.223 97.1955 107.662 99.0289 105.261 100.319C104.799 100.568 104.433 100.966 104.229 101.454C104.098 101.766 101.318 121.01 97.3198 123.355C92.7745 126.022 84.8618 115.874 84.8618 115.874L91.7345 108.637C91.7345 108.637 94.9036 112.59 95.3588 112.779C95.707 112.925 101.411 98.9038 101.411 98.9038Z" fill="white"/>
<path d="M95.6206 124.068C90.9768 124.068 84.9435 116.409 84.6541 116.037C84.5737 115.934 84.5809 115.786 84.6709 115.691L91.5436 108.454C91.5965 108.399 91.6673 108.366 91.7466 108.371C91.8234 108.375 91.8943 108.411 91.9423 108.47C93.2777 110.136 94.792 111.926 95.318 112.415C96.047 111.173 99.2089 103.609 101.156 98.8258C101.214 98.5337 101.716 96.2303 103.293 94.6891C103.551 94.4378 103.826 93.8932 104.118 93.3186C104.677 92.215 105.255 91.0729 106.137 90.9479C106.573 90.8866 107.016 91.0909 107.454 91.5598L107.535 91.6451C107.905 92.0383 108.196 92.3484 108.423 93.0553C108.557 93.4725 108.725 94.4534 108.683 94.9548C108.479 97.3615 107.841 99.2345 105.39 100.552C104.979 100.772 104.655 101.129 104.477 101.555C104.466 101.598 104.397 102.002 104.316 102.471C102.15 115.082 99.8418 122.184 97.4568 123.582C96.8852 123.918 96.2667 124.066 95.6218 124.066L95.6206 124.068ZM85.2161 115.89C86.2969 117.22 93.2177 125.455 97.1878 123.127C98.7297 122.223 101.128 117.889 103.793 102.383C103.943 101.509 103.961 101.413 103.987 101.352C104.213 100.813 104.621 100.363 105.139 100.086C107.387 98.8775 107.959 97.2113 108.153 94.9127C108.188 94.4943 108.035 93.5891 107.918 93.22C107.727 92.6273 107.497 92.3821 107.148 92.0106L107.068 91.924C106.755 91.5898 106.468 91.4396 106.212 91.4756C105.605 91.5622 105.044 92.6706 104.592 93.5602C104.28 94.1757 103.986 94.7576 103.665 95.0714C102.138 96.5645 101.678 98.9292 101.673 98.952C101.67 98.9701 101.665 98.9869 101.658 99.0037C101.643 99.0374 100.249 102.464 98.815 105.871C95.8728 112.859 95.6435 112.954 95.4765 113.024C95.4117 113.051 95.3228 113.052 95.2568 113.024C94.8184 112.841 92.7673 110.34 91.7189 109.04L85.2149 115.888L85.2161 115.89Z" fill="#090F05"/>
<path d="M41.8893 143.807C41.7596 144.175 42.085 144.897 42.0394 145.198C41.8713 146.294 40.2429 147.833 39.0444 148.834C38.0921 149.63 37.53 150.813 37.5264 152.062C37.5264 152.357 37.5397 152.677 37.5577 153.022C37.5973 153.813 37.3439 154.232 37.0029 154.445C36.3316 154.863 35.4573 154.375 35.372 153.583C35.1859 151.851 34.8785 148.262 35.3636 146.996C35.6819 146.164 36.7086 145.075 37.6705 144.183C38.6156 143.307 39.1392 142.062 39.1332 140.765C39.114 136.282 41.5987 123.192 44.5156 114.003L51.8086 118.06C51.8086 118.06 46.6796 130.2 41.8905 143.807H41.8893Z" fill="white"/>
<path d="M36.4696 154.862C36.2739 154.862 36.0757 154.818 35.8908 154.726C35.4525 154.512 35.1595 154.095 35.1078 153.611C34.8977 151.66 34.6203 148.192 35.115 146.9C35.3948 146.169 36.1934 145.189 37.4892 143.987C38.3706 143.17 38.8726 141.996 38.8666 140.765C38.8474 136.363 41.2504 123.407 44.261 113.922C44.285 113.846 44.3415 113.785 44.4159 113.755C44.4904 113.726 44.5732 113.731 44.6429 113.769L51.9359 117.825C52.0548 117.891 52.104 118.036 52.0512 118.161C51.9995 118.282 46.8705 130.449 42.139 143.892C42.0898 144.03 42.1642 144.35 42.2183 144.585C42.2771 144.838 42.3276 145.057 42.3 145.236C42.1222 146.394 40.5226 147.941 39.2125 149.036C38.3118 149.789 37.793 150.891 37.7894 152.061C37.7894 152.353 37.8038 152.675 37.8206 153.007C37.8615 153.804 37.6321 154.363 37.1409 154.67C36.9356 154.797 36.7038 154.862 36.4696 154.862ZM44.6693 114.393C41.7187 123.805 39.3794 136.447 39.3974 140.764C39.4034 142.143 38.839 143.459 37.8495 144.378C36.6306 145.508 35.856 146.446 35.6098 147.091C35.2772 147.959 35.2868 150.314 35.635 153.554C35.6674 153.856 35.85 154.116 36.1238 154.249C36.37 154.369 36.6378 154.358 36.8623 154.219C37.177 154.023 37.3223 153.624 37.2922 153.035C37.2754 152.696 37.2598 152.366 37.261 152.061C37.2646 150.734 37.8531 149.484 38.875 148.63C40.6271 147.166 41.6587 145.932 41.7776 145.157C41.7896 145.08 41.7415 144.873 41.7031 144.707C41.6263 144.378 41.5398 144.003 41.6407 143.719C46.0275 131.255 50.7566 119.886 51.4723 118.177L44.6717 114.394L44.6693 114.393Z" fill="#090F05"/>
<path d="M57.6473 95.8782C65.3414 93.4029 78.5067 94.6508 82.5009 97.6058C87.6887 101.446 92.5895 107.656 94.511 110.226C95.0453 110.942 95.1282 111.899 94.7259 112.698C92.999 116.131 89.161 124.614 86.9802 123.015C84.809 121.423 82.0505 118.424 82.2067 119.995C82.6198 124.162 83.3295 138.081 83.3295 138.081C83.3295 138.081 81.0454 138.87 80.9469 140.74L80.7128 145.809C80.6563 146.399 80.0294 146.745 79.5071 146.473C75.31 144.288 58.6921 142.194 52.4943 138.797C51.7521 138.391 51.3498 137.554 51.4939 136.713C52.2205 132.484 56.4236 123.548 54.7231 118.17C54.5478 117.616 53.2232 119.911 51.6212 121.278C51.3642 121.498 50.9908 121.51 50.7266 121.3L43.3939 115.447C42.7443 114.929 42.5101 114.042 42.8199 113.267C44.3426 109.453 49.3419 98.5483 57.6461 95.877L57.6473 95.8782Z" fill="white"/>
<path d="M79.8866 146.833C79.7148 146.833 79.5419 146.792 79.3846 146.71C77.5664 145.763 73.2204 144.8 68.6198 143.779C62.6418 142.453 55.8664 140.95 52.367 139.033C51.5252 138.571 51.0688 137.623 51.2334 136.671C51.4507 135.405 51.9611 133.769 52.5531 131.873C53.9053 127.539 55.5818 122.166 54.5334 118.46C54.3509 118.639 54.0639 118.99 53.8033 119.309C53.2497 119.986 52.5616 120.828 51.7942 121.482C51.4399 121.785 50.9223 121.796 50.5621 121.509L43.2294 115.656C42.4933 115.07 42.2243 114.047 42.575 113.17C44.3271 108.782 49.2939 98.2873 57.5668 95.6257C65.5684 93.0518 78.6989 94.4619 82.6594 97.3929C87.8905 101.264 92.8393 107.547 94.7247 110.069C95.3228 110.869 95.4152 111.922 94.9637 112.818C94.7896 113.166 94.5926 113.565 94.3789 114C92.1572 118.516 89.8275 122.966 87.9037 123.438C87.5086 123.536 87.1459 123.466 86.8253 123.23C86.1564 122.74 85.4479 122.131 84.7634 121.542C83.9396 120.834 82.8251 119.876 82.4709 119.821C82.4673 119.85 82.4661 119.897 82.4733 119.969C82.8828 124.095 83.5889 137.928 83.5961 138.068C83.6021 138.185 83.5289 138.294 83.4184 138.332C83.3968 138.339 81.3024 139.087 81.2135 140.755L80.9806 145.821C80.9445 146.202 80.7308 146.525 80.4089 146.701C80.2468 146.788 80.0691 146.833 79.8902 146.833H79.8866ZM54.6247 117.819C54.6499 117.819 54.6739 117.822 54.6991 117.826C54.7616 117.838 54.9129 117.888 54.9765 118.091C56.2002 121.961 54.4578 127.544 53.0587 132.03C52.4727 133.907 51.9671 135.529 51.7558 136.76C51.6309 137.487 51.9791 138.213 52.6216 138.565C56.0549 140.447 62.7907 141.941 68.7339 143.26C73.5711 144.332 77.7478 145.259 79.6284 146.239C79.7953 146.325 79.9862 146.324 80.1508 146.234C80.3201 146.142 80.4282 145.978 80.4462 145.783L80.6791 140.728C80.7704 139.01 82.4721 138.148 83.0521 137.903C82.9656 136.214 82.3232 123.869 81.9401 120.022C81.9065 119.677 81.9917 119.447 82.1971 119.341C82.6834 119.088 83.4856 119.746 85.1056 121.138C85.7829 121.72 86.483 122.323 87.1351 122.801C87.3285 122.943 87.5314 122.981 87.774 122.921C89.6186 122.468 92.4034 116.807 93.8997 113.764C94.1147 113.328 94.3116 112.926 94.487 112.578C94.846 111.864 94.7728 111.023 94.296 110.385C92.425 107.882 87.5146 101.647 82.34 97.8184C78.556 95.0185 65.4483 93.6456 57.7254 96.1306C49.4416 98.7958 44.4087 109.997 43.0637 113.366C42.7995 114.028 43.0025 114.798 43.5561 115.241L50.8887 121.093C51.052 121.224 51.2814 121.217 51.4447 121.077C52.1749 120.453 52.8474 119.632 53.3878 118.971C54.0747 118.131 54.3437 117.819 54.6199 117.819H54.6247Z" fill="#090F05"/>
<path d="M80.164 80.966C80.8161 81.1896 81.1187 82.5457 81.222 83.2346C81.5618 85.5007 80.391 90.8167 78.7638 91.1642C77.1618 91.5068 77.2975 90.7759 76.0762 91.4611C75.101 92.0081 74.9738 93.0095 74.5306 95.1711C74.503 95.3081 77.3059 96.1064 77.3551 96.2386C77.4668 96.5367 75.7339 100.205 70.3383 99.5182C65.2261 98.8678 64.5152 95.3694 64.496 95.1242C64.484 94.9775 68.3545 94.7058 68.4229 94.5652C69.3188 92.7114 69.9829 89.4847 69.9829 89.4847C69.9829 89.4847 73.3033 78.6133 80.1628 80.9672L80.164 80.966Z" fill="white"/>
<path d="M71.6281 99.8668C71.215 99.8668 70.7743 99.8392 70.3071 99.7803C64.7902 99.0782 64.2366 95.1819 64.233 95.1434C64.2066 94.8104 64.3351 94.796 66.4763 94.5688C67.1116 94.5015 67.9594 94.4113 68.2296 94.3536C69.0786 92.5359 69.7175 89.4619 69.7235 89.4307C69.8088 89.1469 71.7158 83.0302 75.6811 81.0033C77.1234 80.2664 78.6593 80.1702 80.2505 80.7148C81.0419 80.9865 81.3637 82.3859 81.485 83.1949C81.826 85.4671 80.6624 91.0296 78.8202 91.4239C78.0408 91.591 77.6397 91.5189 77.3191 91.4612C76.9889 91.4022 76.7895 91.3662 76.2071 91.6932C75.4157 92.1368 75.2512 92.9519 74.8909 94.7347L74.8285 95.0437C75.0939 95.1555 75.6991 95.355 76.123 95.4957C77.4908 95.9489 77.5425 95.9814 77.6037 96.1449C77.7118 96.4334 77.3575 97.0766 76.9817 97.5538C76.3956 98.2968 74.7804 99.8692 71.6269 99.8692L71.6281 99.8668ZM64.8071 95.3033C65.0088 96.0595 66.0212 98.6983 70.3732 99.2525C73.1712 99.6084 74.8837 98.7524 75.8288 97.9722C76.6034 97.3314 76.9673 96.6618 77.0669 96.3817C76.8316 96.2879 76.338 96.1244 75.9573 95.9982C74.3745 95.474 74.21 95.4199 74.2725 95.1158L74.3721 94.6277C74.754 92.7391 74.945 91.7918 75.9489 91.2279C76.6971 90.8084 77.0297 90.8673 77.414 90.937C77.7034 90.9887 78.0324 91.0488 78.7109 90.9033C80.0343 90.6208 81.3193 85.6594 80.9614 83.2731C80.7957 82.1671 80.4414 81.3412 80.08 81.2173C78.6317 80.7208 77.2339 80.8074 75.9261 81.4758C72.1613 83.3981 70.2591 89.5004 70.2399 89.5617C70.2183 89.6711 69.565 92.8184 68.6655 94.6794C68.579 94.8585 68.5682 94.8814 66.5351 95.0978C65.9407 95.1615 65.1673 95.2432 64.8095 95.3045L64.8071 95.3033Z" fill="#090F05"/>
<path d="M77.068 85.8687C77.056 85.8687 77.044 85.8687 77.032 85.8662C75.9764 85.7208 75.2727 84.2974 75.2031 83.0063C75.1454 81.9423 75.5201 81.2042 76.2058 81.0311C77.3575 80.7425 78.2737 82.4665 78.3122 82.5398C78.3806 82.6696 78.3302 82.8307 78.2005 82.8981C78.0708 82.9666 77.9099 82.9161 77.8426 82.7862C77.6337 82.3883 76.9564 81.3893 76.3355 81.5456C75.8419 81.6694 75.7014 82.3655 75.7339 82.9762C75.7915 84.0341 76.3559 85.2351 77.1053 85.3385C77.2506 85.3589 77.3527 85.4924 77.3322 85.6378C77.3142 85.7713 77.2001 85.8675 77.0692 85.8675L77.068 85.8687Z" fill="#090F05"/>
<path d="M82.6606 78.7854C82.95 80.3747 81.3565 80.7378 80.0919 81.7296C78.7854 82.7526 78.8346 82.719 78.2486 83.0219C77.8583 83.2239 77.707 81.7055 76.6466 81.4939C75.8552 81.3365 75.657 82.0061 75.4853 82.1984C74.7936 82.975 81.8692 98.5373 78.275 108.049C75.9825 114.116 70.0969 116.809 57.0133 115.601C46.0636 114.59 43.1658 103.486 45.1052 99.4113C50.1394 88.8393 60.6579 98.5445 63.1342 82.7827C64.8707 71.7322 75.1875 66.8104 81.4946 75.78C82.131 76.6864 82.4781 77.7768 82.6618 78.7866L82.6606 78.7854Z" fill="#090F05"/>
</g>
<defs>
<clipPath id="clip0_177_14107">
<rect width="219" height="220" fill="white" transform="translate(11 10.5)"/>
</clipPath>
</defs>
</svg>
