<svg width="241" height="241" viewBox="0 0 241 241" fill="none" xmlns="http://www.w3.org/2000/svg">
<rect width="241" height="241" fill="white"/>
<g clip-path="url(#clip0_177_14792)">
<path d="M200.375 81.5037H149.881C148.127 81.5037 146.692 80.0658 146.692 78.3094C146.692 76.553 148.127 75.1152 149.881 75.1152H200.375C202.128 75.1152 203.564 76.553 203.564 78.3094C203.564 80.0658 202.128 81.5037 200.375 81.5037Z" fill="white"/>
<path d="M200.375 81.7694H149.881C147.976 81.7694 146.426 80.2174 146.426 78.3095C146.426 76.4016 147.976 74.8496 149.881 74.8496H200.375C202.28 74.8496 203.829 76.4016 203.829 78.3095C203.829 80.2174 202.28 81.7694 200.375 81.7694ZM149.881 75.3822C148.269 75.3822 146.958 76.695 146.958 78.3095C146.958 79.924 148.269 81.2368 149.881 81.2368H200.375C201.987 81.2368 203.298 79.924 203.298 78.3095C203.298 76.695 201.987 75.3822 200.375 75.3822H149.881Z" fill="#090F05"/>
<path d="M196.122 92.1489H142.97C141.217 92.1489 139.781 90.7111 139.781 88.9547C139.781 87.1983 141.217 85.7605 142.97 85.7605H196.122C197.875 85.7605 199.311 87.1983 199.311 88.9547C199.311 90.7111 197.875 92.1489 196.122 92.1489Z" fill="white"/>
<path d="M196.122 92.4159H142.97C141.065 92.4159 139.516 90.8638 139.516 88.956C139.516 87.0481 141.065 85.4961 142.97 85.4961H196.122C198.027 85.4961 199.576 87.0481 199.576 88.956C199.576 90.8638 198.027 92.4159 196.122 92.4159ZM142.97 86.0287C141.358 86.0287 140.048 87.3414 140.048 88.956C140.048 90.5705 141.358 91.8833 142.97 91.8833H196.122C197.734 91.8833 199.045 90.5705 199.045 88.956C199.045 87.3414 197.734 86.0287 196.122 86.0287H142.97Z" fill="#090F05"/>
<path d="M42.6948 207.214H134.304C138.252 207.214 141.047 204.018 140.549 200.078L117.993 21.6083C117.495 17.6675 113.891 14.4721 109.943 14.4721L22.933 13.4539C12.9447 13.4539 11.5895 17.6663 12.0876 21.6083L34.6451 200.078C35.1432 204.018 38.7467 207.214 42.6948 207.214Z" fill="#090F05"/>
<path d="M48.2081 207.214H139.817C143.765 207.214 146.561 204.009 146.063 200.055L123.506 21.0167C123.008 17.0627 119.405 13.8577 115.457 13.8577H23.8465C19.8984 13.8577 17.1028 17.0627 17.6009 21.0167L40.1584 200.055C40.6565 204.009 44.26 207.214 48.2081 207.214Z" fill="white"/>
<path d="M139.817 207.479H48.2081C44.1376 207.479 40.408 204.164 39.8943 200.088L17.3368 21.0504C17.0848 19.0512 17.6309 17.1722 18.8745 15.7596C20.1049 14.3626 21.8707 13.592 23.8465 13.592H115.455C119.526 13.592 123.255 16.9077 123.769 20.9831L146.327 200.021C146.579 202.02 146.033 203.899 144.789 205.312C143.559 206.709 141.793 207.479 139.817 207.479ZM23.8465 14.1246C22.0255 14.1246 20.4014 14.8303 19.273 16.1118C18.1315 17.4078 17.6321 19.1389 17.8638 20.9843L40.4212 200.022C40.9026 203.842 44.3957 206.948 48.2081 206.948H139.817C141.638 206.948 143.262 206.242 144.39 204.961C145.532 203.665 146.031 201.934 145.8 200.088L123.242 21.0504C122.761 17.2311 119.268 14.1246 115.455 14.1246H23.8465Z" fill="#090F05"/>
<path d="M57.4941 207.479H48.208C44.1376 207.479 40.408 204.164 39.8943 200.088L36.442 172.692C36.424 172.546 36.5272 172.413 36.6725 172.395C36.8189 172.376 36.9509 172.48 36.9689 172.626L40.4212 200.022C40.9026 203.842 44.3957 206.948 48.208 206.948H57.4941C57.6406 206.948 57.7594 207.067 57.7594 207.214C57.7594 207.36 57.6406 207.479 57.4941 207.479Z" fill="#090F05"/>
<path d="M139.4 202.22H47.2982C46.2587 202.22 45.3068 201.374 45.1759 200.335L23.6388 29.384C23.5728 28.8634 23.7169 28.3718 24.0434 28.0015C24.3663 27.6336 24.8284 27.4316 25.3446 27.4316H117.447C118.486 27.4316 119.437 28.278 119.569 29.3167L141.107 200.268C141.173 200.788 141.029 201.28 140.703 201.65C140.38 202.017 139.918 202.22 139.402 202.22H139.4ZM25.3434 27.9642C24.9821 27.9642 24.6616 28.1025 24.4407 28.3537C24.2162 28.6086 24.119 28.95 24.1646 29.3179L45.7029 200.269C45.8013 201.051 46.5168 201.688 47.2982 201.688H139.4C139.762 201.688 140.082 201.55 140.303 201.299C140.528 201.044 140.625 200.703 140.579 200.335L119.041 29.384C118.943 28.6014 118.227 27.9642 117.447 27.9642H25.3434Z" fill="#090F05"/>
<path d="M70.7991 22.9643C72.2779 22.9643 73.3259 21.7633 73.1386 20.2822C72.9513 18.8011 71.6021 17.6001 70.1233 17.6001C68.6444 17.6001 67.5965 18.8011 67.7837 20.2822C67.9698 21.7633 69.3202 22.9643 70.7991 22.9643Z" fill="#090F05"/>
<path d="M132.761 143.77C132.744 143.77 132.728 143.77 132.71 143.77C127.395 143.754 121.927 140.549 116.455 134.245C112.62 129.825 110.18 125.454 110.078 125.27C109.264 123.804 109.792 121.956 111.255 121.141C112.719 120.327 114.565 120.855 115.379 122.32C117.756 126.592 125.507 137.674 132.726 137.696C132.737 137.696 132.748 137.696 132.759 137.696C135.049 137.696 136.82 136.988 138.17 135.532C141.404 132.047 141.64 125.083 141.459 122.693C141.332 121.021 142.583 119.561 144.252 119.434C145.92 119.306 147.379 120.559 147.507 122.231C147.541 122.69 148.296 133.541 142.613 139.667C140.086 142.389 136.772 143.77 132.76 143.77H132.761Z" fill="#090F05"/>
<path d="M154.052 121.889H136.093C134.419 121.889 133.061 120.529 133.061 118.852C133.061 117.175 134.419 115.815 136.093 115.815H154.052C155.727 115.815 157.084 117.175 157.084 118.852C157.084 120.529 155.727 121.889 154.052 121.889Z" fill="#090F05"/>
<path d="M129.371 62.1484H130.802C135.09 62.1484 138.571 65.6348 138.571 69.929V72.3249C138.571 76.6191 135.09 80.1055 130.802 80.1055H129.371V62.1472V62.1484Z" fill="white"/>
<path d="M130.802 80.3724H129.371C129.225 80.3724 129.106 80.2534 129.106 80.1067V62.1485C129.106 62.0018 129.225 61.8828 129.371 61.8828H130.802C135.233 61.8828 138.837 65.493 138.837 69.9302V72.3262C138.837 76.7635 135.233 80.3736 130.802 80.3736V80.3724ZM129.637 79.8399H130.802C134.94 79.8399 138.306 76.4689 138.306 72.325V69.929C138.306 65.7851 134.94 62.4142 130.802 62.4142H129.637V79.8399Z" fill="#090F05"/>
<path d="M48.4109 80.1055H46.98C42.6923 80.1055 39.2112 76.6191 39.2112 72.3249V69.929C39.2112 65.6348 42.6923 62.1484 46.98 62.1484H48.4109V80.1067V80.1055Z" fill="white"/>
<path d="M48.4108 80.3724H46.98C42.5494 80.3724 38.9447 76.7623 38.9447 72.325V69.929C38.9447 65.4918 42.5494 61.8816 46.98 61.8816H48.4108C48.5573 61.8816 48.6761 62.0006 48.6761 62.1473V80.1055C48.6761 80.2522 48.5573 80.3712 48.4108 80.3712V80.3724ZM46.98 62.4142C42.8423 62.4142 39.4765 65.7851 39.4765 69.929V72.325C39.4765 76.4689 42.8423 79.8398 46.98 79.8398H48.1456V62.4142H46.98Z" fill="#090F05"/>
<path d="M45.5132 70.3858C45.5132 51.0895 64.934 31.1284 88.8923 31.1284C112.851 31.1284 132.271 51.0895 132.271 70.3858C132.271 89.6821 112.851 101.008 88.8923 101.008C64.934 101.008 45.5132 89.6821 45.5132 70.3858Z" fill="white"/>
<path d="M88.8911 101.274C76.8549 101.274 65.9087 98.3896 58.0703 93.154C49.6809 87.5506 45.2467 79.6775 45.2467 70.3858C45.2467 61.0941 49.9078 50.991 58.0355 43.327C66.5593 35.2892 77.5176 30.8616 88.8911 30.8616C100.265 30.8616 111.223 35.288 119.747 43.327C127.874 50.991 132.535 60.8537 132.535 70.3858C132.535 79.918 128.101 87.5506 119.712 93.154C111.873 98.3896 100.927 101.274 88.8911 101.274ZM88.8911 31.3941C64.2162 31.3941 45.7785 51.9804 45.7785 70.3858C45.7785 79.4912 50.131 87.2116 58.3656 92.7116C66.1176 97.8894 76.9594 100.741 88.8911 100.741C100.823 100.741 111.665 97.8894 119.417 92.7116C127.651 87.2116 132.004 79.4912 132.004 70.3858C132.004 51.9804 113.566 31.3941 88.8911 31.3941Z" fill="#090F05"/>
<path d="M99.7568 106.805H78.0252C68.5002 106.805 60.7794 114.537 60.7794 124.077C60.7794 130.379 61.3928 136.666 62.6124 142.849L65.737 158.696C67.9204 169.772 77.6195 177.754 88.891 177.754C100.162 177.754 109.862 169.772 112.045 158.696L115.17 142.849C116.388 136.666 117.003 130.379 117.003 124.077C117.003 114.537 109.282 106.805 99.7568 106.805Z" fill="white"/>
<path d="M88.891 178.02C77.5247 178.02 67.678 169.915 65.4765 158.748L62.3519 142.901C61.1324 136.715 60.5142 130.382 60.5142 124.077C60.5142 114.406 68.3694 106.538 78.0252 106.538H99.7568C109.413 106.538 117.269 114.405 117.269 124.077C117.269 130.381 116.651 136.714 115.431 142.901L112.307 158.748C110.105 169.915 100.257 178.02 88.891 178.02ZM78.0252 107.071C68.6623 107.071 61.0447 114.7 61.0447 124.077C61.0447 130.347 61.6593 136.646 62.8729 142.797L65.9975 158.644C68.1497 169.563 77.7779 177.487 88.891 177.487C100.004 177.487 109.632 169.563 111.785 158.644L114.909 142.797C116.123 136.644 116.737 130.346 116.737 124.077C116.737 114.7 109.12 107.071 99.7568 107.071H78.0252Z" fill="#090F05"/>
<path d="M100.72 107.07H77.0614C76.915 107.07 76.7961 106.951 76.7961 106.805C76.7961 106.658 76.915 106.539 77.0614 106.539H100.72C100.866 106.539 100.985 106.658 100.985 106.805C100.985 106.951 100.866 107.07 100.72 107.07Z" fill="#090F05"/>
<path d="M118.055 64.5938H76.2823C71.943 64.5938 68.4247 68.3903 68.4247 73.074V78.6064C68.4247 82.1781 70.3285 85.9638 73.6115 86.5817C85.1879 88.7601 109.15 88.7601 120.726 86.5817C124.009 85.9638 125.913 82.1793 125.913 78.6064V73.074C125.913 68.3903 122.395 64.5938 118.055 64.5938Z" fill="#090F05"/>
<path d="M84.7209 78.568C86.1748 78.568 87.3533 77.2962 87.3533 75.7272C87.3533 74.1583 86.1748 72.8865 84.7209 72.8865C83.2671 72.8865 82.0885 74.1583 82.0885 75.7272C82.0885 77.2962 83.2671 78.568 84.7209 78.568Z" fill="white"/>
<path d="M112.728 78.568C114.182 78.568 115.36 77.2962 115.36 75.7272C115.36 74.1583 114.182 72.8865 112.728 72.8865C111.274 72.8865 110.096 74.1583 110.096 75.7272C110.096 77.2962 111.274 78.568 112.728 78.568Z" fill="white"/>
<path d="M99.2158 137.101C104.655 131.654 104.655 122.822 99.2158 117.375C93.7771 111.929 84.9591 111.929 79.5204 117.375C74.0817 122.822 74.0817 131.654 79.5204 137.101C84.9591 142.548 93.7771 142.548 99.2158 137.101Z" fill="white"/>
<path d="M89.3688 141.452C81.5435 141.452 75.1768 135.075 75.1768 127.238C75.1768 119.401 81.5435 113.025 89.3688 113.025C97.194 113.025 103.561 119.401 103.561 127.238C103.561 135.075 97.194 141.452 89.3688 141.452ZM89.3688 113.557C81.8364 113.557 75.7085 119.695 75.7085 127.238C75.7085 134.782 81.8364 140.919 89.3688 140.919C96.9011 140.919 103.029 134.782 103.029 127.238C103.029 119.695 96.9011 113.557 89.3688 113.557Z" fill="#090F05"/>
<path d="M90.7107 119.315H88.4996C87.3394 119.315 86.3989 120.257 86.3989 121.419V133.633C86.3989 134.795 87.3394 135.737 88.4996 135.737H90.7107C91.8708 135.737 92.8113 134.795 92.8113 133.633V121.419C92.8113 120.257 91.8708 119.315 90.7107 119.315Z" fill="#090F05"/>
<path d="M95.6659 124.3H83.5433C82.3831 124.3 81.4426 125.242 81.4426 126.404V128.647C81.4426 129.809 82.3831 130.751 83.5433 130.751H95.6659C96.826 130.751 97.7665 129.809 97.7665 128.647V126.404C97.7665 125.242 96.826 124.3 95.6659 124.3Z" fill="#090F05"/>
<path d="M61.1457 157.574C55.205 157.574 47.1661 156.727 42.0141 152.77C39.0444 150.49 37.3098 147.48 36.8585 143.823C34.8311 127.404 54.6144 118.007 55.4571 117.614C56.9756 116.907 58.7785 117.568 59.4843 119.09C60.189 120.61 59.5312 122.414 58.0151 123.121C57.8482 123.199 41.3923 131.054 42.8772 143.076C43.1257 145.085 44.0499 146.679 45.7041 147.95C51.3686 152.299 63.7217 151.688 68.0034 151.086C69.6611 150.853 71.1952 152.011 71.4281 153.671C71.6609 155.332 70.5062 156.867 68.8473 157.101C68.5436 157.144 65.3758 157.573 61.1457 157.573V157.574Z" fill="#090F05"/>
<path d="M82.0838 160.805H76.2608C73.0798 160.805 70.4414 158.413 70.1245 155.243L69.9216 153.214C69.7488 151.48 70.319 149.747 71.4857 148.456C72.6525 147.165 74.3198 146.424 76.0579 146.424H85.3464C87.021 146.424 88.3786 147.784 88.3786 149.461C88.3786 151.138 87.021 152.498 85.3464 152.498H76.0579C76.0411 152.498 76.0123 152.498 75.9823 152.531C75.9523 152.565 75.9547 152.594 75.9559 152.611L76.1588 154.64C76.1636 154.693 76.208 154.732 76.2608 154.732H82.0838C83.7583 154.732 85.116 156.092 85.116 157.769C85.116 159.446 83.7583 160.806 82.0838 160.806V160.805Z" fill="#090F05"/>
<path d="M220.126 155.099C220.082 155.099 220.038 155.088 219.997 155.065C219.869 154.994 219.822 154.832 219.893 154.704L220.887 152.894C220.957 152.766 221.118 152.719 221.248 152.79C221.376 152.861 221.423 153.023 221.352 153.152L220.358 154.961C220.31 155.049 220.219 155.099 220.126 155.099Z" fill="#090F05"/>
<path d="M217.81 159.313C217.767 159.313 217.722 159.302 217.682 159.279C217.553 159.208 217.506 159.046 217.577 158.917L218.571 157.108C218.642 156.979 218.803 156.932 218.932 157.003C219.061 157.074 219.108 157.237 219.037 157.365L218.043 159.174C217.995 159.262 217.904 159.313 217.81 159.313Z" fill="#090F05"/>
<path d="M218.265 155.64C218.222 155.64 218.177 155.629 218.137 155.607L216.33 154.611C216.202 154.54 216.155 154.378 216.226 154.249C216.296 154.121 216.457 154.074 216.587 154.145L218.393 155.14C218.522 155.211 218.569 155.373 218.498 155.502C218.45 155.59 218.359 155.64 218.265 155.64Z" fill="#090F05"/>
<path d="M222.472 157.959C222.429 157.959 222.385 157.948 222.344 157.925L220.537 156.93C220.409 156.859 220.362 156.697 220.433 156.568C220.504 156.439 220.666 156.393 220.794 156.464L222.601 157.459C222.729 157.53 222.776 157.692 222.705 157.821C222.657 157.909 222.566 157.959 222.472 157.959Z" fill="#090F05"/>
<path d="M126.345 16.0423C126.043 16.0423 125.74 15.9858 125.449 15.8727C124.816 15.6263 124.318 15.143 124.045 14.5107C123.49 13.2207 124.067 11.7084 125.331 11.1397C125.939 10.8656 126.618 10.8488 127.238 11.0904C127.871 11.3369 128.369 11.8202 128.642 12.4525C129.197 13.7425 128.621 15.2548 127.357 15.8235C127.033 15.9689 126.689 16.0423 126.345 16.0423ZM126.344 11.4535C126.074 11.4535 125.804 11.5112 125.549 11.6254C124.549 12.075 124.093 13.2748 124.535 14.2991C124.75 14.7992 125.144 15.1815 125.643 15.375C126.13 15.565 126.662 15.5518 127.141 15.3366C128.141 14.887 128.597 13.6872 128.155 12.6617C127.941 12.1616 127.547 11.7793 127.047 11.5858C126.819 11.4968 126.582 11.4523 126.344 11.4523V11.4535Z" fill="#090F05"/>
<path d="M123.384 220.955C122.828 220.955 122.272 220.949 121.717 220.938C121.57 220.936 121.454 220.813 121.456 220.666C121.46 220.52 121.594 220.402 121.727 220.405C133.366 220.641 145.161 218.385 156.764 213.696C156.898 213.641 157.054 213.707 157.11 213.843C157.165 213.979 157.099 214.134 156.962 214.189C145.845 218.68 134.557 220.954 123.383 220.954L123.384 220.955Z" fill="#090F05"/>
<path d="M117.587 220.718H117.584C110.177 220.613 105.545 219.481 105.498 219.469C105.355 219.433 105.269 219.289 105.305 219.147C105.34 219.004 105.484 218.917 105.627 218.952C105.672 218.963 110.252 220.082 117.591 220.185C117.737 220.188 117.855 220.308 117.853 220.456C117.85 220.601 117.731 220.718 117.587 220.718Z" fill="#090F05"/>
<path d="M124.096 225.862C121.173 225.862 119.442 225.707 119.381 225.701C119.234 225.687 119.127 225.557 119.142 225.411C119.155 225.265 119.282 225.158 119.432 225.172C119.65 225.192 141.412 227.134 162.437 216.869C162.57 216.804 162.729 216.859 162.792 216.991C162.857 217.123 162.802 217.282 162.67 217.347C147.381 224.813 131.704 225.863 124.097 225.863L124.096 225.862Z" fill="#090F05"/>
<path d="M221.708 140.089C221.686 140.089 221.666 140.086 221.644 140.081C221.501 140.046 221.415 139.902 221.45 139.759C224.49 127.325 224.685 115.286 222.029 103.975C221.996 103.832 222.085 103.689 222.227 103.655C222.369 103.621 222.513 103.71 222.547 103.853C225.222 115.247 225.027 127.369 221.967 139.887C221.937 140.008 221.829 140.09 221.709 140.09L221.708 140.089Z" fill="#090F05"/>
<path d="M225.13 144.335C225.102 144.335 225.075 144.33 225.047 144.322C224.908 144.276 224.832 144.126 224.878 143.985C232.433 121.038 225.737 100.255 225.669 100.049C225.623 99.9092 225.698 99.7589 225.838 99.712C225.979 99.6651 226.127 99.7421 226.174 99.8815C226.244 100.091 232.996 121.032 225.384 144.152C225.347 144.264 225.244 144.335 225.132 144.335H225.13Z" fill="#090F05"/>
<path d="M15.1161 141.508C14.7644 141.508 14.4091 141.419 14.0838 141.231C13.0947 140.658 12.755 139.388 13.3252 138.397C13.8965 137.406 15.1665 137.066 16.1544 137.638C17.1436 138.211 17.4833 139.481 16.9131 140.472C16.5302 141.137 15.8327 141.508 15.1161 141.508ZM15.1209 137.893C14.5892 137.893 14.0706 138.17 13.7849 138.664C13.36 139.4 13.6133 140.345 14.3479 140.77C15.0825 141.196 16.026 140.943 16.4509 140.206C16.8759 139.471 16.6226 138.526 15.888 138.1C15.6467 137.961 15.3814 137.893 15.1197 137.893H15.1209Z" fill="#090F05"/>
<path d="M25.5078 176.255C25.4274 176.255 25.3481 176.219 25.2965 176.151C20.3258 169.623 16.6586 160.01 14.085 146.763C14.0574 146.619 14.151 146.479 14.2951 146.451C14.4379 146.423 14.5784 146.517 14.6072 146.661C17.1652 159.826 20.7999 169.367 25.719 175.827C25.8079 175.944 25.7863 176.111 25.6686 176.2C25.6206 176.237 25.5642 176.254 25.5078 176.254V176.255Z" fill="#090F05"/>
<path d="M185.491 56.9442C194.085 56.9442 201.052 49.9671 201.052 41.3603C201.052 32.7535 194.085 25.7764 185.491 25.7764C176.897 25.7764 169.931 32.7535 169.931 41.3603C169.931 49.9671 176.897 56.9442 185.491 56.9442Z" fill="white"/>
<path d="M185.491 57.2099C176.765 57.2099 169.664 50.099 169.664 41.3591C169.664 32.6192 176.763 25.5083 185.491 25.5083C194.219 25.5083 201.318 32.6192 201.318 41.3591C201.318 50.099 194.218 57.2099 185.491 57.2099ZM185.491 26.0421C177.057 26.0421 170.196 32.9138 170.196 41.3603C170.196 49.8069 177.057 56.6786 185.491 56.6786C193.925 56.6786 200.786 49.8069 200.786 41.3603C200.786 32.9138 193.925 26.0421 185.491 26.0421Z" fill="#090F05"/>
<path d="M189.715 50.2455H181.091C180.447 50.2455 179.851 49.9246 179.495 49.3884C179.14 48.851 179.076 48.1766 179.327 47.5827L182.404 40.2963C182.962 38.9738 183.245 37.5745 183.245 36.1379V32.7706C183.245 32.6239 183.364 32.5049 183.511 32.5049H187.292C187.438 32.5049 187.557 32.6239 187.557 32.7706V36.1379C187.557 37.5745 187.84 38.9738 188.399 40.2963L191.475 47.5827C191.726 48.1766 191.664 48.851 191.308 49.3884C190.953 49.9258 190.356 50.2467 189.713 50.2467L189.715 50.2455ZM183.778 33.0363V36.1379C183.778 37.6466 183.481 39.1157 182.895 40.5042L179.818 47.7907C179.635 48.2259 179.679 48.7007 179.94 49.095C180.2 49.4882 180.62 49.7142 181.092 49.7142H189.717C190.188 49.7142 190.608 49.4882 190.869 49.095C191.129 48.7019 191.174 48.2259 190.99 47.7907L187.914 40.5042C187.327 39.1145 187.03 37.6466 187.03 36.1379V33.0363H183.781H183.778Z" fill="#090F05"/>
<path d="M187.1 33.0375H183.706C183.068 33.0375 182.549 32.517 182.549 31.8786C182.549 31.2403 183.068 30.7197 183.706 30.7197H187.1C187.738 30.7197 188.257 31.2403 188.257 31.8786C188.257 32.517 187.737 33.0375 187.1 33.0375ZM183.706 31.2511C183.362 31.2511 183.081 31.5324 183.081 31.8774C183.081 32.2225 183.362 32.5038 183.706 32.5038H187.1C187.446 32.5038 187.725 32.2225 187.725 31.8774C187.725 31.5324 187.444 31.2511 187.1 31.2511H183.706Z" fill="#090F05"/>
<path d="M187.97 40.835H182.836L179.887 47.8197C179.713 48.2308 179.755 48.6804 180.001 49.0531C180.247 49.4258 180.644 49.6386 181.091 49.6386H189.715C190.162 49.6386 190.559 49.4246 190.805 49.0531C191.051 48.6804 191.093 48.2308 190.919 47.8197L187.97 40.835Z" fill="#090F05"/>
<path d="M187.98 40.835C187.98 40.9204 186.828 40.9889 185.41 40.9889C183.991 40.9889 182.84 40.9204 182.84 40.835C182.84 40.7497 183.991 40.6812 185.41 40.6812C186.828 40.6812 187.98 40.7497 187.98 40.835Z" fill="white"/>
<path d="M158.64 36.8848C164.606 30.9097 164.606 21.2221 158.64 15.247C152.673 9.27192 143 9.27192 137.034 15.247C131.068 21.2221 131.068 30.9097 137.034 36.8848C143 42.8599 152.673 42.8599 158.64 36.8848Z" fill="white"/>
<path d="M147.837 41.6318C139.267 41.6318 132.294 34.6495 132.294 26.0659C132.294 17.4823 139.266 10.5 147.837 10.5C156.407 10.5 163.379 17.4835 163.379 26.0659C163.379 34.6483 156.406 41.6318 147.837 41.6318ZM147.837 11.0326C139.56 11.0326 132.826 17.7768 132.826 26.0659C132.826 34.355 139.56 41.0992 147.837 41.0992C156.113 41.0992 162.847 34.355 162.847 26.0659C162.847 17.7768 156.113 11.0326 147.837 11.0326Z" fill="#090F05"/>
<path d="M154.269 28.7626C154.269 32.3632 151.355 35.2821 147.76 35.2821C144.165 35.2821 141.25 32.3632 141.25 28.7626C141.25 25.4939 146.61 17.5787 147.598 16.1469C147.684 16.0218 147.864 16.0146 147.96 16.1336C149.09 17.527 154.269 25.4842 154.269 28.7626Z" fill="#090F05"/>
<path d="M143.015 27.8934C142.992 27.8934 142.968 27.8898 142.945 27.8838C142.803 27.8453 142.719 27.6986 142.759 27.5568C143.011 26.6299 143.561 25.3976 144.392 23.8973C144.464 23.7687 144.624 23.7218 144.753 23.7939C144.881 23.8648 144.928 24.0271 144.856 24.1558C144.046 25.62 143.512 26.8114 143.27 27.6974C143.238 27.8152 143.131 27.8934 143.015 27.8934Z" fill="white"/>
<path d="M147.525 33.5437C145.192 33.5437 143.161 31.8847 142.694 29.6005C142.664 29.4563 142.758 29.3156 142.902 29.2868C143.045 29.2579 143.186 29.3505 143.215 29.4947C143.632 31.5336 145.444 33.0123 147.526 33.0123C148.229 33.0123 148.9 32.8512 149.522 32.5339C149.653 32.4665 149.813 32.5194 149.88 32.6505C149.947 32.7815 149.894 32.9414 149.763 33.0087C149.066 33.3646 148.314 33.5449 147.526 33.5449L147.525 33.5437Z" fill="white"/>
<path d="M223.771 83.7707C229.848 77.6848 229.848 67.8176 223.771 61.7317C217.695 55.6458 207.842 55.6458 201.765 61.7317C195.689 67.8176 195.689 77.6848 201.765 83.7707C207.842 89.8566 217.695 89.8566 223.771 83.7707Z" fill="white"/>
<path d="M212.781 88.6026C206.122 88.6026 199.911 84.3577 197.729 77.6844C195.013 69.3785 199.55 60.4077 207.843 57.6872C211.862 56.3696 216.15 56.6978 219.922 58.6105C223.693 60.5232 226.495 63.7931 227.81 67.8168C229.126 71.8405 228.8 76.1359 226.889 79.9132C224.979 83.6905 221.714 86.4964 217.696 87.814C216.066 88.3489 214.409 88.6026 212.782 88.6026H212.781ZM212.784 57.4251C211.183 57.4251 209.574 57.68 208.008 58.1933C199.993 60.8225 195.608 69.4915 198.233 77.5185C200.342 83.967 206.345 88.0688 212.779 88.07C214.354 88.07 215.953 87.8248 217.529 87.3079C221.411 86.0347 224.567 83.3226 226.413 79.6728C228.259 76.0229 228.575 71.8718 227.304 67.9827C226.033 64.0949 223.325 60.9343 219.68 59.0853C217.506 57.9817 215.154 57.4239 212.784 57.4239V57.4251Z" fill="#090F05"/>
<path d="M205.681 78.8816C207.246 80.5971 209.901 80.7173 211.614 79.1521L219.178 72.2347C220.891 70.6682 221.011 68.009 219.449 66.2935C217.884 64.578 215.229 64.4577 213.516 66.023L205.952 72.9404C204.239 74.5068 204.119 77.166 205.681 78.8816Z" fill="white"/>
<path d="M208.787 80.5178C208.717 80.5178 208.649 80.5166 208.579 80.513C207.388 80.4589 206.289 79.9432 205.485 79.0608C204.68 78.1784 204.267 77.0363 204.321 75.8426C204.375 74.65 204.89 73.5488 205.772 72.7433L213.336 65.8259C214.216 65.0205 215.36 64.6081 216.55 64.661C217.74 64.7151 218.84 65.2309 219.644 66.1133C220.448 66.9957 220.861 68.1377 220.807 69.3315C220.753 70.5241 220.238 71.6253 219.357 72.4307L211.793 79.3481C210.963 80.1067 209.903 80.5178 208.787 80.5178ZM216.346 65.1924C215.399 65.1924 214.449 65.5326 213.695 66.2203L206.13 73.1376C205.355 73.8469 204.901 74.8171 204.853 75.8678C204.805 76.9185 205.17 77.9259 205.878 78.7025C206.587 79.4792 207.554 79.9336 208.604 79.9817C209.646 80.0298 210.658 79.6655 211.435 78.9562L219 72.0388C220.601 70.5746 220.715 68.0776 219.253 66.4739C218.479 65.624 217.414 65.1924 216.347 65.1924H216.346Z" fill="#090F05"/>
<path d="M219.443 66.2887C221.007 68.0042 220.87 70.6466 219.158 72.2131L215.285 75.7547L209.652 69.5767L213.526 66.0351C215.239 64.4686 217.879 64.5732 219.443 66.2887Z" fill="#090F05"/>
<path d="M217.326 72.5089C217.254 72.5089 217.182 72.48 217.131 72.4223C217.031 72.3141 217.039 72.1458 217.147 72.046L218.049 71.2225C218.584 70.7332 218.898 70.0672 218.93 69.3483C218.964 68.6294 218.713 67.9381 218.224 67.402C218.125 67.2938 218.133 67.1255 218.241 67.0257C218.349 66.9271 218.517 66.9343 218.617 67.0425C219.201 67.6833 219.5 68.5104 219.461 69.3724C219.421 70.2331 219.046 71.0302 218.407 71.6144L217.505 72.4379C217.455 72.4848 217.39 72.5077 217.326 72.5077V72.5089Z" fill="white"/>
<path d="M176.491 117.399C176.434 117.399 176.378 117.381 176.33 117.343L175.757 116.904C175.164 116.45 174.504 115.594 174.477 115.558C174.388 115.441 174.409 115.274 174.526 115.185C174.642 115.096 174.809 115.118 174.898 115.235C174.904 115.243 175.543 116.071 176.08 116.483L176.653 116.921C176.769 117.01 176.792 117.177 176.702 117.294C176.651 117.363 176.571 117.399 176.491 117.399Z" fill="#090F05"/>
<path d="M177.464 116.305C177.424 116.305 177.382 116.295 177.342 116.275L176.702 115.942C176.04 115.597 175.243 114.867 175.209 114.837C175.101 114.737 175.094 114.569 175.192 114.46C175.292 114.352 175.459 114.345 175.568 114.444C175.575 114.451 176.347 115.157 176.947 115.469L177.587 115.802C177.716 115.869 177.767 116.031 177.7 116.162C177.653 116.253 177.559 116.305 177.463 116.305H177.464Z" fill="#090F05"/>
<path d="M199.425 104.526C201.178 104.753 210.709 106.683 211.518 117.438C211.536 117.686 211.409 117.922 211.194 118.045L205.683 121.223C205.475 121.342 205.351 121.564 205.359 121.803C205.419 123.77 205.734 132.707 206.567 136.462C207.217 139.388 207.668 141.775 207.884 142.969C207.961 143.39 207.617 143.766 207.192 143.728C205.844 143.604 203.168 143.306 201.403 142.762C199.188 142.079 198.209 140.777 192.854 143.003C191.73 143.47 190.455 143.407 189.379 142.836C186.447 141.281 180.342 138.523 176.132 139.917C175.655 140.074 175.19 139.655 175.299 139.164C175.914 136.404 177.199 131.082 177.336 128.269C177.508 124.754 175.49 113.049 176.428 111.826C177.323 110.663 181.259 107.987 183.92 107.253C184.894 106.985 185.919 106.959 186.74 106.757C188.801 106.248 194.515 103.891 199.425 104.527V104.526Z" fill="#090F05"/>
<path d="M208.848 130.722C207.21 133.174 205.313 133.955 201.179 132.887C197.046 131.82 188.282 125.536 183.95 119.552C183.95 119.552 183.651 119.003 182.805 119.103C181.959 119.203 178.473 120.549 175.883 118.256C173.294 115.962 173.912 114.317 174.042 114.005C174.261 113.477 178.125 114.151 179.17 113.685C180.216 113.218 180.204 112.494 179.419 111.424C178.482 110.146 180.57 109.854 182.158 112.122C183.123 113.501 184.747 115.314 186.216 116.059C187.735 116.829 203.173 122.392 203.969 122.145C204.766 121.897 209.778 118.863 209.778 118.863C209.778 118.863 210.634 128.053 208.848 130.723V130.722Z" fill="white"/>
<path d="M204.269 133.618C203.358 133.618 202.319 133.457 201.113 133.145C196.877 132.051 188.025 125.635 183.735 119.707C183.728 119.697 183.722 119.687 183.717 119.678C183.71 119.666 183.478 119.291 182.836 119.365C182.72 119.378 182.522 119.425 182.293 119.478C180.899 119.804 177.997 120.481 175.707 118.453C173.199 116.231 173.536 114.529 173.796 113.901C173.97 113.482 174.748 113.494 176.352 113.556C177.407 113.598 178.602 113.645 179.061 113.44C179.429 113.275 179.638 113.086 179.697 112.86C179.775 112.563 179.609 112.133 179.204 111.578C178.858 111.106 178.889 110.774 178.977 110.581C179.08 110.349 179.308 110.205 179.619 110.175C180.321 110.106 181.445 110.635 182.375 111.966C183.298 113.285 184.889 115.085 186.335 115.818C188.133 116.729 202.995 121.976 203.907 121.883C204.517 121.691 208.254 119.471 209.64 118.632C209.72 118.585 209.817 118.581 209.897 118.622C209.979 118.663 210.034 118.744 210.042 118.835C210.077 119.214 210.886 128.151 209.069 130.869C207.812 132.749 206.38 133.616 204.269 133.616V133.618ZM184.172 119.404C188.405 125.245 197.095 131.557 201.246 132.629C205.529 133.735 207.196 132.713 208.627 130.573C210.127 128.332 209.687 121.137 209.548 119.31C208.321 120.048 204.75 122.177 204.047 122.396C204.02 122.404 203.983 122.408 203.936 122.408C202.194 122.408 186.985 116.743 186.095 116.294C184.561 115.516 182.897 113.642 181.939 112.272C181.081 111.046 180.105 110.663 179.669 110.706C179.561 110.717 179.483 110.752 179.462 110.8C179.432 110.866 179.459 111.027 179.632 111.264C180.152 111.974 180.337 112.525 180.211 112.997C180.108 113.388 179.801 113.692 179.277 113.927C178.704 114.181 177.497 114.135 176.33 114.089C175.555 114.059 174.501 114.017 174.273 114.138C174.059 114.686 173.852 116.1 176.058 118.055C178.143 119.901 180.864 119.267 182.171 118.961C182.425 118.902 182.626 118.856 182.772 118.838C183.7 118.728 184.099 119.288 184.171 119.404H184.172Z" fill="#090F05"/>
<path d="M176.708 118.841L176.768 119.392L177.112 122.568C177.466 125.364 177.19 127.642 177.19 127.642C177.194 128.52 176.66 129.555 176.004 130.136C175.246 130.805 174.85 130.944 174.232 131.168C171.908 132.015 170.895 131.754 170.051 129.35C169.207 126.945 169.505 125.454 171.49 118C171.49 118 172.036 116.495 170.497 115.482C169.13 114.583 169.582 112.425 170.842 110.791C172.853 108.185 177.068 118.495 176.708 118.842V118.841Z" fill="white"/>
<path d="M172.309 131.875C171.957 131.875 171.656 131.809 171.381 131.678C170.722 131.366 170.236 130.675 169.801 129.437C168.937 126.974 169.2 125.569 171.234 117.93C171.26 117.855 171.689 116.583 170.353 115.705C169.858 115.378 169.54 114.879 169.436 114.26C169.26 113.205 169.718 111.813 170.634 110.628C171.038 110.105 171.496 110.064 171.811 110.123C173.904 110.512 176.404 116.551 176.855 118.059C176.991 118.517 177.02 118.747 176.982 118.887L177.377 122.54C177.719 125.239 177.484 127.43 177.457 127.659C177.457 128.573 176.933 129.672 176.181 130.336C175.399 131.028 174.96 131.188 174.354 131.409L174.324 131.42C173.483 131.726 172.839 131.875 172.31 131.875H172.309ZM171.593 110.635C171.392 110.635 171.219 110.738 171.053 110.954C170.226 112.026 169.807 113.259 169.96 114.172C170.039 114.647 170.269 115.013 170.644 115.26C172.338 116.374 171.746 118.073 171.74 118.09C169.75 125.569 169.488 126.943 170.302 129.261C170.685 130.353 171.088 130.95 171.608 131.196C172.154 131.454 172.887 131.374 174.142 130.917L174.172 130.906C174.764 130.691 175.121 130.56 175.828 129.935C176.468 129.37 176.929 128.406 176.924 127.642C176.924 127.632 176.924 127.62 176.927 127.609C176.929 127.586 177.193 125.328 176.849 122.599L176.445 118.868C176.44 118.821 176.448 118.774 176.467 118.732C176.474 117.879 173.756 111.424 171.877 110.692C171.776 110.652 171.682 110.633 171.595 110.633L171.593 110.635Z" fill="#090F05"/>
<path d="M175.327 113.957C175.327 113.957 178.74 114.323 179.798 113.487C180.582 112.868 179.12 111.014 179.009 110.868C178.083 109.646 175.921 106.795 175.598 106.391C175.306 106.026 174.749 105.154 174.023 105.219C173.297 105.283 169.271 105.947 168.978 106.076C168.364 106.347 168.624 107.202 169.073 107.672C169.522 108.142 175.327 113.957 175.327 113.957Z" fill="#090F05"/>
<path d="M203.772 142.4C203.772 142.4 207.068 169.851 207.475 175.147C207.882 180.442 208.492 198.978 207.475 208.143C206.816 214.081 206.36 218.053 206.12 220.113C206.008 221.069 205.2 221.789 204.24 221.789H197.523C197.179 221.789 196.9 221.514 196.896 221.17C196.865 218.698 196.645 209.279 195.07 201.217C193.24 191.848 191.206 177.183 190.19 171.277C189.85 169.305 189.564 167.114 189.324 164.969L188.563 167.204C187.802 169.439 184.902 184.517 184.089 190.423C183.35 195.796 182.105 217.347 181.885 221.199C181.866 221.532 181.591 221.789 181.259 221.789H172.657C172.335 221.789 172.065 221.545 172.033 221.224C171.633 217.23 169.277 193.092 169.649 182.275C170.056 170.461 175.343 156.407 176.36 152.537C177.377 148.667 178.742 138.854 178.742 138.854C178.742 138.854 199.364 139.165 203.774 142.4H203.772Z" fill="white"/>
<path d="M204.24 222.056H197.523C197.036 222.056 196.636 221.661 196.63 221.174C196.597 218.522 196.369 209.25 194.809 201.269C193.614 195.154 192.333 186.789 191.305 180.067C190.755 176.475 190.28 173.374 189.927 171.321C189.671 169.838 189.431 168.143 189.194 166.169L188.813 167.288C188.055 169.513 185.177 184.455 184.35 190.458C183.616 195.786 182.387 217.012 182.148 221.212C182.122 221.685 181.729 222.054 181.258 222.054H172.654C172.193 222.054 171.812 221.707 171.766 221.249C171.303 216.625 169.011 193.008 169.382 182.265C169.709 172.781 173.186 161.804 175.054 155.907C175.527 154.416 175.9 153.238 176.102 152.469C177.103 148.659 178.463 138.914 178.476 138.816C178.494 138.682 178.611 138.587 178.743 138.586C179.588 138.599 199.501 138.936 203.928 142.183C203.988 142.226 204.026 142.292 204.035 142.366C204.067 142.64 207.336 169.882 207.738 175.123C208.187 180.962 208.727 199.247 207.738 208.168C207.057 214.304 206.596 218.303 206.383 220.141C206.255 221.23 205.335 222.052 204.239 222.052L204.24 222.056ZM189.323 164.703C189.332 164.703 189.342 164.703 189.352 164.705C189.475 164.718 189.573 164.815 189.587 164.939C189.865 167.414 190.147 169.472 190.451 171.231C190.805 173.288 191.281 176.392 191.83 179.987C192.858 186.703 194.138 195.061 195.331 201.167C196.898 209.192 197.128 218.504 197.161 221.166C197.164 221.364 197.326 221.524 197.523 221.524H204.24C205.066 221.524 205.761 220.904 205.856 220.083C206.069 218.246 206.53 214.248 207.211 208.114C208.198 199.225 207.657 180.992 207.211 175.168C206.823 170.114 203.759 144.512 203.523 142.551C199.302 139.645 181.247 139.175 178.971 139.127C178.756 140.643 177.539 149.1 176.617 152.608C176.412 153.39 176.037 154.573 175.562 156.072C173.701 161.944 170.238 172.876 169.914 182.287C169.545 192.996 171.833 216.58 172.297 221.2C172.315 221.385 172.47 221.526 172.656 221.526H181.259C181.45 221.526 181.608 221.377 181.62 221.187C181.859 216.983 183.089 195.738 183.826 190.389C184.656 184.369 187.549 169.363 188.312 167.12L189.073 164.885C189.11 164.777 189.212 164.705 189.324 164.705L189.323 164.703Z" fill="#090F05"/>
<path d="M189.313 165.161C189.18 165.161 189.065 165.06 189.049 164.925C188.911 163.7 188.777 162.392 188.651 161.037C188.42 158.579 186.777 156.437 184.463 155.579L182.978 155.028C182.84 154.978 182.77 154.824 182.82 154.686C182.871 154.547 183.023 154.478 183.163 154.528L184.647 155.079C187.153 156.008 188.932 158.327 189.18 160.986C189.306 162.338 189.441 163.642 189.577 164.863C189.594 165.009 189.489 165.141 189.343 165.158C189.334 165.158 189.323 165.159 189.313 165.159V165.161Z" fill="#090F05"/>
<path d="M174.544 221.787H180.025C180.414 221.787 180.764 222.02 180.912 222.381C181.398 223.565 182.388 226.331 182.255 228.955C182.219 229.672 181.624 230.235 180.907 230.235H164.823C164.084 230.235 163.522 229.558 163.67 228.832C163.847 227.962 164.458 226.819 166.223 225.791C169.079 224.128 172.666 222.464 173.798 221.949C174.033 221.842 174.287 221.787 174.545 221.787H174.544Z" fill="white"/>
<path d="M180.907 230.5H164.823C164.387 230.5 163.979 230.307 163.703 229.968C163.431 229.634 163.324 229.2 163.409 228.779C163.584 227.922 164.191 226.668 166.088 225.562C168.972 223.881 172.634 222.186 173.688 221.708C173.959 221.584 174.247 221.521 174.544 221.521H180.025C180.524 221.521 180.968 221.819 181.158 222.28C181.613 223.388 182.657 226.26 182.52 228.969C182.477 229.827 181.768 230.5 180.906 230.5H180.907ZM174.544 222.054C174.323 222.054 174.108 222.101 173.908 222.192C172.86 222.669 169.218 224.355 166.356 226.022C164.989 226.819 164.15 227.809 163.93 228.886C163.876 229.15 163.943 229.422 164.115 229.632C164.289 229.846 164.547 229.969 164.823 229.969H180.907C181.486 229.969 181.961 229.518 181.99 228.944C182.122 226.342 181.109 223.559 180.667 222.483C180.56 222.222 180.308 222.055 180.026 222.055H174.545L174.544 222.054Z" fill="#090F05"/>
<path d="M173.8 225.657C173.732 225.657 173.665 225.631 173.614 225.58L171.308 223.306C171.203 223.203 171.202 223.035 171.304 222.93C171.407 222.826 171.575 222.824 171.68 222.927L173.986 225.2C174.09 225.303 174.091 225.472 173.989 225.576C173.938 225.629 173.868 225.656 173.8 225.656V225.657Z" fill="#090F05"/>
<path d="M172.312 226.588C172.245 226.588 172.178 226.563 172.126 226.511L169.82 224.238C169.716 224.135 169.715 223.966 169.817 223.862C169.919 223.757 170.088 223.756 170.192 223.858L172.498 226.132C172.603 226.235 172.604 226.403 172.502 226.508C172.45 226.561 172.381 226.587 172.312 226.587V226.588Z" fill="#090F05"/>
<path d="M198.73 221.787H204.211C204.6 221.787 204.95 222.02 205.098 222.381C205.584 223.565 206.575 226.331 206.441 228.955C206.405 229.672 205.81 230.235 205.093 230.235H189.01C188.27 230.235 187.708 229.558 187.856 228.832C188.034 227.962 188.645 226.819 190.409 225.791C193.265 224.128 196.853 222.464 197.985 221.949C198.219 221.842 198.473 221.787 198.731 221.787H198.73Z" fill="white"/>
<path d="M205.093 230.5H189.009C188.574 230.5 188.166 230.307 187.89 229.968C187.617 229.634 187.51 229.2 187.595 228.779C187.771 227.922 188.377 226.668 190.275 225.562C193.158 223.881 196.82 222.186 197.874 221.708C198.146 221.584 198.434 221.521 198.73 221.521H204.211C204.71 221.521 205.155 221.819 205.344 222.28C205.799 223.388 206.843 226.26 206.707 228.969C206.663 229.827 205.954 230.5 205.093 230.5ZM198.73 222.054C198.509 222.054 198.294 222.101 198.094 222.192C197.046 222.669 193.404 224.355 190.542 226.022C189.175 226.819 188.336 227.809 188.116 228.886C188.062 229.15 188.13 229.422 188.301 229.632C188.475 229.846 188.733 229.969 189.009 229.969H205.093C205.671 229.969 206.147 229.518 206.176 228.944C206.308 226.342 205.295 223.559 204.853 222.483C204.746 222.222 204.494 222.055 204.212 222.055H198.731L198.73 222.054Z" fill="#090F05"/>
<path d="M198.602 225.459C198.534 225.459 198.467 225.433 198.416 225.382L196.109 223.108C196.004 223.005 196.003 222.837 196.105 222.732C196.207 222.627 196.376 222.626 196.481 222.728L198.788 225.002C198.892 225.105 198.893 225.273 198.791 225.378C198.74 225.431 198.67 225.457 198.602 225.457V225.459Z" fill="#090F05"/>
<path d="M197.114 226.389C197.047 226.389 196.98 226.364 196.928 226.312L194.621 224.039C194.517 223.935 194.516 223.767 194.618 223.662C194.72 223.558 194.889 223.557 194.993 223.659L197.3 225.932C197.405 226.035 197.406 226.204 197.304 226.308C197.252 226.361 197.183 226.388 197.114 226.388V226.389Z" fill="#090F05"/>
<path d="M192.415 90.9541C192.295 90.995 192.167 91.0467 192.032 91.1128C192.032 91.1128 191.728 91.2979 191.451 91.8088C191.174 92.3198 190.71 93.8958 190.108 93.8033C189.506 93.7107 188.765 91.2534 188.765 91.2534C188.765 91.2534 188.533 90.0476 186.681 90.5117C184.829 90.9757 183.393 91.7632 182.838 92.0877C182.284 92.4123 181.774 92.5049 181.218 92.4592C180.662 92.4123 178.857 91.346 179.181 89.6305C179.505 87.915 181.08 86.7476 182.469 86.7561C183.915 86.7633 185.987 85.8292 186.358 85.6428C186.729 85.4577 188.909 84.5633 190.096 85.2257C191.155 85.8171 192.046 86.7561 192.529 88.379C192.837 89.4153 192.6 90.365 192.567 90.6776C192.554 90.8002 192.533 90.9168 192.416 90.9553L192.415 90.9541Z" fill="#090F05"/>
<path d="M182.603 92.2598C182.568 92.279 182.548 92.3151 182.55 92.3547C182.569 92.6385 182.633 93.8094 182.455 94.8661C182.357 95.4492 181.984 96.8665 182.141 97.1587C182.298 97.4508 182.882 97.4736 183.15 97.4508C183.419 97.428 183.868 97.541 183.981 97.7658C184.093 97.9906 184.43 100.08 184.564 100.575C184.699 101.069 185.148 101.654 185.979 101.565C186.085 101.553 186.395 101.483 186.635 101.426C186.81 101.386 186.984 101.502 187.012 101.68C187.411 104.218 184.849 107.078 184.233 107.731C184.17 107.798 184.192 107.909 184.278 107.946C189.958 110.428 195.8 106.144 197.396 104.811C197.467 104.75 194.414 103.923 192.954 100.406C192.312 98.8586 192.527 96.453 192.504 95.496C192.499 95.3037 192.607 95.1258 192.782 95.0452C193.165 94.8685 193.725 94.2806 193.885 93.7C194.117 92.8657 194.025 90.204 191.823 91.2704C191.823 91.2704 191.519 91.4555 191.242 91.9664C190.965 92.4774 190.502 94.0534 189.899 93.9609C189.298 93.8683 188.556 91.411 188.556 91.411C188.556 91.411 188.324 90.2052 186.472 90.6693C184.801 91.0876 182.949 92.0722 182.603 92.261V92.2598Z" fill="white"/>
<path d="M187.984 108.977C186.741 108.977 185.456 108.749 184.172 108.187C184.053 108.136 183.967 108.029 183.94 107.9C183.914 107.773 183.952 107.64 184.041 107.545C184.77 106.772 187.119 104.069 186.75 101.718C186.748 101.704 186.738 101.694 186.731 101.69C186.724 101.685 186.711 101.68 186.696 101.682C186.151 101.81 186.043 101.822 186.007 101.825C185.083 101.926 184.489 101.304 184.309 100.643C184.248 100.417 184.15 99.8972 184.047 99.3478C183.942 98.7803 183.796 98.0037 183.742 97.8787C183.706 97.8078 183.407 97.6948 183.173 97.714C183.008 97.7272 182.17 97.7717 181.907 97.2824C181.766 97.0203 181.843 96.507 182.081 95.3805C182.127 95.1617 182.169 94.9646 182.193 94.8191C182.363 93.8081 182.307 92.6889 182.285 92.3703C182.275 92.2284 182.35 92.0914 182.476 92.0228C182.834 91.8281 184.707 90.8327 186.407 90.4071C187.169 90.216 187.784 90.264 188.232 90.5502C188.669 90.8291 188.79 91.245 188.811 91.3388C189.173 92.535 189.699 93.635 189.939 93.6951C190.198 93.736 190.608 92.743 190.766 92.3703C190.856 92.1551 190.935 91.9699 191.007 91.8365C191.311 91.2799 191.647 91.0635 191.684 91.0407C192.671 90.561 193.254 90.7798 193.571 91.0455C194.321 91.673 194.312 93.1529 194.141 93.7684C193.962 94.4128 193.351 95.0716 192.893 95.2832C192.815 95.3192 192.767 95.3986 192.769 95.4863C192.774 95.6811 192.769 95.9348 192.763 96.2293C192.74 97.3786 192.707 99.1157 193.199 100.301C193.993 102.217 195.387 103.622 197.338 104.477C197.531 104.563 197.638 104.61 197.661 104.767C197.674 104.859 197.638 104.952 197.567 105.012C196.267 106.097 192.397 108.976 187.984 108.976V108.977ZM184.556 107.773C189.738 109.911 194.979 106.395 196.904 104.867C194.938 103.946 193.528 102.481 192.708 100.507C192.174 99.2179 192.209 97.4146 192.231 96.2209C192.237 95.936 192.242 95.6907 192.237 95.502C192.23 95.2014 192.399 94.9273 192.671 94.8023C192.974 94.6628 193.485 94.1483 193.629 93.6278C193.769 93.1204 193.756 91.8954 193.231 91.4554C192.947 91.2174 192.517 91.2318 191.954 91.5011C191.908 91.5336 191.684 91.7067 191.474 92.0926C191.414 92.202 191.337 92.3847 191.255 92.5782C190.928 93.3561 190.524 94.3262 189.857 94.2216C189.164 94.1146 188.538 92.2729 188.3 91.4855C188.298 91.4771 188.295 91.4674 188.293 91.459C188.291 91.4506 188.228 91.1777 187.935 90.995C187.62 90.799 187.136 90.775 186.534 90.9252C185.01 91.3075 183.326 92.1719 182.82 92.4424C182.844 92.8752 182.879 93.9355 182.716 94.9093C182.691 95.0596 182.648 95.2651 182.6 95.4923C182.506 95.9335 182.313 96.8508 182.377 97.0396C182.431 97.1393 182.792 97.2127 183.128 97.1838C183.46 97.1562 184.038 97.2836 184.218 97.6443C184.29 97.7897 184.38 98.2454 184.568 99.2504C184.664 99.7649 184.764 100.297 184.82 100.503C184.861 100.652 185.105 101.388 185.949 101.298C185.982 101.294 186.111 101.274 186.574 101.165C186.73 101.129 186.894 101.159 187.027 101.248C187.159 101.337 187.249 101.479 187.274 101.637C187.66 104.095 185.44 106.806 184.555 107.773H184.556ZM182.816 92.3354C182.816 92.3354 182.816 92.3354 182.816 92.3366C182.816 92.3366 182.816 92.3366 182.816 92.3354Z" fill="#090F05"/>
<path d="M186.792 101.65C186.677 101.65 186.572 101.575 186.538 101.459C186.496 101.318 186.576 101.17 186.718 101.128C187.444 100.914 188.611 100.413 189.437 99.8695C189.559 99.7889 189.724 99.8226 189.805 99.9452C189.886 100.068 189.852 100.233 189.729 100.314C188.86 100.887 187.632 101.413 186.868 101.639C186.843 101.646 186.818 101.65 186.792 101.65Z" fill="#090F05"/>
</g>
<defs>
<clipPath id="clip0_177_14792">
<rect width="217" height="220" fill="white" transform="translate(12 10.5)"/>
</clipPath>
</defs>
</svg>
