<svg width="20" height="20" viewBox="0 0 20 20" fill="none" xmlns="http://www.w3.org/2000/svg">
<mask id="mask0_2007_1343" style="mask-type:luminance" maskUnits="userSpaceOnUse" x="0" y="0" width="20" height="20">
<path d="M20 0H0V20H20V0Z" fill="white"/>
</mask>
<g mask="url(#mask0_2007_1343)">
<path d="M18.0768 15.586C17.7744 16.2848 17.4164 16.9279 17.0015 17.5194C16.4361 18.3255 15.9732 18.8834 15.6164 19.1934C15.0633 19.702 14.4707 19.9624 13.8362 19.9773C13.3807 19.9773 12.8313 19.8477 12.1918 19.5847C11.5502 19.3229 10.9606 19.1934 10.4215 19.1934C9.85607 19.1934 9.24967 19.3229 8.60105 19.5847C7.95144 19.8477 7.42812 19.9847 7.028 19.9983C6.41951 20.0241 5.81299 19.7562 5.20757 19.1934C4.82116 18.8563 4.33786 18.2785 3.75885 17.4601C3.13764 16.586 2.62693 15.5725 2.22681 14.4169C1.7983 13.1688 1.5835 11.9602 1.5835 10.7901C1.5835 9.44982 1.87312 8.2938 2.45322 7.32507C2.90914 6.54695 3.51566 5.93314 4.27477 5.48255C5.03388 5.03194 5.8541 4.80231 6.7374 4.78762C7.22073 4.78762 7.85452 4.93713 8.64216 5.23095C9.42757 5.52574 9.93186 5.67525 10.153 5.67525C10.3183 5.67525 10.8785 5.50044 11.8282 5.15194C12.7264 4.82874 13.4843 4.69491 14.1053 4.74762C15.788 4.88342 17.0522 5.54673 17.8928 6.74176C16.388 7.65359 15.6435 8.93069 15.6583 10.569C15.6719 11.8452 16.1349 12.9071 17.0448 13.7503C17.457 14.1416 17.9176 14.4441 18.4299 14.6589C18.3188 14.9811 18.2014 15.2898 18.0768 15.586ZM14.2177 0.400113C14.2177 1.40034 13.8522 2.33425 13.1239 3.19867C12.2449 4.22628 11.1817 4.8201 10.0288 4.7264C10.0141 4.6064 10.0056 4.4801 10.0056 4.34739C10.0056 3.38718 10.4236 2.35955 11.1659 1.51934C11.5365 1.09392 12.0079 0.740189 12.5794 0.458012C13.1498 0.180046 13.6893 0.0263241 14.1967 0C14.2115 0.133715 14.2177 0.267451 14.2177 0.400113Z" fill="white"/>
</g>
</svg>
