<svg width="45" height="45" viewBox="0 0 45 45" fill="none" xmlns="http://www.w3.org/2000/svg">
<rect width="45" height="45" rx="22.5" transform="matrix(-1 0 0 1 45 0)" fill="#090F05" fill-opacity="0.05"/>
<path d="M22.6027 16.9399V20.2699" stroke="#090F05" stroke-width="1.5" stroke-miterlimit="10" stroke-linecap="round"/>
<path d="M22.5826 12.5C26.2626 12.5 29.2426 15.48 29.2426 19.16V21.26C29.2426 21.94 29.5226 22.96 29.8726 23.54L31.1426 25.66C31.9226 26.97 31.3826 28.43 29.9426 28.91C25.1626 30.5 19.9926 30.5 15.2126 28.91C13.8626 28.46 13.2826 26.88 14.0126 25.66L15.2826 23.54C15.6326 22.96 15.9126 21.93 15.9126 21.26V19.16C15.9226 15.5 18.9226 12.5 22.5826 12.5Z" stroke="#090F05" stroke-width="1.5" stroke-miterlimit="10" stroke-linecap="round"/>
<path d="M19.2726 29.5C19.2726 31.33 20.7726 32.83 22.6026 32.83C23.5126 32.83 24.3526 32.45 24.9526 31.85C25.5526 31.25 25.9326 30.41 25.9326 29.5" stroke="#090F05" stroke-width="1.5" stroke-miterlimit="10"/>
</svg>
