<svg width="20" height="20" viewBox="0 0 20 20" fill="none" xmlns="http://www.w3.org/2000/svg">
<g clip-path="url(#clip0_2071_3290)">
<path d="M1.66669 7.14085C1.66669 6.14403 2.06867 5.53314 2.90055 5.07019L6.32491 3.16449C8.11927 2.16592 9.01644 1.66663 10 1.66663C10.9836 1.66663 11.8808 2.16592 13.6751 3.16449L17.0995 5.07019C17.9314 5.53314 18.3334 6.14404 18.3334 7.14085C18.3334 7.41115 18.3334 7.5463 18.3039 7.65741C18.1488 8.24117 17.6198 8.33329 17.1089 8.33329H2.89109C2.38025 8.33329 1.85129 8.24116 1.6962 7.65741C1.66669 7.5463 1.66669 7.41115 1.66669 7.14085Z" stroke="#090F05" stroke-width="1.5"/>
<path d="M9.99658 5.83337H10.0041" stroke="#090F05" stroke-width="2" stroke-linecap="round" stroke-linejoin="round"/>
<path d="M3.33331 8.33337V15.4167M6.66665 8.33337V15.4167" stroke="#090F05" stroke-width="1.5"/>
<path d="M13.3333 8.33337V15.4167M16.6666 8.33337V15.4167" stroke="#090F05" stroke-width="1.5"/>
<path d="M15.8334 15.4166H4.16669C2.78598 15.4166 1.66669 16.5359 1.66669 17.9166C1.66669 18.1467 1.85324 18.3333 2.08335 18.3333H17.9167C18.1468 18.3333 18.3334 18.1467 18.3334 17.9166C18.3334 16.5359 17.2141 15.4166 15.8334 15.4166Z" stroke="#090F05" stroke-width="1.5"/>
</g>
<defs>
<clipPath id="clip0_2071_3290">
<rect width="20" height="20" fill="white"/>
</clipPath>
</defs>
</svg>
