<svg width="20" height="20" viewBox="0 0 20 20" fill="none" xmlns="http://www.w3.org/2000/svg">
<path d="M11.6667 2.91675H8.33335C5.19065 2.91675 3.61931 2.91675 2.643 3.89306C1.66669 4.86937 1.66669 6.44071 1.66669 9.58342V10.4167C1.66669 13.5594 1.66669 15.1308 2.643 16.1071C3.61931 17.0834 5.19065 17.0834 8.33335 17.0834H11.6667C14.8094 17.0834 16.3808 17.0834 17.357 16.1071C18.3334 15.1308 18.3334 13.5594 18.3334 10.4167V9.58342C18.3334 6.44071 18.3334 4.86937 17.357 3.89306C16.3808 2.91675 14.8094 2.91675 11.6667 2.91675Z" stroke="#090F05" stroke-opacity="0.5" stroke-width="1.5" stroke-linejoin="round"/>
<path d="M4.16669 13.3334C5.02976 11.1825 8.24682 11.041 9.16669 13.3334" stroke="#090F05" stroke-opacity="0.5" stroke-width="1.5" stroke-linecap="round"/>
<path d="M8.12498 8.12508C8.12498 8.9305 7.47206 9.58341 6.66665 9.58341C5.86123 9.58341 5.20831 8.9305 5.20831 8.12508C5.20831 7.31966 5.86123 6.66675 6.66665 6.66675C7.47206 6.66675 8.12498 7.31966 8.12498 8.12508Z" stroke="#090F05" stroke-opacity="0.5" stroke-width="1.5"/>
<path d="M11.6667 7.08325H15.8334M11.6667 9.99992H15.8334M11.6667 12.9166H13.75" stroke="#090F05" stroke-opacity="0.5" stroke-width="1.5" stroke-linecap="round" stroke-linejoin="round"/>
</svg>
