<svg width="20" height="20" viewBox="0 0 20 20" fill="none" xmlns="http://www.w3.org/2000/svg">
<path d="M13.334 0.916992C13.7479 0.917344 14.084 1.253 14.084 1.66699V2.6582C14.2605 2.67321 14.4294 2.69022 14.5908 2.71191C15.5816 2.84512 16.403 3.12867 17.0537 3.7793C17.7044 4.42996 17.9879 5.25146 18.1211 6.24219C18.1967 6.80438 18.2253 7.45744 18.2383 8.20898C18.245 8.2494 18.25 8.29068 18.25 8.33301C18.25 8.36843 18.246 8.40339 18.2412 8.4375C18.2472 8.91886 18.25 9.43899 18.25 10V11.666C18.25 13.216 18.2514 14.4546 18.1211 15.4238C17.9879 16.4146 17.7043 17.236 17.0537 17.8867C16.403 18.5375 15.5817 18.8209 14.5908 18.9541C13.6215 19.0844 12.3831 19.083 10.833 19.083H9.16699C7.61685 19.083 6.37848 19.0844 5.40918 18.9541C4.41833 18.8209 3.59701 18.5374 2.94629 17.8867C2.29566 17.236 2.01211 16.4146 1.87891 15.4238C1.74863 14.4546 1.75 13.216 1.75 11.666V10C1.75 9.439 1.75187 8.91885 1.75781 8.4375C1.75307 8.40343 1.75 8.36838 1.75 8.33301C1.75002 8.29073 1.754 8.24935 1.76074 8.20898C1.77368 7.45744 1.80332 6.80438 1.87891 6.24219C2.01214 5.25145 2.29563 4.42996 2.94629 3.7793C3.597 3.12868 4.41838 2.84512 5.40918 2.71191C5.57086 2.69018 5.74014 2.67323 5.91699 2.6582V1.66699C5.91699 1.25278 6.25278 0.916992 6.66699 0.916992C7.08106 0.917168 7.41699 1.25289 7.41699 1.66699V2.59375C7.95003 2.58509 8.53237 2.58301 9.16699 2.58301H10.833C11.468 2.58301 12.0507 2.58507 12.584 2.59375V1.66699C12.584 1.25278 12.9198 0.916992 13.334 0.916992ZM3.25195 9.08301C3.25089 9.37012 3.25 9.67522 3.25 10V11.666C3.25 13.2581 3.25157 14.3776 3.36523 15.2236C3.47607 16.0481 3.68137 16.5006 4.00684 16.8262C4.33241 17.1517 4.78487 17.3569 5.60938 17.4678C6.45545 17.5815 7.57466 17.583 9.16699 17.583H10.833C12.4253 17.583 13.5445 17.5815 14.3906 17.4678C15.2152 17.3569 15.6676 17.1517 15.9932 16.8262C16.3186 16.5006 16.5239 16.0481 16.6348 15.2236C16.7484 14.3776 16.75 13.2581 16.75 11.666V10C16.75 9.67522 16.7491 9.37012 16.748 9.08301H3.25195ZM9.16699 4.08301C8.50715 4.08301 7.92858 4.08535 7.41699 4.09375V5C7.41682 5.41396 7.08095 5.74982 6.66699 5.75C6.25289 5.75 5.91717 5.41406 5.91699 5V4.16309C5.81054 4.17347 5.70808 4.18498 5.60938 4.19824C4.78497 4.30908 4.33241 4.51436 4.00684 4.83984C3.6813 5.16538 3.4761 5.61804 3.36523 6.44238C3.3204 6.77594 3.2931 7.15229 3.27637 7.58301H16.7236C16.7069 7.15229 16.6796 6.77594 16.6348 6.44238C16.5239 5.61805 16.3187 5.16538 15.9932 4.83984C15.6676 4.51438 15.215 4.30908 14.3906 4.19824C14.2922 4.18502 14.1901 4.17345 14.084 4.16309V5C14.0838 5.41385 13.7478 5.74965 13.334 5.75C12.9199 5.75 12.5842 5.41406 12.584 5V4.09375C12.0722 4.08534 11.4933 4.08301 10.833 4.08301H9.16699Z" fill="#090F05" fill-opacity="0.5"/>
</svg>
