<svg width="80" height="80" viewBox="0 0 80 80" fill="none" xmlns="http://www.w3.org/2000/svg">
<g opacity="0.5" clip-path="url(#clip0_145_10530)">
<path d="M62.6562 10.7812H67.2656C67.75 10.7812 68.1812 11.9734 68.1312 12.4156V72.7406C68.125 73.3859 67.8844 73.9547 67.3031 74.2562C58.4625 74.5156 49.5594 74.3219 40.6953 74.3672C35.3047 74.3953 28.8062 75.0187 23.5078 74.539C22.9547 74.489 22.0312 74.1625 22.0312 73.5156V69.0625H12.8906C12.2609 69.0625 11.8203 68 11.8687 67.4281V15.0718L12.2734 13.7578L20.1531 5.85622L20.8687 5.4781L61.3359 5.46247C61.7625 5.32185 62.6562 5.97185 62.6562 6.32966V10.7828V10.7812ZM60.3125 7.81247H22.3437V14.7656C22.3437 14.9422 21.7266 15.7812 21.4844 15.7812H14.375V66.7187H60.3125V7.81247ZM19.8437 13.4375V9.68747L16.0937 13.4375H19.8437ZM65.625 13.125H62.6562V68.2031C62.6562 68.3875 61.9797 69.0625 61.7969 69.0625H24.375V71.7969C24.375 71.8531 24.5344 72.05 24.5578 72.1625L65.625 72.0312V13.125Z" fill="#D499E8"/>
<path d="M55.425 18.4828C56.2015 19.1078 55.6922 20.6578 54.6125 20.6281H30.8562C29.2172 20.4359 29.0469 18.3109 31.3234 18.1187C38.5687 17.5078 46.6562 18.5922 53.9906 18.1187C54.3515 18.1484 55.164 18.2719 55.425 18.4828Z" fill="#D499E8"/>
<path d="M30.7406 53.9437L54.4531 53.9062C56.5781 54.4078 56.2188 56.2219 53.9906 56.4109C46.7047 57.0312 38.5484 55.9344 31.1719 56.4062C29.4922 56.45 28.9828 54.2594 30.7406 53.9422V53.9437Z" fill="#D499E8"/>
<path d="M30.4234 45.0328L54.614 44.9968C56.0484 45.0859 56.2922 47.2218 54.7703 47.3468H30.7015C29.3828 47.2531 29.3344 45.5609 30.4234 45.0328Z" fill="#D499E8"/>
<path d="M30.4234 36.1266L55.1515 36.175C56.2328 36.9047 55.9562 38.2828 54.6125 38.4406L30.6937 38.4453C29.4297 38.2781 29.3015 36.3844 30.4234 36.1266Z" fill="#D499E8"/>
<path d="M30.4234 27.2203L55.1516 27.2688C56.2375 27.9516 55.8766 29.4078 54.6109 29.5344H30.8547C29.5219 29.5641 29.1969 27.5016 30.4234 27.2203Z" fill="#D499E8"/>
<path d="M25.5828 52.0609C26.5812 51.9265 27.2 53.0046 26.7937 53.903L22.6547 58.0421C22.2172 58.2202 21.7578 58.1593 21.3484 57.9484C21.0953 57.8187 19.0734 55.7734 18.9437 55.5093C18.3781 54.3718 19.4281 53.3905 20.5875 53.8687C20.9922 54.0359 21.7844 55.1984 22.0906 55.1452C22.9703 54.553 24.6219 52.1905 25.5844 52.0624L25.5828 52.0609Z" fill="#D499E8"/>
<path d="M25.5828 43.1546C26.5812 43.0202 27.2 44.0984 26.7937 44.9968C25.7219 45.7249 23.614 48.6859 22.6172 49.0984C22.2453 49.2515 21.95 49.289 21.5687 49.1327C21.0844 48.9359 19.025 46.8593 18.8656 46.3577C18.5156 45.2577 19.5812 44.4812 20.6234 44.9249C20.9656 45.0702 21.7469 46.2984 22.089 46.239C22.9687 45.6468 24.6203 43.2843 25.5828 43.1562V43.1546Z" fill="#D499E8"/>
<path d="M25.2672 16.4375C26.3484 16.1094 27.1703 16.936 26.8438 18.0141C26.7969 18.1672 24.9797 20.1 24.6922 20.3938C24.1234 20.975 22.7906 22.5406 21.9938 22.4703C21.4688 22.4234 19.1938 20.2281 18.9438 19.7281C18.5531 18.9469 19.0297 17.9938 19.9266 17.9578C20.9031 17.9188 21.4375 18.986 22.1109 19.5281C22.3313 19.5281 24.7578 16.5922 25.2688 16.4375H25.2672Z" fill="#D499E8"/>
<path d="M25.4265 34.2453C26.5156 34.0187 27.175 35.0343 26.7562 36.0531C26.6453 36.3234 22.8875 40.0812 22.6172 40.1921C22.2703 40.3359 21.9203 40.3937 21.5656 40.2296C21.3953 40.1515 19.0484 37.7546 18.9406 37.5374C18.4109 36.4593 19.5265 35.5515 20.6219 36.0187C20.964 36.164 21.7453 37.3921 22.0875 37.3328C22.9047 36.814 24.6312 34.4109 25.4265 34.2468V34.2453Z" fill="#D499E8"/>
<path d="M25.4265 25.339C26.5156 25.1124 27.175 26.1281 26.7562 27.1468C26.6453 27.4171 23.5422 30.5406 23.1281 30.8624C22.4812 31.3656 22.075 31.5906 21.3265 31.0937C21.0422 30.9062 19.0687 28.8937 18.9406 28.6312C18.5484 27.8328 19.2031 26.8749 20.0828 26.8906C20.8062 26.9031 21.7015 28.4921 22.089 28.4249C22.9062 27.9062 24.6328 25.5031 25.4281 25.339H25.4265Z" fill="#D499E8"/>
</g>
<defs>
<clipPath id="clip0_145_10530">
<rect width="80" height="80" fill="white"/>
</clipPath>
</defs>
</svg>
