<svg width="20" height="20" viewBox="0 0 20 20" fill="none" xmlns="http://www.w3.org/2000/svg">
<path d="M11.6667 2.91675H8.33332C5.19062 2.91675 3.61928 2.91675 2.64296 3.89306C1.66666 4.86937 1.66666 6.44071 1.66666 9.58342V10.4167C1.66666 13.5594 1.66666 15.1308 2.64296 16.1071C3.61928 17.0834 5.19062 17.0834 8.33332 17.0834H11.6667C14.8093 17.0834 16.3807 17.0834 17.357 16.1071C18.3333 15.1308 18.3333 13.5594 18.3333 10.4167V9.58342C18.3333 6.44071 18.3333 4.86937 17.357 3.89306C16.3807 2.91675 14.8093 2.91675 11.6667 2.91675Z" stroke="#090F05" stroke-opacity="0.5" stroke-width="1.5" stroke-linejoin="round"/>
<path d="M4.16666 13.3334C5.02973 11.1825 8.24679 11.041 9.16666 13.3334" stroke="#090F05" stroke-opacity="0.5" stroke-width="1.5" stroke-linecap="round"/>
<path d="M8.12501 8.12508C8.12501 8.9305 7.47209 9.58341 6.66668 9.58341C5.86126 9.58341 5.20834 8.9305 5.20834 8.12508C5.20834 7.31966 5.86126 6.66675 6.66668 6.66675C7.47209 6.66675 8.12501 7.31966 8.12501 8.12508Z" stroke="#090F05" stroke-opacity="0.5" stroke-width="1.5"/>
<path d="M11.6667 7.08325H15.8333M11.6667 9.99992H15.8333M11.6667 12.9166H13.75" stroke="#090F05" stroke-opacity="0.5" stroke-width="1.5" stroke-linecap="round" stroke-linejoin="round"/>
</svg>
