<svg width="80" height="80" viewBox="0 0 80 80" fill="none" xmlns="http://www.w3.org/2000/svg">
<g clip-path="url(#clip0_145_10508)">
<path d="M40.1563 49.8453L47.0578 59.8218C49.8735 59.3172 52.7047 59.7234 55.2344 61.0812L61.4063 58.2781C60.7953 56.5968 60.4625 55.4578 61.3766 53.7968C64.736 47.6875 79.686 50.0562 77.2313 57.3078C75.9297 61.1515 69.7985 61.9922 66.3735 61.2015C65.2828 60.95 64.3203 60.4281 63.2797 60.0593L57.2531 62.9625L57.2047 63.1718C58.2203 64.725 57.8828 66.5406 56.7813 67.9547C53.7985 71.7828 44.9797 71.7937 42.0563 67.8625C39.986 65.0781 41.5735 61.9343 44.5235 60.7734L44.5031 60.4172L37.5469 50.7953C34.8047 51.1703 31.8281 50.964 29.4485 49.4297L18.6094 54.45C21.0672 59.614 14.5875 62.3406 10.3875 62.1843C6.53752 62.0422 0.39689 59.0281 3.05314 54.3843C5.38283 50.314 13.086 50.0797 16.7203 52.4265L27.4953 47.6515C26.0375 44.7297 27.6469 42.1922 30.3063 40.8578C26.5594 36.3562 22.8235 30.689 22.0453 24.7437C20.0594 9.56716 39.7985 3.29372 46.8969 15.9859C51.561 24.3265 45.7469 34.2937 40.3125 40.7093L40.3797 40.9406C44.6969 42.9828 44.6453 48.1218 40.1516 49.8437L40.1563 49.8453ZM33.8719 11.7625C30.0672 12.1922 26.6735 14.95 25.2406 18.4437C22.5453 25.0125 27.275 32.9593 31.2578 38.0406C31.7297 38.6422 34.975 42.5547 35.3703 42.489C41.3969 36.2781 50.6063 23.9593 43.5906 15.5515C41.2219 12.7125 37.5422 11.3484 33.8735 11.7625H33.8719ZM31.9828 42.8312C30.0094 43.589 28.2719 45.3734 30.4656 47.114C32.6078 48.8125 36.8875 48.814 39.2703 47.6297C40.5781 46.9797 41.7563 45.6672 40.6938 44.2281C40.3891 43.8156 38.7985 42.6578 38.3563 42.9547C37.5766 43.4765 36.2625 45.5328 35.3656 45.5797C34.3625 45.6328 32.7922 43.6422 32.1875 42.8797L31.9813 42.8312H31.9828ZM67.7781 52.8562C65.7235 53.089 61.7297 54.8484 64 57.3281C65.6219 59.1 69.6844 59.2125 71.8406 58.6375C73.9969 58.0625 76.375 56.2359 73.9797 54.2234C72.3797 52.8781 69.7891 52.6297 67.7766 52.8562H67.7781ZM5.68127 55.0562C4.05158 56.6906 5.59689 58.239 7.23751 58.9343C9.5422 59.9125 13.6469 59.8703 15.6266 58.2047C18.6 55.7015 14.4531 53.6953 12.0906 53.4562C10.1547 53.2609 7.12033 53.6125 5.68127 55.0562ZM54.6313 63.8062C52.786 61.9062 48.3766 61.7781 46.0516 62.6922C43.9688 63.5093 42.5047 65.3343 44.7672 67.0312C46.8656 68.6062 50.6781 68.6578 53.0266 67.6343C54.6141 66.9422 56.2297 65.4515 54.6328 63.8062H54.6313Z" fill="#24AC69" fill-opacity="0.5"/>
<path d="M33.8657 15.975C41.0375 14.8594 44.8344 23.4828 39.2938 27.8094C34.25 31.7453 27.125 26.7516 28.9157 20.5563C29.5203 18.4641 31.6625 16.3188 33.8657 15.975ZM34.3375 18.4781C29.6391 19.2078 30.3766 26.8969 35.3672 26.7078C41.0172 26.4922 40.6844 17.4938 34.3375 18.4781Z" fill="#24AC69" fill-opacity="0.5"/>
</g>
<defs>
<clipPath id="clip0_145_10508">
<rect width="80" height="80" fill="white"/>
</clipPath>
</defs>
</svg>
