<svg width="80" height="80" viewBox="0 0 80 80" fill="none" xmlns="http://www.w3.org/2000/svg">
<g clip-path="url(#clip0_145_10520)">
<path d="M36.0625 6.7656C49.5188 5.6906 63.7766 14.4203 69.136 26.7234C79.5063 50.5328 61.025 77.0109 34.8109 72.9234C11.1453 69.2328 -0.0187368 41.2172 14.4672 22.0453C16.836 18.9109 19.4172 16.5687 23.4438 15.8656C23.8469 12.7969 25.4531 10.489 28.1235 8.98279C30.2719 7.76873 33.6047 6.96404 36.0641 6.76716L36.0625 6.7656ZM35 70.3109C43.3953 71.5609 51.7563 69.5547 58.3547 64.214C73.2953 52.1203 73.0422 27.9125 57.7078 16.275C50.5969 10.8781 38.8985 6.96873 30.3172 10.864C23.9094 13.7719 25.7375 20.95 29.9969 24.9234C36.0031 30.5265 43.4406 28.8343 48.5016 36.8875C55.6797 48.3109 46.9141 63.8406 36.1985 69.5578C36.0703 69.6265 34.6281 70.0312 35 70.3109ZM35.3125 62.6578L26.486 64.0297C24.6031 63.9265 22.9953 62.7515 22.6953 60.8218C22.4813 59.45 23.0078 57.9531 22.7063 56.7468C22.3016 55.1281 19.7985 54.5093 21.7172 52.7343C21.725 52.4015 19.8141 52.4265 19.5625 51.2937C19.3516 50.3406 20.2281 49.5625 20.4578 48.6875C18.8469 47.6156 16.1422 46.0125 17.2125 43.6953L22.3078 37.2453C20.975 32.3093 22.1906 27.2547 25.1375 23.1672L23.6766 18.7437C23.5656 18.5484 22.5485 18.875 22.311 18.95C19.8344 19.7359 18.0875 21.6718 16.5703 23.6781C6.70939 36.7156 9.50002 55.3453 22.6078 64.9703C23.5094 65.6328 28.4094 68.7531 29.2219 68.5297C29.6438 68.414 31.3703 66.9515 31.8016 66.5656C32.1016 66.2968 35.5172 62.8218 35.3125 62.6562V62.6578ZM27.0281 25.4703L26.7078 25.5656C24.9469 28.4219 24.2594 31.3953 24.5328 34.7625C24.6719 36.4703 25.6188 37.1609 24.5953 38.7359C24.0469 39.5797 19.7906 44.3656 19.8547 44.7437C20.3516 46.0562 22.9078 46.2437 23.4438 46.789C24.3625 47.725 23.1266 49.1187 22.8172 50.0672C22.9141 50.5047 25.0297 50.3812 25.4016 51.5547C25.7969 52.8078 24.2016 53.5406 24.2406 53.9562C24.75 54.8 25.2906 55.6797 25.4281 56.6797C25.7735 59.2015 23.8719 61.575 27.7156 61.2297C31.0219 60.9328 34.775 59.7219 38.05 59.5328C38.9453 59.4812 39.936 59.5859 39.9985 60.714C40.061 61.8422 36.1281 65.7203 35.3141 66.7968C35.2891 66.9125 35.475 66.9015 35.5453 66.8718C36.3016 66.5547 38.011 65.2968 38.7375 64.7515C45.7672 59.475 51.3719 47.1875 46.6297 38.9187C42.8125 32.264 37.7094 32.9515 31.9844 29.6578C30.2219 28.6437 28.1547 27.1343 27.0297 25.4703H27.0281Z" fill="#155DFC" fill-opacity="0.5"/>
</g>
<defs>
<clipPath id="clip0_145_10520">
<rect width="80" height="80" fill="white"/>
</clipPath>
</defs>
</svg>
