<svg width="20" height="20" viewBox="0 0 20 20" fill="none" xmlns="http://www.w3.org/2000/svg">
<g opacity="0.7">
<path d="M13.3333 9.16634C13.3333 7.32539 11.8409 5.83301 10 5.83301C8.15905 5.83301 6.66667 7.32539 6.66667 9.16634C6.66667 11.0073 8.15905 12.4997 10 12.4997C11.8409 12.4997 13.3333 11.0073 13.3333 9.16634Z" fill="#090F05" stroke="#090F05" stroke-width="1.5" stroke-linecap="round" stroke-linejoin="round"/>
<path d="M4.22522 12.5C3.65798 11.5194 3.33333 10.3809 3.33333 9.16667C3.33333 5.48477 6.3181 2.5 10 2.5C13.6819 2.5 16.6667 5.48477 16.6667 9.16667C16.6667 10.3809 16.342 11.5194 15.7747 12.5" stroke="#090F05" stroke-width="1.5" stroke-linecap="round" stroke-linejoin="round"/>
<path d="M15 17.5C15 14.7386 12.7614 12.5 10 12.5C7.23857 12.5 5 14.7386 5 17.5" fill="#090F05"/>
<path d="M15 17.5C15 14.7386 12.7614 12.5 10 12.5C7.23857 12.5 5 14.7386 5 17.5" stroke="#090F05" stroke-width="1.5" stroke-linejoin="round"/>
</g>
</svg>
