<svg width="20" height="20" viewBox="0 0 20 20" fill="none" xmlns="http://www.w3.org/2000/svg">
<path d="M4.51669 7.85L6.66669 10M11.6667 5L4.51669 12.15M9.00002 12.3333L11.6667 15M13.3334 10H11.6667M18.3334 10H16.6667M5.00002 6.66667C5.00002 7.58714 4.25383 8.33333 3.33335 8.33333C2.41288 8.33333 1.66669 7.58714 1.66669 6.66667C1.66669 5.74619 2.41288 5 3.33335 5C4.25383 5 5.00002 5.74619 5.00002 6.66667ZM5.00002 13.3333C5.00002 14.2538 4.25383 15 3.33335 15C2.41288 15 1.66669 14.2538 1.66669 13.3333C1.66669 12.4129 2.41288 11.6667 3.33335 11.6667C4.25383 11.6667 5.00002 12.4129 5.00002 13.3333Z" stroke="#090F05" stroke-opacity="0.5" stroke-width="1.5" stroke-linecap="round" stroke-linejoin="round"/>
</svg>
