<svg width="20" height="20" viewBox="0 0 20 20" fill="none" xmlns="http://www.w3.org/2000/svg">
<g clip-path="url(#clip0_2071_3302)">
<path d="M10 14.1666C8.60535 14.1666 7.39145 15.2208 6.76474 16.776C6.4654 17.5187 6.89493 18.3333 7.46566 18.3333H12.5344C13.1051 18.3333 13.5346 17.5187 13.2353 16.776C12.6086 15.2208 11.3947 14.1666 10 14.1666Z" stroke="#090F05" stroke-width="1.5" stroke-linecap="round"/>
<path d="M15.4166 4.16663H16.4185C17.4192 4.16663 17.9196 4.16663 18.1806 4.48109C18.4416 4.79556 18.3331 5.26757 18.1161 6.21158L17.7904 7.62752C17.3007 9.75713 15.5091 11.3406 13.3333 11.6666" stroke="#090F05" stroke-width="1.5" stroke-linecap="round" stroke-linejoin="round"/>
<path d="M4.58335 4.16663H3.58151C2.58079 4.16663 2.08043 4.16663 1.81939 4.48109C1.55835 4.79556 1.66689 5.26757 1.88398 6.21158L2.20959 7.62752C2.6993 9.75713 4.49095 11.3406 6.66669 11.6666" stroke="#090F05" stroke-width="1.5" stroke-linecap="round" stroke-linejoin="round"/>
<path d="M9.99998 14.1666C12.5173 14.1666 14.6375 10.2815 15.2747 4.99237C15.451 3.52961 15.5391 2.79823 15.0723 2.23243C14.6056 1.66663 13.8519 1.66663 12.3445 1.66663H7.65546C6.1481 1.66663 5.39442 1.66663 4.92762 2.23243C4.46082 2.79823 4.54894 3.52961 4.72519 4.99237C5.36248 10.2815 7.48267 14.1666 9.99998 14.1666Z" stroke="#090F05" stroke-width="1.5" stroke-linecap="round"/>
</g>
<defs>
<clipPath id="clip0_2071_3302">
<rect width="20" height="20" fill="white"/>
</clipPath>
</defs>
</svg>
