<svg width="20" height="20" viewBox="0 0 20 20" fill="none" xmlns="http://www.w3.org/2000/svg">
<path d="M10 0.916992C10.4142 0.916992 10.75 1.25278 10.75 1.66699V2.61523C12.0595 2.72411 13.2578 3.11415 14.1885 3.71582C15.2867 4.42581 16.0975 5.49595 16.0977 6.79004C16.0975 7.20401 15.7616 7.53982 15.3477 7.54004C14.9335 7.54004 14.5978 7.20414 14.5977 6.79004C14.5975 6.17529 14.2108 5.51654 13.374 4.97559C12.7017 4.54097 11.7916 4.22442 10.75 4.12012V9.01562C12.3895 9.07343 13.7482 9.33357 14.7471 9.9043C15.3359 10.2408 15.8077 10.6889 16.126 11.2646C16.4425 11.8375 16.5839 12.4937 16.584 13.21C16.5838 14.7763 15.7247 15.8692 14.4746 16.5273C13.4485 17.0674 12.1416 17.3282 10.75 17.3955V18.334C10.7496 18.7479 10.414 19.084 10 19.084C9.586 19.084 9.25035 18.7479 9.25 18.334V17.3887C7.81819 17.2876 6.50835 16.9004 5.49316 16.2988C4.31964 15.6034 3.41716 14.5359 3.41699 13.21C3.41717 12.7959 3.75289 12.46 4.16699 12.46C4.58095 12.4601 4.91682 12.796 4.91699 13.21C4.91716 13.7928 5.32045 14.4533 6.25781 15.0088C7.02197 15.4616 8.06155 15.7859 9.25 15.8838V10.4893C7.63408 10.4284 6.38098 10.1602 5.4873 9.63281C4.95894 9.32096 4.55129 8.91528 4.28125 8.41309C4.01321 7.91446 3.90335 7.363 3.90332 6.79004C3.90346 5.49592 4.71422 4.42582 5.8125 3.71582C6.7432 3.11431 7.94074 2.72408 9.25 2.61523V1.66699C9.25 1.25278 9.58579 0.916992 10 0.916992ZM10.75 15.8936C11.978 15.8272 13.0222 15.5965 13.7754 15.2002C14.6357 14.7473 15.0839 14.112 15.084 13.21C15.0839 12.6919 14.982 12.2969 14.8125 11.9902C14.6447 11.6867 14.386 11.425 14.0029 11.2061C13.315 10.8131 12.2557 10.5755 10.75 10.5176V15.8936ZM9.25 4.12012C8.2084 4.22436 7.29833 4.54104 6.62598 4.97559C5.78949 5.51649 5.40346 6.17538 5.40332 6.79004C5.40335 7.17126 5.47583 7.46743 5.60254 7.70312C5.72747 7.93538 5.92778 8.15161 6.25 8.3418C6.83069 8.68431 7.77979 8.92559 9.25 8.98633V4.12012Z" fill="#090F05" fill-opacity="0.5"/>
</svg>
