<svg width="24" height="24" viewBox="0 0 24 24" fill="none" xmlns="http://www.w3.org/2000/svg">
<path d="M12 1.25C12.4142 1.25 12.75 1.58579 12.75 2V3.27539C14.3538 3.38754 15.8183 3.85704 16.9443 4.58496C18.2362 5.42013 19.167 6.66325 19.167 8.14844C19.1668 8.56242 18.831 8.89828 18.417 8.89844C18.0029 8.89844 17.6671 8.56252 17.667 8.14844C17.667 7.34267 17.1604 6.5109 16.1299 5.84473C15.2651 5.28571 14.0892 4.88941 12.75 4.78027V10.9658C14.7728 11.0244 16.4249 11.3315 17.6221 12.0156C18.3082 12.4077 18.8519 12.927 19.2188 13.5908C19.5839 14.2516 19.75 15.0118 19.75 15.8516C19.75 17.6652 18.7605 18.9319 17.2988 19.7012C16.0586 20.3538 14.4605 20.6657 12.75 20.7344V22C12.75 22.4142 12.4142 22.75 12 22.75C11.5858 22.75 11.25 22.4142 11.25 22V20.7275C9.49717 20.6236 7.896 20.1583 6.66797 19.4307C5.28315 18.61 4.25 17.3686 4.25 15.8516C4.25018 15.4375 4.5859 15.1016 5 15.1016C5.4141 15.1016 5.74982 15.4375 5.75 15.8516C5.75 16.6254 6.28398 17.459 7.43262 18.1396C8.40682 18.717 9.73705 19.1216 11.25 19.2236V12.4414C9.25131 12.3794 7.72793 12.0609 6.66016 11.4307C6.04693 11.0687 5.57901 10.6009 5.26953 10.0254C4.96189 9.45325 4.83304 8.81695 4.83301 8.14844C4.83301 6.66326 5.76376 5.42013 7.05566 4.58496C8.18173 3.85704 9.64623 3.38754 11.25 3.27539V2C11.25 1.58579 11.5858 1.25 12 1.25ZM12.75 19.2324C14.3049 19.164 15.6385 18.8794 16.6006 18.373C17.6723 17.809 18.25 17.0007 18.25 15.8516C18.25 15.2101 18.1243 14.711 17.9062 14.3164C17.6898 13.9247 17.3584 13.592 16.8779 13.3174C15.9982 12.8147 14.6497 12.5248 12.75 12.4658V19.2324ZM11.25 4.78027C9.91074 4.88941 8.73493 5.28571 7.87012 5.84473C6.83964 6.51089 6.33301 7.34266 6.33301 8.14844C6.33304 8.62516 6.42361 9.00628 6.58984 9.31543C6.75424 9.6211 7.01566 9.89829 7.42285 10.1387C8.17095 10.5802 9.38566 10.878 11.25 10.9404V4.78027Z" fill="#155DFC"/>
</svg>
