<svg width="104" height="72" viewBox="0 0 104 72" fill="none" xmlns="http://www.w3.org/2000/svg">
<g clip-path="url(#clip0_356_17350)">
<path d="M103.989 28.8268C103.989 27.7015 103.992 26.5733 104 25.448C104.003 24.8306 104 24.2132 103.998 23.5958C103.998 23.3432 103.992 23.0934 103.989 22.8408C103.989 22.6248 103.987 22.4115 103.956 22.1982C103.925 22.0859 103.87 21.9877 103.787 21.9063C103.681 21.7997 103.542 21.7379 103.398 21.7211C103.351 21.4321 103.301 21.1458 103.251 20.8596C103.142 20.259 103.015 19.6669 102.84 19.0831C102.734 18.7267 102.582 18.3815 102.44 18.0392C102.326 17.7641 102.204 17.4891 102.071 17.2225C101.787 16.6528 101.471 16.1 101.14 15.5583C100.824 15.0364 100.48 14.5312 100.149 14.0205C99.8076 13.4957 99.4633 12.9765 99.1189 12.4545C98.7885 11.955 98.4942 11.4302 98.1971 10.911C98.0555 10.6612 97.7861 10.5209 97.514 10.5209C97.3807 10.5209 97.2446 10.5546 97.1225 10.6276C96.9697 10.7174 96.8615 10.8577 96.7976 11.012C96.7893 11.012 96.7809 11.012 96.7698 11.012C96.7004 11.012 96.631 11.012 96.5616 11.012C96.4505 10.9868 96.3283 10.9896 96.2117 10.9896C96.1756 10.9896 96.1395 10.9896 96.1062 10.9896C95.9174 10.9896 95.7285 10.9812 95.5397 10.9784C95.0455 10.9699 94.554 10.9699 94.0597 10.9643C93.0323 10.9531 92.0049 10.9503 90.9775 10.9531C90.4055 10.9531 89.8363 10.9391 89.2671 10.9363C88.6173 10.9307 87.9648 10.9307 87.315 10.9278C86.8124 10.9278 86.3126 10.9054 85.81 10.8998C85.1686 10.8942 84.5272 10.8942 83.8858 10.8914C82.9778 10.8914 82.0698 10.8886 81.1618 10.8886C79.2458 10.8886 77.3271 10.8942 75.4111 10.897C72.5955 10.9026 69.7799 10.9054 66.9671 10.9138C61.2998 10.9335 55.6324 10.9307 49.9679 10.9531C47.1217 10.9643 44.2728 10.9699 41.4266 10.9784C38.6194 10.984 35.8121 11.0064 33.0048 11.0205C29.5533 11.0401 26.1018 11.0429 22.6503 11.0513C22.878 10.9475 23.1085 10.8465 23.339 10.7454C23.8749 10.535 24.4163 10.3553 24.98 10.2291C25.5937 10.0944 26.2129 9.99613 26.8293 9.8923C27.1264 9.84178 27.4235 9.78566 27.7206 9.73234C28.015 9.67902 28.3038 9.60044 28.5953 9.53308C28.8508 9.47415 29.0979 9.40119 29.3478 9.32541C29.7699 9.19913 30.1919 9.07003 30.6112 8.93252C31.0444 8.7922 31.3165 8.35441 31.1943 7.89698C31.1444 7.71176 31.025 7.54899 30.8695 7.43673C30.9278 7.23467 30.9889 7.03262 31.05 6.83336C31.1749 6.41802 31.3054 6.00268 31.4665 5.60137C31.5248 5.46947 31.5859 5.33757 31.6581 5.21129C31.7303 5.0822 31.8191 4.95872 31.9052 4.84085C31.9746 4.74263 31.9829 4.58828 31.9524 4.47602C31.9191 4.35815 31.8413 4.25432 31.7358 4.19258C31.6636 4.15048 31.5831 4.12803 31.4998 4.12803C31.4581 4.12803 31.4165 4.13365 31.3748 4.14487C31.2499 4.17855 31.1694 4.25713 31.0944 4.36096C31.0833 4.3778 31.0722 4.39464 31.0611 4.41148C31.0527 4.3329 31.0305 4.25713 30.9889 4.18697C30.9083 4.04945 30.7973 3.98491 30.6557 3.92878C30.478 3.85862 30.303 3.78846 30.1198 3.72953C29.967 3.67901 29.8088 3.63692 29.6533 3.59482C29.3617 3.51063 29.0701 3.42644 28.7758 3.35628C28.151 3.20755 27.5207 3.08687 26.8904 2.9662C26.2601 2.84553 25.6409 2.69118 25.03 2.50034C24.4052 2.3039 23.7777 2.10184 23.1723 1.84927C23.1446 1.83804 23.1196 1.82682 23.0918 1.81559C23.0307 1.68369 22.903 1.58828 22.7447 1.58828C22.7031 1.58828 22.6614 1.59669 22.6226 1.61073C22.1033 1.37499 21.5868 1.13645 21.0676 0.895105C20.4761 0.617275 19.8819 0.347864 19.2905 0.0700344C19.1933 0.0251327 19.1016 -0.0057373 19.0017 -0.0057373C18.9573 -0.0057373 18.9128 -0.000124583 18.8656 0.0139072C18.8156 0.027939 18.7712 0.0503899 18.7296 0.0756472C18.674 0.0616154 18.6157 0.0531963 18.563 0.0531963C18.2797 0.0531963 18.0298 0.249642 17.941 0.530278C17.8466 0.830558 17.7938 1.14487 17.7299 1.45357C17.6633 1.75946 17.5967 2.06536 17.5356 2.37406C17.4162 2.97742 17.3162 3.5836 17.2246 4.19258C17.1218 4.8633 17.0385 5.53683 16.958 6.20755C16.883 6.82214 16.8108 7.43673 16.7442 8.05133C16.6692 8.75853 16.5887 9.46012 16.4971 10.1673C16.4526 10.4676 16.4054 10.7679 16.3582 11.071C13.215 11.085 10.0745 11.1018 6.9312 11.1018C6.82291 11.1018 6.72294 11.1383 6.63964 11.2001C6.52024 11.172 6.39807 11.1467 6.27589 11.1215C6.22868 11.0513 6.16482 10.9868 6.09818 10.9475C6.01765 10.8998 5.92324 10.8745 5.82883 10.8745C5.78163 10.8745 5.73443 10.8801 5.69 10.8942C5.55671 10.9307 5.44287 11.0205 5.37345 11.1411C5.35679 11.172 5.34291 11.2001 5.33457 11.2309C5.32902 11.2365 5.32347 11.2394 5.31791 11.245C5.19851 11.2253 5.07634 11.2029 4.95694 11.1832C4.92084 11.1776 4.88752 11.1748 4.85698 11.1748C4.79866 11.1748 4.74035 11.186 4.68482 11.2197C4.60429 11.2674 4.54598 11.346 4.52099 11.4358C4.496 11.5284 4.50988 11.6294 4.55709 11.7136C4.59874 11.7866 4.68204 11.8652 4.7709 11.8792C4.80422 11.8848 4.84031 11.8904 4.87364 11.896C4.78756 12.1458 4.70703 12.3984 4.63206 12.6538C4.5432 12.954 4.45157 13.2543 4.37382 13.5602C4.2211 14.1664 4.08227 14.7754 3.95731 15.3872C3.82958 16.0046 3.72407 16.6248 3.63243 17.2478C3.54913 17.8175 3.48527 18.3928 3.4214 18.9653C3.39641 19.027 3.38253 19.0944 3.38253 19.1645C3.38253 19.1926 3.38808 19.2206 3.39086 19.2459C3.33255 19.8072 3.27979 20.3712 3.24647 20.9353C3.23258 21.1626 3.22148 21.39 3.20759 21.6173C2.92159 21.6257 2.63281 21.6341 2.3468 21.6453C2.3468 21.6453 2.3468 21.6453 2.34403 21.6453C2.34403 21.6453 2.34125 21.6453 2.33847 21.6453C2.0608 21.6538 1.78035 21.6622 1.50267 21.6734C1.47768 21.6734 1.45269 21.6734 1.43048 21.6762C1.43603 21.5583 1.36939 21.4292 1.29164 21.3507C1.20279 21.2609 1.07783 21.2075 0.950104 21.2075C0.822374 21.2075 0.700197 21.2581 0.608565 21.3507C0.511379 21.4489 0.480835 21.5611 0.466951 21.6959C0.403086 22.288 0.341998 22.8829 0.28924 23.4751C0.267026 23.7445 0.242035 24.0139 0.222598 24.2805C0.208714 24.4461 0.197607 24.6145 0.1865 24.78C0.17817 24.9035 0.17817 25.0242 0.180947 25.1477C0.0754308 25.2403 0.00878906 25.3778 0.00878906 25.5153C0.00878906 25.6416 0.0587704 25.7651 0.147626 25.8521C0.1865 25.8914 0.228151 25.9166 0.272579 25.9391C0.339221 26.1748 0.619672 26.3039 0.841811 26.2422C0.950104 26.2113 1.04451 26.1411 1.10838 26.0457C1.39716 26.0682 1.68594 26.0906 1.97472 26.1187C2.35236 26.1552 2.72999 26.2001 3.10485 26.2478C3.302 26.2758 3.49915 26.3095 3.6963 26.3404C3.69075 26.7052 3.68797 27.0728 3.67964 27.4377C3.6602 28.2403 3.64632 29.0429 3.62688 29.8427C3.60744 30.7127 3.59911 31.5855 3.59356 32.4554C3.58801 33.317 3.5769 34.1757 3.57412 35.0373C3.56302 38.419 3.62966 41.7978 3.64354 45.1795C3.65465 47.621 3.67131 50.0625 3.67408 52.5041C3.53802 52.4648 3.39641 52.4423 3.2548 52.4283C3.22425 52.4255 3.19649 52.4227 3.16594 52.4227C2.91604 52.4227 2.67168 52.5322 2.54118 52.7567C2.4551 52.9054 2.42455 53.099 2.46343 53.2674C2.49397 53.4105 2.56617 53.534 2.63836 53.6575C2.78275 53.9017 3.0993 53.9915 3.34643 53.8455C3.44639 53.7866 3.52136 53.694 3.56302 53.5901C3.58523 53.5986 3.60467 53.607 3.62688 53.6154C4.31274 53.9269 4.96249 54.3254 5.59003 54.7436C5.90936 54.9568 6.22868 55.1673 6.54801 55.3806C6.68407 55.4704 6.82013 55.5602 6.95619 55.65C7.04227 55.7061 7.13112 55.7595 7.2172 55.8128C7.40047 55.925 7.59206 56.0092 7.78921 56.0906C7.8503 56.1075 7.91139 56.1075 7.97248 56.1018C7.96137 56.1159 7.95026 56.1271 7.93916 56.1439C7.82531 56.3404 7.79477 56.5817 7.85308 56.8006C7.90584 56.9971 8.05023 57.2188 8.24182 57.3114C8.40843 57.39 8.49728 57.4321 8.6861 57.4349C8.73608 57.4349 8.78329 57.4349 8.83327 57.4349C8.99432 57.4349 9.15814 57.4292 9.32197 57.4236C9.78847 57.4096 10.255 57.39 10.7187 57.3815C11.9599 57.3563 13.2039 57.3394 14.4451 57.317C16.9719 57.2749 19.4987 57.1795 22.0256 57.1262C24.8967 57.0672 27.7706 57.0139 30.6418 56.9437C33.6212 56.8736 36.5979 56.8062 39.5773 56.7473C42.3513 56.6912 45.1252 56.635 47.8992 56.5789C47.8992 57.9456 47.8992 59.3123 47.8992 60.6762C47.8992 62.2843 47.9159 63.8923 47.9353 65.5003C47.9436 66.3058 47.9464 67.114 47.9409 67.9194C47.9353 68.7052 47.927 69.4938 47.9298 70.2796C47.9298 70.4872 47.9298 70.6921 47.9325 70.8998C47.9325 71.0092 47.9325 71.1187 47.9325 71.2253C47.9325 71.3011 47.9325 71.3769 47.9409 71.4526C47.952 71.6014 47.9936 71.7277 48.0714 71.8539C48.1408 71.9662 48.2741 72.0251 48.4018 71.9914C48.5462 71.9522 48.6628 71.7782 48.6073 71.6266C48.5934 71.5901 48.5823 71.5565 48.574 71.52C48.5684 71.3825 48.5795 71.245 48.5823 71.1075C48.5823 71.0092 48.5851 70.911 48.5878 70.8128C48.5934 70.6163 48.5989 70.4227 48.6045 70.2263C48.6128 69.9849 48.6239 69.7436 48.6323 69.5022C48.6406 69.4994 48.6489 69.4966 48.6573 69.4938C48.6628 69.5555 48.6795 69.6145 48.71 69.6706C48.7628 69.7604 48.8489 69.8278 48.9488 69.8558C49.021 69.8755 49.0904 69.8755 49.1626 69.8558C49.1848 69.8502 49.2098 69.8418 49.232 69.8278C49.2376 69.954 49.2515 70.0803 49.2626 70.2038C49.2709 70.3217 49.3015 70.4227 49.3875 70.5069C49.4931 70.6163 49.6541 70.6584 49.7985 70.6163C49.8596 70.5995 49.9179 70.5742 49.9762 70.5434C50.054 70.5013 50.1012 70.4283 50.1511 70.3582C50.2261 70.2515 50.2456 70.0972 50.2594 69.9709C50.2705 69.867 50.2705 69.7632 50.2733 69.6594C50.2789 69.5078 50.3039 69.3535 50.3178 69.1991C50.3511 68.8175 50.3705 68.4358 50.3927 68.0541C50.3983 68.0541 50.4038 68.0569 50.4066 68.0597C50.4899 68.0822 50.5871 68.0794 50.6732 68.0485C50.7537 68.1271 50.8592 68.172 50.9731 68.172C51.0008 68.172 51.023 68.1636 51.048 68.158C51.0564 68.4077 51.0702 68.6575 51.0758 68.9073C51.0814 69.1486 51.0841 69.3872 51.0841 69.6285C51.0841 69.8951 51.0702 70.1785 51.1369 70.4395C51.1702 70.5742 51.2979 70.6697 51.434 70.6697C51.5617 70.6697 51.7089 70.5742 51.7311 70.4395C51.7728 70.2122 51.7839 69.9821 51.8005 69.7492C51.8144 69.5443 51.8255 69.3366 51.8311 69.129C51.8422 68.7389 51.8422 68.3488 51.8394 67.9587C51.8339 67.1365 51.8172 66.3114 51.7644 65.4919C51.7117 64.6584 51.6645 63.8249 51.6089 62.9915C51.5812 62.5733 51.5423 62.1552 51.5034 61.737C51.4673 61.3273 51.434 60.9176 51.3979 60.5106C51.3257 59.6379 51.2008 58.7735 51.0786 57.9063C51.0286 57.5471 50.9675 57.1851 50.9009 56.8287C50.9064 56.8175 50.912 56.8034 50.9203 56.7922C50.9758 56.8287 51.0314 56.8652 51.0869 56.9016C51.2369 56.9999 51.4479 56.9325 51.534 56.7838C51.5867 56.6912 51.5867 56.5901 51.5506 56.5031C53.0973 56.4723 54.6467 56.4414 56.1933 56.4133C56.1489 58.4508 56.1461 60.491 56.135 62.5312C56.1295 63.4938 56.1184 64.4536 56.11 65.4162C56.0989 66.4152 56.0906 67.4115 56.0628 68.4077C56.0517 68.8427 56.0267 69.2749 55.9962 69.7099C55.9823 69.9204 55.9656 70.1336 55.9462 70.3441C55.9379 70.4395 55.9295 70.535 55.9212 70.6304C55.9157 70.6809 55.9129 70.7286 55.9157 70.7791C55.9157 70.8437 55.9295 70.9054 55.9407 70.9671C55.9573 71.0541 56.0128 71.1131 56.0656 71.1804C56.1322 71.2674 56.2711 71.3095 56.3766 71.3095C56.4543 71.3095 56.5293 71.2899 56.5987 71.2478C56.6654 71.2085 56.7181 71.1552 56.757 71.0878C56.807 71.0233 56.8264 70.9306 56.8431 70.8521C56.8598 70.7791 56.8653 70.6921 56.8709 70.6135C56.8792 70.4929 56.8875 70.375 56.8931 70.2543C56.907 70.0214 56.9153 69.7885 56.9236 69.5555C56.9431 69.0756 56.9486 68.5986 56.9597 68.1187C56.9819 67.1365 57.0014 66.1542 57.0264 65.172C57.0763 63.1514 57.0874 61.128 57.1069 59.1075C57.1152 58.2038 57.1208 57.3002 57.1402 56.3965C57.2763 56.3965 57.4123 56.3909 57.5484 56.3881C60.7861 56.3292 64.0265 56.2702 67.2642 56.2141C71.0183 56.172 74.7725 56.1215 78.5266 56.0738C82.2697 56.0261 86.0155 55.9756 89.7586 55.9138C91.7078 55.8829 93.6571 55.8577 95.6064 55.8296C96.5532 55.8156 97.5001 55.7988 98.447 55.7819C98.8274 55.7735 99.205 55.7623 99.5854 55.7567C99.9131 55.751 100.246 55.7623 100.571 55.7286C100.571 55.7286 100.571 55.7286 100.568 55.7286C100.61 55.7286 100.649 55.723 100.688 55.7174C100.685 55.7174 100.682 55.7174 100.679 55.7174C101.004 55.6893 101.335 55.6893 101.66 55.6584C101.668 55.6584 101.674 55.6584 101.682 55.6584C101.749 55.65 101.818 55.6416 101.887 55.6304C102.018 55.5939 102.132 55.5265 102.226 55.4311C102.234 55.4227 102.243 55.4115 102.251 55.4002C102.279 55.4002 102.304 55.4002 102.332 55.3974C102.526 55.3806 102.718 55.3554 102.909 55.3217C102.998 55.2964 103.076 55.2515 103.14 55.1842C103.156 55.1673 103.17 55.1477 103.184 55.1308C103.351 55.0972 103.49 54.9456 103.484 54.766C103.484 54.752 103.484 54.7379 103.484 54.7239C103.664 54.693 103.831 54.5303 103.817 54.3338C103.812 54.244 103.803 54.1542 103.795 54.0644C103.923 53.9409 104.003 53.7669 104.003 53.5761C104.003 49.4395 104.02 45.3058 104.003 41.1692C103.987 37.0551 103.989 32.9381 103.998 28.824L103.989 28.8268ZM1.12504 25.0859C1.12782 24.7857 1.15281 24.4882 1.1778 24.1879C1.18335 24.129 1.1889 24.07 1.19446 24.0111C1.45269 24.042 1.71371 24.0756 1.97194 24.1093C1.96917 24.1795 1.96361 24.2496 1.96639 24.3198C1.96639 24.4657 1.96639 24.6089 1.97194 24.752C1.97194 24.8867 1.9775 25.0214 1.98027 25.1589C1.69705 25.1308 1.41104 25.1056 1.12781 25.0859H1.12504ZM2.00804 23.346C2.00526 23.3965 2.00249 23.447 1.99971 23.4975C1.7498 23.4667 1.4999 23.433 1.24721 23.4021C1.27776 23.0513 1.31663 22.7005 1.35273 22.3469C1.59708 22.3357 1.84144 22.3245 2.08857 22.3161C2.05802 22.6584 2.02748 23.0036 2.00526 23.346H2.00804ZM16.5887 16.8352C16.8219 15.578 17.0691 14.3235 17.3051 13.0663C17.3495 12.8362 17.394 12.6032 17.4384 12.3731C17.3995 12.3058 17.3717 12.2328 17.3523 12.157C17.3329 12.0841 17.3245 12.0083 17.3245 11.9325C17.3245 11.809 17.3606 11.6631 17.3828 11.5368C17.3995 11.4386 17.4189 11.3404 17.4412 11.2422C17.4412 11.2365 17.4439 11.2309 17.4439 11.2253C17.4717 11.1018 17.505 10.9784 17.5383 10.8549C17.5689 10.7454 17.6022 10.6332 17.6411 10.5265C17.6716 10.4339 17.7105 10.3413 17.7522 10.2543C17.7744 10.2234 17.7966 10.1926 17.8188 10.1617C17.8688 9.83056 17.9188 9.4966 17.966 9.16264C18.1409 7.91101 18.2908 6.65376 18.4325 5.39651C18.4963 4.82962 18.5657 4.26554 18.6379 3.70147C18.7046 3.24684 18.7795 2.7894 18.8767 2.34038C18.9573 1.96713 19.0461 1.59389 19.1128 1.21784C19.5431 1.41709 19.9735 1.61634 20.4039 1.8212C20.3484 1.92785 20.329 2.05413 20.3678 2.17481C20.565 2.79782 20.7621 3.42364 20.9704 4.04384C21.162 4.61073 21.3841 5.16919 21.6313 5.71082C21.6729 5.78098 21.7284 5.83711 21.7979 5.8792C21.9034 5.94094 22.0339 5.95778 22.1533 5.92691C22.2671 5.89604 22.3671 5.81746 22.4282 5.71363C22.4837 5.61821 22.5198 5.46386 22.4754 5.35441C22.0644 4.36938 21.759 3.34506 21.4424 2.32635C21.7396 2.46947 22.0367 2.6126 22.3366 2.75011C22.356 2.75853 22.3754 2.76695 22.3976 2.77537C22.4004 2.8343 22.4032 2.89323 22.4087 2.94936C22.4226 3.15703 22.4393 3.3647 22.4643 3.57237C22.5032 3.90072 22.5393 4.22906 22.592 4.55741C22.6364 4.82401 22.692 5.09342 22.7781 5.3488C22.803 5.42176 22.828 5.49473 22.853 5.5677C22.8919 5.68276 22.9447 5.79501 22.9946 5.90727C23.0252 5.96059 23.0668 6.00268 23.1196 6.03355C23.2001 6.08126 23.3001 6.09529 23.3889 6.07003C23.4778 6.04478 23.5528 5.98584 23.5972 5.90727C23.6416 5.83149 23.6638 5.71924 23.6333 5.63505C23.4861 5.23374 23.3917 4.8212 23.3334 4.40025C23.2806 3.9793 23.2362 3.55553 23.2029 3.13177C23.3278 3.1851 23.4528 3.23561 23.5778 3.28612C23.736 4.03542 23.8943 4.78753 24.1664 5.50034C24.1997 5.58734 24.2414 5.6575 24.3247 5.70801C24.4052 5.75572 24.4996 5.76695 24.5885 5.74169C24.7579 5.69398 24.8912 5.49192 24.8273 5.31512C24.6857 4.91943 24.5829 4.51812 24.4885 4.10839C24.4496 3.94001 24.4136 3.77162 24.3775 3.60324C24.5552 3.66779 24.7357 3.73234 24.9134 3.79688C24.9911 4.12803 25.0661 4.45918 25.1466 4.79033C25.1772 4.91943 25.3215 4.9952 25.4465 4.96152C25.5798 4.92504 25.6436 4.79033 25.6159 4.65843C25.5659 4.43393 25.5159 4.20942 25.4659 3.9821C25.6631 4.04665 25.8602 4.10558 26.0602 4.1589C26.1379 4.38622 26.2157 4.61073 26.2906 4.83804C26.3295 4.94749 26.435 5.02046 26.5516 4.98959C26.6599 4.95872 26.7321 4.83804 26.6988 4.72579C26.6544 4.57705 26.6072 4.43112 26.5627 4.28519C26.6849 4.31325 26.8071 4.34132 26.9293 4.36657C26.9376 4.42551 26.9432 4.48163 26.9515 4.54057C26.9904 4.80717 27.0515 5.06536 27.1236 5.32354C27.1931 5.57611 27.4596 5.73327 27.7123 5.66031C27.8317 5.62663 27.9345 5.54524 27.9983 5.4386C28.0677 5.31793 28.0705 5.19726 28.0455 5.06536C28.0233 4.94188 28.0039 4.8184 27.9844 4.69492C27.9789 4.65843 27.9789 4.61915 27.9733 4.57986C28.0566 4.59669 28.1427 4.61353 28.226 4.63318C28.2621 4.6416 28.301 4.65002 28.3371 4.65843C28.3843 4.86611 28.4315 5.07658 28.4843 5.28145C28.5065 5.36844 28.6009 5.41896 28.6842 5.39651C28.7703 5.37406 28.8202 5.28145 28.798 5.19445C28.7591 5.04571 28.7286 4.89417 28.6925 4.74263C28.7231 4.75104 28.7536 4.75666 28.7841 4.76508C28.8841 4.92785 29.059 5.03729 29.259 5.03729C29.3728 5.03729 29.4783 5.00081 29.5672 4.94188C29.6283 4.9531 29.6921 4.96994 29.7532 4.98117C29.9976 5.02887 30.2475 5.0401 30.4974 5.03729C30.5696 5.03729 30.639 5.02046 30.7029 4.9952C30.5946 5.22251 30.5029 5.46105 30.4169 5.69679C30.328 5.94375 30.253 6.19632 30.1753 6.44889C30.0837 6.74917 30.0226 7.05507 29.9754 7.36657C29.5727 7.49567 29.1701 7.61634 28.7647 7.73701C28.4509 7.83243 28.1344 7.9082 27.8151 7.98678C27.1348 8.14955 26.4489 8.27583 25.763 8.40773C25.1022 8.53683 24.4524 8.69398 23.8082 8.8792C23.4944 8.96901 23.1862 9.08126 22.878 9.19351C22.4782 9.33664 22.1033 9.52467 21.759 9.77443C21.7201 9.8025 21.6812 9.83337 21.6479 9.86423C21.634 9.87265 21.6174 9.87546 21.6035 9.88388C21.4952 9.94843 21.3702 10.0803 21.3536 10.215C21.3147 10.4957 21.2731 10.7763 21.2342 11.0569C21.1925 11.0569 21.1509 11.0569 21.1092 11.0569C21.1786 11.346 21.112 11.6519 21.0592 11.9466C21.0454 12.0223 21.0315 12.0953 21.0148 12.1711C21.0343 12.1711 21.0509 12.1711 21.0704 12.1711C20.9926 12.6818 20.9149 13.1926 20.8288 13.7033C20.6455 14.7557 20.4539 15.8081 20.2512 16.8577C20.0485 17.896 19.8486 18.9344 19.6487 19.9756C19.5459 20.5031 19.4376 21.0335 19.3654 21.564C19.2905 22.1224 19.2183 22.6809 19.1461 23.2365C19.1155 23.4695 19.085 23.6996 19.0544 23.9325C19.06 23.8876 19.0656 23.8455 19.0711 23.8006C18.9767 24.491 18.8573 25.1729 18.7296 25.8577C18.6935 26.0541 18.6546 26.2478 18.6129 26.4414C18.2492 26.5031 17.8882 26.5649 17.5245 26.6182C16.9108 26.694 16.2944 26.7669 15.6752 26.7754C15.4058 26.7782 15.1365 26.7838 14.8671 26.781C14.9837 25.9699 15.1031 25.1617 15.242 24.3535C15.4697 23.0373 15.7085 21.7211 15.9389 20.4049C16.1472 19.2122 16.3666 18.0223 16.5859 16.8352H16.5887ZM4.97915 21.1654C5.0208 20.621 5.07078 20.0794 5.11521 19.5378C5.16242 18.9765 5.19574 18.4124 5.24572 17.8483C5.29848 17.2814 5.35401 16.7174 5.42065 16.1505C5.43731 16.0158 5.45397 15.8839 5.47064 15.752C5.55394 15.1879 5.64557 14.6266 5.74276 14.0654C5.75664 14.1467 5.77052 14.2281 5.78441 14.3095C5.8566 14.7361 5.92602 15.1655 6.00377 15.592C6.08152 16.0214 6.1787 16.448 6.27589 16.8773C6.36475 17.2814 6.45915 17.6856 6.54246 18.0897C6.63131 18.5106 6.71184 18.9344 6.80347 19.3582C6.98673 20.2169 7.16722 21.0756 7.30051 21.9428C7.31439 22.0242 7.32272 22.1056 7.3366 22.1842C7.35604 22.3413 7.36993 22.4985 7.38659 22.6528C7.3255 22.664 7.26441 22.6865 7.21998 22.7342C7.21443 22.7398 7.20887 22.7482 7.20332 22.7539C7.13668 22.4171 7.07004 22.0831 6.99784 21.7492C6.94786 21.5247 6.72572 21.3787 6.50636 21.3787C6.46471 21.3787 6.42028 21.3843 6.38141 21.3956C6.25645 21.4292 6.14816 21.5162 6.08152 21.6285C6.07319 21.6397 6.07041 21.6538 6.06486 21.665C6.0593 21.6566 6.05097 21.6481 6.04264 21.6425C6.04264 21.5864 6.03709 21.5303 6.03709 21.4713C6.02876 21.2412 5.85383 21.0476 5.6178 21.0476C5.39566 21.0476 5.19018 21.2412 5.19851 21.4713C5.19851 21.505 5.19851 21.5415 5.20129 21.5752C5.11521 21.5752 5.03191 21.5808 4.94583 21.5836C4.95694 21.4461 4.96527 21.3058 4.9736 21.1683L4.97915 21.1654ZM4.06283 18.2945C4.0545 18.3984 4.04617 18.505 4.03784 18.6089C4.03228 18.6089 4.02951 18.6089 4.02395 18.6089C4.03784 18.505 4.04894 18.4012 4.06283 18.2973V18.2945ZM3.77127 20.8483C3.80182 20.4751 3.84347 20.1018 3.88789 19.7286C3.90178 19.7286 3.91844 19.7342 3.93232 19.7342C3.94065 19.7342 3.94621 19.7342 3.95454 19.7342C3.92677 20.071 3.899 20.4077 3.87401 20.7445C3.8518 21.0307 3.83791 21.317 3.82403 21.606C3.79626 21.606 3.76849 21.606 3.73795 21.606C3.7324 21.606 3.72684 21.606 3.72129 21.606C3.73517 21.3535 3.74906 21.1037 3.76849 20.8511L3.77127 20.8483ZM4.69037 25.1393C4.63484 24.9316 4.44046 24.7828 4.22943 24.7828C4.0184 24.7828 3.82125 24.9316 3.76849 25.1393C3.74906 25.2122 3.73795 25.288 3.72684 25.3666C3.68242 25.361 3.63521 25.3525 3.59078 25.3469C3.19371 25.2936 2.79386 25.2487 2.39401 25.2066C2.38568 24.9176 2.3829 24.6313 2.38012 24.3422C2.38012 24.2833 2.38012 24.2244 2.38568 24.1626C2.6578 24.1963 2.92714 24.23 3.19926 24.2637C3.27423 24.2749 3.36309 24.2244 3.41307 24.1739C3.47138 24.1177 3.50193 24.0364 3.50193 23.9578C3.50193 23.8792 3.46861 23.7978 3.41307 23.7389C3.39363 23.722 3.37142 23.708 3.35198 23.6912C3.30478 23.6631 3.25202 23.6491 3.19926 23.6491C2.93825 23.6154 2.67446 23.5817 2.41067 23.548C2.419 23.3797 2.43011 23.2141 2.44121 23.0457C2.46065 22.7988 2.48009 22.5546 2.49952 22.3076C2.49952 22.302 2.49952 22.2992 2.49952 22.2936C2.72444 22.2852 2.94658 22.274 3.1715 22.2655C3.16872 22.4171 3.16872 22.5686 3.1715 22.7202C3.1715 22.8577 3.28256 22.9727 3.4214 22.9727C3.56024 22.9727 3.66298 22.8577 3.67131 22.7202C3.68242 22.563 3.68797 22.4059 3.69352 22.2487C3.7324 22.2487 3.77127 22.2487 3.80737 22.2459C3.80737 22.2712 3.80737 22.2936 3.80737 22.3189C3.81015 22.5518 3.8518 22.7847 3.899 23.012C3.94343 23.2197 4.15724 23.3656 4.35994 23.3656C4.44602 23.3656 4.52654 23.3432 4.60152 23.3011C4.6987 23.245 4.80144 23.1299 4.82088 23.012C4.85142 22.8128 4.88197 22.6135 4.89863 22.4115C4.90418 22.3441 4.90696 22.274 4.91251 22.2066C5.01803 22.2038 5.12632 22.1982 5.23184 22.1954C5.25127 22.7314 5.27071 23.2674 5.29292 23.8034C5.30403 24.1121 5.32347 24.418 5.33735 24.7267C5.35123 25.0074 5.3679 25.2908 5.40677 25.5686C5.40677 25.5546 5.40399 25.5434 5.40122 25.5321C5.40399 25.5602 5.40955 25.5855 5.41232 25.6135C5.19296 25.5799 4.97082 25.549 4.74868 25.5153C4.74035 25.389 4.72369 25.2627 4.69315 25.1421L4.69037 25.1393ZM8.01968 41.3263C8.00302 41.8062 7.98914 42.2861 7.96692 42.766C7.94471 43.2066 7.91417 43.6444 7.89473 44.085C7.85308 45.0195 7.80587 45.954 7.76977 46.8886C7.76422 47.0373 7.76145 47.1832 7.75867 47.332C7.71979 47.3179 7.67814 47.3095 7.63372 47.3095C7.59762 47.3095 7.56152 47.3151 7.52542 47.3235C7.30051 47.3853 7.17833 47.621 7.23386 47.8427C7.34216 48.2861 7.41158 48.7351 7.47822 49.187C7.63927 51.0756 7.67814 52.9727 7.75589 54.8642C7.64482 54.7857 7.53653 54.7071 7.42546 54.6313C7.22553 54.4966 7.02283 54.3619 6.82013 54.2272C6.45082 53.983 6.07874 53.7417 5.70388 53.5088C5.51784 53.3937 5.32902 53.2843 5.13743 53.1748C5.01803 53.1046 4.89307 53.0401 4.7709 52.9784C4.78478 52.9278 4.79589 52.8773 4.79589 52.824C4.79589 50.9774 4.80977 49.1308 4.8181 47.2843C4.82643 45.5275 4.83754 43.7707 4.85142 42.0139C4.86531 40.3329 4.87641 38.6547 4.8903 36.9765C4.90418 35.3039 4.88197 33.6285 4.87086 31.9559C4.86253 30.7548 4.83198 29.5537 4.80977 28.3497C4.79866 27.8306 4.78756 27.3114 4.77923 26.7922C4.77923 26.6968 4.77645 26.5986 4.77367 26.5031C4.98748 26.5396 5.20407 26.5733 5.41788 26.6042C5.5817 26.6266 5.74276 26.6463 5.90658 26.6575C6.08152 26.6687 6.25368 26.6687 6.42861 26.6631C6.62576 26.6575 6.80347 26.5284 6.85623 26.3348C6.88677 26.2197 6.87289 26.0934 6.8118 25.9896C6.75904 25.8998 6.65353 25.7987 6.54523 25.7847C6.43139 25.7679 6.32032 25.751 6.20647 25.7314C6.18981 25.448 6.1787 25.1673 6.1676 24.8839C6.15371 24.5471 6.14261 24.2104 6.12872 23.8736C6.10651 23.3095 6.08707 22.7426 6.06486 22.1785C6.19536 22.7903 6.31754 23.3993 6.43694 24.0139C6.54801 24.5836 6.67296 25.1505 6.83679 25.7061C6.90621 25.9391 7.14501 26.0822 7.38103 26.0176C7.39769 26.012 7.41435 26.0064 7.43101 25.998C7.47266 26.5424 7.51432 27.0869 7.53098 27.6341C7.55319 28.4002 7.56707 29.1636 7.56707 29.9297C7.56707 30.6902 7.5643 31.4508 7.56152 32.2085C7.56152 32.5845 7.56152 32.9634 7.56152 33.3394C7.56152 33.693 7.56152 34.0466 7.5754 34.3974C7.60317 35.1692 7.63927 35.9409 7.68647 36.7099C7.70869 37.0803 7.73368 37.448 7.76422 37.8156C7.79199 38.1664 7.82809 38.5172 7.86141 38.8708C7.93083 39.5836 7.99191 40.2964 8.03357 41.012C8.03079 41.1159 8.02524 41.2197 8.02246 41.3235L8.01968 41.3263ZM12.6291 55.6528C11.7711 55.6697 10.9103 55.6865 10.0523 55.6949C9.74959 55.6949 9.44693 55.6949 9.14426 55.7005C9.10261 55.7005 9.06374 55.7005 9.02209 55.7005C9.03597 55.4143 9.05263 55.128 9.06651 54.839C9.10261 54.1037 9.12482 53.3684 9.11927 52.6332C9.11094 51.1626 9.06651 49.6949 9.03042 48.2244C9.01098 47.4667 8.99432 46.709 8.98043 45.9484C8.96655 45.1963 8.94156 44.4442 8.90269 43.6921C8.86659 42.9905 8.81661 42.2889 8.78051 41.5873C8.76385 41.2983 8.74719 41.0092 8.73053 40.7202C8.75552 40.3217 8.78329 39.9232 8.80828 39.5247C8.83604 39.0588 8.8527 38.5901 8.86103 38.1215C8.88047 37.1926 8.89713 36.2637 8.88602 35.332C8.87492 34.4143 8.8527 33.4966 8.83327 32.5789C8.81938 31.9391 8.79995 31.2992 8.78051 30.6622C8.78606 30.2272 8.78884 29.795 8.79162 29.36C8.79162 28.1926 8.80272 27.0223 8.8055 25.8549C8.8055 25.1533 8.81105 24.4517 8.8055 23.7501C8.80272 23.419 8.79717 23.085 8.79162 22.751C8.79162 22.5799 8.78606 22.4087 8.78329 22.2375C8.78051 22.0635 8.78884 21.8755 8.69443 21.7211C8.59447 21.5583 8.42509 21.4545 8.23349 21.4545C8.21961 21.4545 8.2085 21.4601 8.19462 21.4601C8.18351 21.3787 8.17796 21.2973 8.16685 21.2188C8.03912 20.2646 7.89751 19.3104 7.74478 18.3591C7.66704 17.882 7.5754 17.4049 7.48377 16.9278C7.40047 16.4844 7.30884 16.0438 7.2061 15.606C7.04782 14.9269 6.89233 14.2478 6.7396 13.5658C6.72017 13.4452 6.70073 13.3217 6.67852 13.201C6.6202 12.8558 6.55912 12.5106 6.49803 12.1655C6.85345 12.2216 7.20887 12.2749 7.56707 12.3254C7.54486 12.3759 7.53375 12.4292 7.53931 12.4798C7.57818 12.7941 7.6115 13.1112 7.66704 13.4227C7.71702 13.6977 7.77255 13.9727 7.82531 14.2478C7.91972 14.7557 8.01135 15.2637 8.11131 15.7688C8.16407 16.0354 8.21683 16.302 8.26681 16.5686C8.31124 16.8128 8.34456 17.0597 8.38343 17.3039C8.46396 17.8315 8.54726 18.3563 8.64167 18.8811C8.71942 19.3161 8.78884 19.7539 8.86659 20.1888C8.95267 20.6603 9.04152 21.1318 9.13038 21.6004C9.29421 22.4732 9.45803 23.3488 9.57743 24.23C9.64408 24.7379 9.71072 25.2487 9.77736 25.7567C9.84955 26.3123 9.90786 26.8708 9.98006 27.4292C10.055 27.9877 10.1494 28.5434 10.2411 29.099C10.3244 29.6182 10.3993 30.1374 10.4715 30.6594C10.4854 30.7604 10.4993 30.8614 10.5132 30.9625C10.5798 31.4732 10.6465 31.9868 10.6715 32.5031C10.677 32.6519 10.6798 32.7978 10.6854 32.9466C10.6854 33.0307 10.6854 33.1149 10.6854 33.1991C10.6631 34.1645 10.6409 35.1271 10.627 36.0925C10.6159 37.0242 10.6159 37.9559 10.6076 38.8848C10.5993 39.7997 10.5576 40.7146 10.5215 41.6266C10.5215 41.635 10.5215 41.6435 10.5215 41.6547C10.466 42.3843 10.4049 43.114 10.3438 43.8465C10.2522 44.955 10.1605 46.0635 10.0689 47.172C9.98284 48.216 9.844 49.2543 9.83845 50.3011C9.83845 50.4863 9.83845 50.6687 9.85233 50.8539C9.86621 51.0672 9.90509 51.2777 9.96062 51.4798C9.96062 51.4966 9.96062 51.5134 9.96062 51.5331C9.96618 51.6818 9.97728 51.8306 10.0051 51.9793C10.0439 52.1785 10.1605 52.3497 10.2966 52.4985C10.4105 52.622 10.5632 52.7174 10.7131 52.7903C10.8408 52.8521 10.9797 52.8942 11.1157 52.9335C11.2463 52.9727 11.3823 53.0064 11.5156 53.0401C11.71 53.1299 11.9043 53.2225 12.0821 53.3404C12.1431 53.3937 12.1987 53.4498 12.2514 53.5116C12.3569 53.6659 12.4375 53.8259 12.5152 53.9943C12.6513 54.3731 12.7512 54.7576 12.8429 55.1505C12.8818 55.3161 12.9151 55.4816 12.9512 55.6472C12.8484 55.6472 12.7457 55.65 12.643 55.6528H12.6291ZM9.09428 16.1168C9.25255 16.737 9.39694 17.36 9.53856 17.983C9.6885 18.6397 9.81346 19.302 9.91619 19.9699C10.0189 20.635 10.1189 21.303 10.2133 21.9709C10.2355 22.1393 10.2494 22.3048 10.2688 22.4732C10.155 21.9119 10.0356 21.3507 9.91897 20.7894C9.70239 19.7314 9.50801 18.6678 9.33586 17.6014C9.25533 17.1046 9.18591 16.6079 9.0915 16.114L9.09428 16.1168ZM49.1432 61.0214C49.1432 61.0214 49.1265 61.0242 49.1182 61.027C49.0793 61.0438 49.0405 61.0551 49.0044 61.0775C49.0071 61.013 49.0127 60.9456 49.0155 60.8811C49.0543 60.9035 49.0988 60.9204 49.1432 60.926C49.1432 60.9568 49.1432 60.9905 49.1432 61.0214ZM50.0651 56.983C50.0262 56.8988 49.9346 56.8371 49.8485 56.8062C49.9179 56.7866 49.9818 56.7529 50.029 56.6968C50.029 56.7052 50.0317 56.7136 50.0345 56.722C50.0512 56.8231 50.0678 56.9213 50.0845 57.0223C50.079 57.0083 50.0706 56.9943 50.0651 56.983ZM102.046 54.2075C101.932 54.1402 101.799 54.0981 101.674 54.1065C101.576 54.0953 101.479 54.0981 101.382 54.0981C101.301 54.0981 101.218 54.1009 101.138 54.0981C101.057 54.0925 100.979 54.0925 100.899 54.0925C100.874 54.0925 100.849 54.0925 100.824 54.0925C100.735 54.0925 100.649 54.0841 100.56 54.0813C100.571 54.0813 100.58 54.0813 100.591 54.0869C100.532 54.0785 100.474 54.0756 100.413 54.0756C100.382 54.0756 100.349 54.0756 100.318 54.0756C100.105 54.1093 99.8853 54.1121 99.6687 54.0897C99.566 54.0785 99.4633 54.0616 99.3633 54.042C99.205 54.0083 99.044 53.9718 98.8913 53.9185C98.8607 53.9073 98.8329 53.8988 98.8024 53.8876C98.7968 53.9578 98.7941 54.0307 98.7885 54.1009C98.1804 54.1093 97.5751 54.1205 96.967 54.1346C95.5231 54.1626 94.0764 54.1963 92.6325 54.23C89.7447 54.2945 86.8541 54.3479 83.9663 54.4124C78.4017 54.5359 72.8399 54.6734 67.2753 54.8109C66.9615 54.8165 66.645 54.8221 66.3312 54.8278C60.439 54.9344 54.5467 55.0466 48.6545 55.1393C48.574 55.0551 48.4601 55.0017 48.3379 55.0017C48.2158 55.0017 48.0936 55.0607 48.0103 55.1505C42.1569 55.2431 36.3008 55.3385 30.4474 55.4115C28.3149 55.4367 26.1851 55.4704 24.0526 55.5041C21.9895 55.5378 19.9291 55.5602 17.8688 55.5827C16.6026 55.5967 15.3392 55.6135 14.073 55.6332C14.073 55.5939 14.0674 55.5546 14.0646 55.5153C14.0563 55.4199 14.0508 55.3273 14.0452 55.2319C14.0369 55.0663 14.0285 54.9007 14.0174 54.7351C14.0036 54.5415 13.9869 54.3451 13.9564 54.1542C13.9425 54.0616 13.9258 53.969 13.9064 53.8764C13.873 53.7024 13.8036 53.5368 13.737 53.3741C13.6509 53.1748 13.5093 53.0008 13.3538 52.8521C13.1539 52.6612 12.9067 52.5434 12.6485 52.4592C12.5485 52.4255 12.443 52.4059 12.3375 52.3834C12.2098 52.3104 12.0793 52.2487 11.9488 52.187C11.7822 52.1084 11.6072 52.041 11.4378 51.9737C11.3629 51.9372 11.2907 51.8979 11.2213 51.8502C11.1796 51.8109 11.1407 51.7716 11.1019 51.7295C11.0547 51.6594 11.0158 51.5864 10.9797 51.5078C10.9214 51.3479 10.8769 51.1879 10.8464 51.0195C10.8159 50.7192 10.827 50.4077 10.8464 50.1075C10.8603 49.8296 10.8797 49.5518 10.9075 49.274C10.9575 48.7351 11.0269 48.1991 11.0908 47.6603C11.1491 47.158 11.1879 46.6528 11.2351 46.1505C11.2879 45.578 11.3434 45.0055 11.399 44.4358C11.5045 43.3525 11.6294 42.2721 11.7239 41.186C11.8183 40.1168 11.8405 39.0476 11.846 37.9756C11.8488 36.9091 11.8377 35.8427 11.8294 34.7763C11.8266 34.2431 11.8294 33.7071 11.8127 33.1739C11.8044 32.8904 11.7933 32.607 11.7711 32.3235C11.7488 32.0261 11.7127 31.7314 11.6739 31.4339C11.5989 30.8586 11.51 30.2889 11.4184 29.7164C11.4184 29.5537 11.4129 29.3937 11.4129 29.2309C11.4018 28.3189 11.399 27.4096 11.3601 26.4975C11.3184 25.5209 11.2574 24.5443 11.1768 23.5677C11.1407 23.1187 11.0935 22.6697 11.038 22.2234C10.9769 21.7323 10.9019 21.244 10.8242 20.7557C10.752 20.2927 10.6826 19.8296 10.602 19.3694C10.5215 18.9007 10.4299 18.4377 10.3299 17.9718C10.2327 17.5228 10.1356 17.0766 10.03 16.6304C9.9273 16.1785 9.82456 15.7295 9.69683 15.2833C9.56633 14.8315 9.42194 14.3825 9.2831 13.9363C9.13315 13.4564 8.97766 12.9765 8.82216 12.4966C8.81105 12.4629 8.79995 12.4292 8.78884 12.3956C8.84715 12.3535 8.89435 12.2945 8.91379 12.2216C8.92212 12.1879 8.92212 12.157 8.91935 12.1234C11.1324 12.129 13.3482 12.143 15.5613 12.1486C15.7723 12.1486 15.9861 12.1486 16.1972 12.1486C16.1083 12.7015 16.0167 13.2571 15.9278 13.81C15.714 15.1121 15.5085 16.4171 15.3086 17.722C15.1226 18.9512 14.9365 20.1804 14.7477 21.4096C14.5506 22.6865 14.3395 23.9662 14.1591 25.2459C14.0869 25.751 14.0147 26.259 13.9425 26.7641C13.687 26.7613 13.4343 26.7557 13.1816 26.7529C12.929 26.7501 12.7179 26.969 12.7179 27.2216C12.7179 27.4096 12.829 27.5668 12.9873 27.6425C12.9845 27.6706 12.9789 27.7015 12.9789 27.7295C12.9762 27.7885 12.9762 27.8446 12.9762 27.9035C12.9762 28.0214 12.9762 28.1393 12.9762 28.2599C12.9762 28.4311 12.9845 28.5995 12.99 28.7707C13.0012 29.1552 13.0261 29.5396 13.0456 29.9213C13.0817 30.6313 13.1122 31.3385 13.1455 32.0485C13.1789 32.7613 13.2094 33.477 13.2622 34.1898C13.3177 34.925 13.3482 35.6603 13.3816 36.3956C13.3899 36.5527 13.3954 36.7127 13.4177 36.8699C13.4232 36.9119 13.4315 36.9568 13.4371 36.9989C13.3482 37.0214 13.2649 37.0607 13.1927 37.1336C13.0928 37.2347 13.0373 37.3722 13.0373 37.5153C13.0373 37.6584 13.0928 37.7959 13.1927 37.897C13.2872 37.9896 13.4371 38.0682 13.5704 38.0541C14.6894 37.9587 15.8084 37.8689 16.9302 37.7959C17.4495 37.7623 17.9715 37.7286 18.4908 37.709C18.9822 37.6893 19.471 37.6809 19.9624 37.6388C20.1929 37.6191 20.4234 37.5827 20.6538 37.549C20.7233 37.5293 20.7844 37.4929 20.8371 37.4423C20.9149 37.3638 20.9593 37.2571 20.9593 37.1477C20.9593 37.0382 20.9149 36.9288 20.8371 36.853C20.7538 36.7688 20.6566 36.7408 20.5456 36.7295C20.2707 36.7043 20.0013 36.6706 19.7264 36.6622C19.4821 36.6538 19.2377 36.651 18.9961 36.651C18.5019 36.651 18.0048 36.6622 17.5106 36.6874C16.4471 36.7379 15.3836 36.8249 14.3229 36.9147C14.2507 36.9204 14.1813 36.926 14.1091 36.9316C14.1035 36.7155 14.1091 36.4994 14.1091 36.2833C14.1091 35.9353 14.1091 35.5901 14.1035 35.2422C14.0896 34.5041 14.0563 33.7688 14.0091 33.0336C13.9619 32.3263 13.9064 31.6191 13.8481 30.9119C13.8009 30.3563 13.7481 29.7978 13.7037 29.2422C13.7148 29.2337 13.7287 29.2225 13.7398 29.2113C13.7814 29.1692 13.8231 29.0934 13.8147 29.0289C13.7842 28.7931 13.7509 28.5574 13.7203 28.3217C13.7064 28.2094 13.6926 28.0944 13.6759 27.9821C13.6648 27.8867 13.6537 27.7913 13.6398 27.6987C13.6981 27.6987 13.7536 27.6987 13.812 27.7015C13.7925 27.8334 13.7759 27.9625 13.7564 28.0944C13.737 28.2263 13.7342 28.3385 13.8036 28.4592C13.8647 28.5658 13.9675 28.6444 14.0841 28.6781C14.2063 28.7118 14.3368 28.6949 14.4451 28.6304C14.5395 28.5742 14.6422 28.462 14.6589 28.3469C14.6894 28.1364 14.72 27.926 14.7505 27.7127C15.4003 27.7155 16.05 27.7043 16.697 27.6453C17.2607 27.5948 17.8216 27.5247 18.3825 27.4517C18.3492 27.6032 18.3269 27.7576 18.3297 27.9176C18.3325 28.0972 18.4491 28.2543 18.6213 28.3048C18.8406 28.3666 19.0378 28.2319 19.11 28.0242C19.1877 27.7997 19.2349 27.564 19.2988 27.3366C19.4432 27.317 19.5904 27.3002 19.7347 27.2805C20.0874 27.2384 20.4373 27.1823 20.7871 27.1262C20.8593 27.1065 20.9204 27.0672 20.9759 27.0167C20.9565 27.07 20.9426 27.129 20.9399 27.1879C20.9149 28.2627 20.9121 29.3432 20.9371 30.418C20.9593 31.4844 20.9954 32.5509 21.0232 33.6145C21.0565 34.9166 21.087 36.2188 21.1231 37.5181C21.1314 37.7735 21.3286 37.984 21.5841 37.984C21.8395 37.984 22.0533 37.7707 22.045 37.5181C21.9811 35.2113 21.9339 32.9073 21.9228 30.6004C21.9228 30.0392 21.9228 29.4779 21.9284 28.9166C21.9339 28.3413 21.9478 27.7632 21.9145 27.1851C21.9062 27.0504 21.8673 26.9325 21.7701 26.8371C21.6785 26.7445 21.5535 26.694 21.4258 26.694C21.298 26.694 21.1786 26.7473 21.0926 26.8315C21.1092 26.781 21.1203 26.7305 21.1203 26.6771C21.1203 26.433 20.9176 26.2141 20.6733 26.2141C20.6705 26.2141 20.6677 26.2141 20.6622 26.2141C20.3651 26.2225 20.0707 26.2309 19.7764 26.259C19.707 26.2646 19.6376 26.2758 19.5709 26.2843C19.6681 25.8801 19.757 25.4732 19.843 25.0691C19.9513 24.5611 20.0319 24.0476 20.1179 23.534C20.2068 23.0092 20.2956 22.4816 20.3845 21.9568C20.5539 20.9437 20.8038 19.9447 21.0037 18.9372C21.2092 17.9101 21.4119 16.8829 21.5924 15.853C21.809 14.6266 22.0006 13.3974 22.1838 12.1683C22.8253 12.1683 23.4667 12.1711 24.1081 12.1739C26.957 12.1823 29.8088 12.1823 32.6577 12.1963C35.4705 12.2104 38.2834 12.2328 41.0962 12.2412C46.783 12.2553 52.4697 12.2833 58.1565 12.2861C63.7905 12.2889 69.4217 12.3142 75.0557 12.3226C77.2549 12.3254 79.4541 12.331 81.6533 12.331C82.6445 12.331 83.6358 12.3282 84.6271 12.3226C85.0686 12.3226 85.5101 12.3198 85.9489 12.317C86.3543 12.317 86.7597 12.2973 87.1651 12.2945C88.0814 12.2805 89.0005 12.2917 89.9196 12.2749C90.7832 12.2609 91.6467 12.2609 92.5103 12.2581C92.8685 12.2581 93.2239 12.2581 93.5821 12.2581C93.8015 12.2581 94.0209 12.2581 94.2402 12.2524C94.3985 12.2524 94.5595 12.244 94.7178 12.2468C95.0927 12.2553 95.4703 12.2468 95.8479 12.2328C95.9729 12.23 96.0979 12.2272 96.2228 12.2272C96.3339 12.2272 96.4561 12.2328 96.5643 12.2075H96.6171C96.6143 12.505 96.6088 12.8025 96.606 13.0972H96.6088C96.6782 13.0803 96.7504 13.0691 96.8254 13.0691C96.9836 13.0691 97.1308 13.1112 97.2696 13.1898C97.5251 13.3048 97.6473 13.6051 97.7833 13.8352C97.8777 13.998 97.9722 14.1608 98.0638 14.3235C98.0638 14.3235 98.0666 14.3292 98.0693 14.332C98.1471 14.4723 98.2248 14.6126 98.2998 14.7585C98.2943 14.6182 98.2915 14.4751 98.2831 14.3348C98.2776 14.2113 98.272 14.0878 98.2665 13.9671C98.4886 14.2955 98.7108 14.621 98.9301 14.9494C99.6188 15.9765 100.349 16.9784 100.915 18.0841C101.121 18.4826 101.315 18.8839 101.496 19.2936C101.71 19.8296 101.885 20.3825 102.035 20.9409C102.104 21.2328 102.171 21.5275 102.223 21.8221C102.293 22.2122 102.359 22.5995 102.423 22.9924C102.459 23.2225 102.493 23.4498 102.526 23.6799C102.565 23.9943 102.607 24.3114 102.632 24.6285C102.64 24.7211 102.645 24.8109 102.651 24.9007C102.651 25.8521 102.659 26.8006 102.659 27.752C102.662 29.7838 102.668 31.8184 102.67 33.8502C102.67 37.9559 102.645 42.0588 102.648 46.1645C102.648 48.6313 102.657 51.0981 102.657 53.5649C102.657 53.6687 102.682 53.7669 102.726 53.8568C102.729 53.9915 102.734 54.1262 102.737 54.2637C102.512 54.2244 102.284 54.2019 102.057 54.1935L102.046 54.2075Z" fill="#090F05"/>
<path d="M18.7568 31.0523C18.6457 30.9317 18.5097 30.825 18.3764 30.7296C18.368 30.724 18.3625 30.7184 18.3542 30.7156C18.3847 30.5416 18.282 30.3508 18.1376 30.2666C18.0765 30.2301 18.0071 30.2132 17.9377 30.2076C17.9626 30.0954 17.9543 29.9775 17.8932 29.8709C17.8099 29.7249 17.6489 29.6379 17.4878 29.6379C17.4101 29.6379 17.3323 29.6576 17.2601 29.7025C17.013 29.8568 16.7603 30.014 16.5243 30.188C16.4826 30.2048 16.441 30.2217 16.4021 30.2413C16.3299 30.2722 16.2688 30.3115 16.205 30.3564C16.0967 30.4321 16.0106 30.5191 15.9578 30.6342C15.8384 30.7436 15.7413 30.8727 15.6413 31.0046C15.5302 31.1534 15.4608 31.3274 15.3914 31.4986C15.2637 31.8185 15.2637 32.1805 15.3164 32.5145C15.3442 32.6913 15.3831 32.8568 15.4525 33.0252C15.5358 33.2217 15.6302 33.3957 15.7607 33.5668C15.9773 33.8475 16.2605 34.0776 16.5659 34.2516C16.9075 34.448 17.299 34.5631 17.6905 34.5491C17.8627 34.5435 18.0376 34.5042 18.1987 34.4452C18.4069 34.3667 18.5735 34.246 18.7457 34.1057C18.8956 33.9822 19.0122 33.811 19.1178 33.651C19.2261 33.4911 19.301 33.303 19.3566 33.1178C19.4093 32.9551 19.4204 32.7698 19.4232 32.5987C19.4288 32.405 19.3871 32.2001 19.3344 32.0121C19.2316 31.6445 19.0123 31.3246 18.7568 31.0467V31.0523ZM18.3347 32.7839C18.3208 32.8456 18.3042 32.9074 18.2847 32.9691C18.2431 33.0533 18.1987 33.1319 18.1459 33.2104C18.0959 33.2694 18.0432 33.3255 17.9849 33.376C17.9432 33.4041 17.9016 33.4293 17.8571 33.4518C17.8071 33.4686 17.7572 33.4827 17.7044 33.4939C17.6294 33.4995 17.5572 33.4995 17.485 33.4939C17.3823 33.4714 17.2823 33.4406 17.1852 33.4041C17.0352 33.3311 16.8964 33.2497 16.7603 33.1515C16.6715 33.0757 16.5882 32.9943 16.5104 32.9045C16.4493 32.8147 16.3966 32.7221 16.3494 32.6239C16.3077 32.5004 16.2772 32.3769 16.2549 32.2479C16.2494 32.1609 16.2466 32.0739 16.2522 31.9869C16.2688 31.8971 16.2938 31.8073 16.3216 31.7203C16.3577 31.6445 16.3966 31.5743 16.4438 31.5042C16.5743 31.5182 16.702 31.4873 16.8214 31.4256C16.8325 31.42 16.8408 31.4144 16.8519 31.4088C16.8575 31.4088 16.8631 31.4059 16.8658 31.4059C16.9075 31.4059 16.9491 31.4059 16.988 31.4059C17.0297 31.4144 17.0685 31.4312 17.1102 31.4424C16.9575 31.8269 16.8131 32.2114 16.6687 32.5987C16.6243 32.7137 16.6576 32.8653 16.7159 32.9691C16.777 33.0757 16.8797 33.1571 16.9991 33.1908C17.1213 33.2245 17.2546 33.2076 17.3656 33.1431C17.4795 33.0757 17.5378 32.9775 17.585 32.8568C17.7044 32.5341 17.821 32.2086 17.9404 31.883C18.0098 31.9476 18.0793 32.0121 18.1431 32.0851C18.1903 32.1552 18.2348 32.2282 18.2709 32.3068C18.2986 32.3882 18.3208 32.4724 18.3375 32.5566C18.3403 32.6351 18.3403 32.7137 18.3347 32.7923V32.7839Z" fill="#090F05"/>
<path d="M94.6424 24.8728C94.6424 24.8728 94.6368 24.8728 94.634 24.8728C94.2703 24.8924 93.9038 24.8981 93.5372 24.9093C93.0763 24.9205 92.6181 24.9261 92.1572 24.9402C91.1826 24.9654 90.2107 24.9935 89.2361 25.0215C87.1257 25.0833 85.0154 25.145 82.9023 25.2096C80.817 25.2741 78.7289 25.3302 76.6408 25.3892C74.436 25.4537 72.2285 25.5211 70.0238 25.5772C67.8635 25.6333 65.7032 25.7007 63.5429 25.7652C61.3715 25.8298 59.1973 25.8915 57.0259 25.9561C54.8156 26.0234 52.6053 26.0964 50.3978 26.1665C48.1625 26.2367 45.93 26.3097 43.6948 26.3798C37.5665 26.5763 31.441 26.7615 25.3127 26.9467C25.1739 26.9523 25.0601 27.059 25.0601 27.2021C25.0601 27.3452 25.1739 27.4631 25.3127 27.4575C29.7527 27.3228 34.1928 27.1768 38.6355 27.0477C43.0783 26.9186 47.5211 26.7895 51.9639 26.6576C54.1686 26.5903 56.3733 26.5314 58.5753 26.4584C60.7384 26.3882 62.9042 26.3181 65.0673 26.2507C66.1669 26.2171 67.2693 26.1806 68.3716 26.1469C69.4296 26.1132 70.4903 26.0739 71.5482 26.0374C73.7613 25.9617 75.9716 25.8971 78.1846 25.8242C81.0752 25.7287 83.9658 25.6361 86.8564 25.5463C88.2337 25.5042 89.6109 25.4621 90.9854 25.4144C91.6157 25.392 92.246 25.3751 92.8764 25.3471C93.2235 25.333 93.5705 25.319 93.9176 25.3078C94.1564 25.2994 94.3925 25.291 94.6313 25.2881C94.7423 25.2881 94.8367 25.1955 94.8367 25.0805C94.8367 24.9766 94.7479 24.8728 94.6424 24.8728Z" fill="#090F05"/>
</g>
<defs>
<clipPath id="clip0_356_17350">
<rect width="104" height="72" fill="white"/>
</clipPath>
</defs>
</svg>
