<svg width="20" height="20" viewBox="0 0 20 20" fill="none" xmlns="http://www.w3.org/2000/svg">
<path d="M17.6289 6.40991C17.7709 6.02087 18.2017 5.82067 18.5908 5.96265C18.9795 6.1048 19.1798 6.53473 19.0381 6.92358C18.4757 8.46486 17.5289 9.83008 16.2969 10.8972L17.2402 12.0173C17.5069 12.3342 17.4661 12.8072 17.1494 13.074C16.8326 13.3404 16.3595 13.2998 16.0928 12.9832L15.0879 11.7888C14.3672 12.238 13.5936 12.5877 12.7871 12.8318L13.2324 14.8376C13.322 15.2418 13.0671 15.6422 12.6631 15.7322C12.2588 15.822 11.8574 15.5672 11.7676 15.1628L11.3213 13.1531C10.8851 13.2136 10.4439 13.2468 10 13.2468C9.5559 13.2468 9.11404 13.2146 8.67773 13.1541L8.23242 15.1628C8.14257 15.5671 7.74124 15.822 7.33691 15.7322C6.9329 15.6422 6.67795 15.2418 6.76758 14.8376L7.21191 12.8328C6.40538 12.5886 5.63186 12.2381 4.91113 11.7888L3.90625 12.9832C3.63941 13.2996 3.16633 13.3406 2.84961 13.074C2.53306 12.8072 2.49321 12.3341 2.75977 12.0173L3.70117 10.8972C2.46984 9.83027 1.52514 8.46429 0.962891 6.92358C0.82096 6.53449 1.02107 6.10463 1.41016 5.96265C1.79916 5.82095 2.22915 6.02094 2.37109 6.40991C2.94198 7.97421 3.98031 9.32542 5.34473 10.28C6.7092 11.2345 8.33482 11.7468 10 11.7468C11.6652 11.7467 13.2908 11.2345 14.6553 10.28C16.0197 9.32543 17.058 7.97419 17.6289 6.40991Z" fill="#090F05" fill-opacity="0.5"/>
</svg>
