<svg width="32" height="32" viewBox="0 0 32 32" fill="none" xmlns="http://www.w3.org/2000/svg">
<g clip-path="url(#clip0_108_5662)">
<path d="M13.3625 31.8375C5.7625 30.4812 0 23.9188 0 16C0 7.2 7.2 0 16 0C24.8 0 32 7.2 32 16C32 23.9188 26.2375 30.4812 18.6375 31.8375L17.7563 31.1187H14.2375L13.3625 31.8375Z" fill="url(#paint0_linear_108_5662)"/>
<path d="M22.2375 20.4812L22.9562 15.9999H18.7188V12.8812C18.7188 11.5999 19.2 10.6437 21.1187 10.6437H23.2V6.5624C22.0813 6.3999 20.8 6.24365 19.6812 6.24365C16 6.24365 13.4438 8.48115 13.4438 12.4812V15.9999H9.44375V20.4812H13.4438V31.7624C14.325 31.9249 15.2062 31.9999 16.0812 31.9999C16.9625 31.9999 17.8438 31.9187 18.7188 31.7624V20.4812H22.2375Z" fill="white"/>
</g>
<defs>
<linearGradient id="paint0_linear_108_5662" x1="16.0001" y1="30.8864" x2="16.0001" y2="-0.00651106" gradientUnits="userSpaceOnUse">
<stop stop-color="#0062E0"/>
<stop offset="1" stop-color="#19AFFF"/>
</linearGradient>
<clipPath id="clip0_108_5662">
<rect width="32" height="32" fill="white"/>
</clipPath>
</defs>
</svg>
