<svg width="31" height="40" viewBox="0 0 31 40" fill="none" xmlns="http://www.w3.org/2000/svg">
<path d="M19.6759 11.4234C25.2622 4.96592 19.2068 0 19.2068 0C23.1042 6.11437 12.4939 3.228 9.90632 7.80891C6.90104 13.1291 7.70493 20.5745 4.89654 21.2923C2.08815 22.0102 2.43344 18.0434 2.43344 18.0434C-4.22701 31.202 4.89654 37.0149 4.89654 37.0149C7.29433 38.8603 10.5837 40 14.215 40C19.3674 40 23.8313 37.706 26.0341 34.3552C35.4716 22.6813 25.2987 8.13373 25.2987 8.13373C27.7355 18.5073 14.0895 17.8809 19.6759 11.4234Z" fill="#FF3A03"/>
<path d="M17.1457 29.6205C10.8003 28.5123 11.0537 17.9418 11.0537 17.9418C10.8264 20.0654 10.3261 22.8899 9.95716 25.0084C9.71835 26.3801 8.9861 28.8388 7.37222 29.2557C5.79002 29.6646 4.77169 28.1431 4.43029 26.8192C4.38132 26.6299 4.34647 26.4398 4.31796 26.2497C3.89006 27.3019 3.65588 28.4367 3.65588 29.6205C3.65588 35.0894 8.63617 39.5226 14.7795 39.5226C20.9229 39.5226 25.9032 35.0894 25.9032 29.6205C25.9032 28.406 25.6564 27.243 25.207 26.1679C25.2065 26.1679 23.1767 30.674 17.1457 29.6205Z" fill="#FBB700"/>
<path d="M20.9893 31.3546C19.7373 32.8201 17.8919 33.9018 15.9849 33.7063C14.3413 33.5379 13.3383 32.4821 12.5768 31.2106C12.3178 32.4338 11.8294 33.6405 10.718 34.0721C9.75501 34.4459 8.91456 34.0606 8.2771 33.3993C8.47789 36.438 11.3087 38.8472 14.7723 38.8472C18.3666 38.8472 21.2802 36.2535 21.2802 33.054C21.2802 32.4619 21.1747 31.8926 20.9893 31.3546Z" fill="#FFDFAB"/>
</svg>
