<svg width="32" height="32" viewBox="0 0 32 32" fill="none" xmlns="http://www.w3.org/2000/svg">
<path d="M26 1H6C3.79086 1 2 2.79086 2 5V27C2 29.2091 3.79086 31 6 31H26C28.2091 31 30 29.2091 30 27V5C30 2.79086 28.2091 1 26 1Z" fill="#DDEBFD"/>
<path d="M23.5 14.4579C23.3106 14.28 23.0594 14.1828 22.7995 14.1869C22.5397 14.191 22.2917 14.2961 22.108 14.4799L17.796 18.7929C17.6085 18.9804 17.5032 19.2347 17.5032 19.4999C17.5032 19.7651 17.6085 20.0194 17.796 20.2069L28.019 30.4329C28.62 30.0832 29.1191 29.5824 29.4666 28.9802C29.8141 28.3779 29.998 27.6952 30 26.9999V20.5669L23.5 14.4579Z" fill="#4071F7"/>
<path d="M19 14C20.6569 14 22 12.6569 22 11C22 9.34315 20.6569 8 19 8C17.3431 8 16 9.34315 16 11C16 12.6569 17.3431 14 19 14Z" fill="#5392F9"/>
<path d="M13.707 13.2931C13.5159 13.1124 13.263 13.0117 13 13.0117C12.737 13.0117 12.4841 13.1124 12.293 13.2931L2 23.5861V27.0001C2 28.0609 2.42143 29.0783 3.17157 29.8285C3.92172 30.5786 4.93913 31.0001 6 31.0001H26C26.6953 30.9981 27.378 30.8142 27.9803 30.4666C28.5825 30.1191 29.0833 29.6201 29.433 29.0191L13.707 13.2931Z" fill="#5392F9"/>
</svg>
