<svg width="20" height="20" viewBox="0 0 20 20" fill="none" xmlns="http://www.w3.org/2000/svg">
<path d="M10 10.8333V1.66663L16.6667 4.99996L10 8.33329" stroke="#8622FF" stroke-width="1.25" stroke-linecap="round" stroke-linejoin="round"/>
<path d="M17.1342 8.51832C17.5776 9.8851 17.6191 11.3505 17.2537 12.7402C16.8883 14.1299 16.1314 15.3853 15.073 16.3572C14.0146 17.3291 12.6993 17.9765 11.2835 18.2223C9.8678 18.4682 8.41124 18.3022 7.08714 17.7441C5.76304 17.1859 4.62714 16.2592 3.81458 15.0741C3.00202 13.889 2.54701 12.4954 2.50369 11.0591C2.46036 9.62282 2.83054 8.20433 3.57018 6.97239C4.30982 5.74045 5.38779 4.74691 6.67584 4.10999" stroke="#8622FF" stroke-width="1.25" stroke-linecap="round" stroke-linejoin="round"/>
<path d="M6.66833 8.33081C6.25075 8.88666 5.97889 9.53817 5.87753 10.226C5.77617 10.9138 5.84852 11.616 6.088 12.2687C6.32747 12.9214 6.72646 13.5038 7.2486 13.9628C7.77075 14.4218 8.39945 14.7429 9.07744 14.8968C9.75542 15.0507 10.4611 15.0324 11.1303 14.8438C11.7994 14.6551 12.4107 14.3021 12.9085 13.8167C13.4063 13.3314 13.7747 12.7292 13.9802 12.065C14.1857 11.4008 14.2217 10.6958 14.085 10.0141" stroke="#8622FF" stroke-width="1.25" stroke-linecap="round" stroke-linejoin="round"/>
</svg>
