<svg width="20" height="20" viewBox="0 0 20 20" fill="none" xmlns="http://www.w3.org/2000/svg">
<path d="M10 10.8334V1.66675L16.6667 5.00008L10 8.33342" stroke="#090F05" stroke-opacity="0.3" stroke-width="1.5" stroke-linecap="round" stroke-linejoin="round"/>
<path d="M17.1341 8.51844C17.5776 9.88522 17.6191 11.3506 17.2537 12.7403C16.8883 14.13 16.1313 15.3855 15.0729 16.3573C14.0146 17.3292 12.6992 17.9766 11.2835 18.2225C9.86777 18.4683 8.41121 18.3023 7.08711 17.7442C5.76301 17.1861 4.62711 16.2593 3.81455 15.0742C3.00199 13.8891 2.54698 12.4955 2.50366 11.0592C2.46033 9.62294 2.83051 8.20445 3.57015 6.97251C4.30979 5.74057 5.38776 4.74704 6.67581 4.11011" stroke="#090F05" stroke-opacity="0.3" stroke-width="1.5" stroke-linecap="round" stroke-linejoin="round"/>
<path d="M6.66833 8.33081C6.25075 8.88666 5.97889 9.53817 5.87753 10.226C5.77617 10.9138 5.84852 11.616 6.088 12.2687C6.32747 12.9214 6.72646 13.5038 7.2486 13.9628C7.77075 14.4218 8.39945 14.7429 9.07744 14.8968C9.75542 15.0507 10.4611 15.0324 11.1303 14.8438C11.7994 14.6551 12.4107 14.3021 12.9085 13.8167C13.4063 13.3314 13.7747 12.7292 13.9802 12.065C14.1857 11.4008 14.2217 10.6958 14.085 10.0141" stroke="#090F05" stroke-opacity="0.3" stroke-width="1.5" stroke-linecap="round" stroke-linejoin="round"/>
</svg>
