<svg width="20" height="21" viewBox="0 0 20 21" fill="none" xmlns="http://www.w3.org/2000/svg">
<g clip-path="url(#clip0_2007_1352)">
<path d="M6.93123 0.576098C4.49529 1.45219 2.41756 3.36885 1.26404 5.78549C0.860915 6.62057 0.569509 7.50815 0.396071 8.42567C-0.0461162 10.707 0.261696 13.1355 1.26404 15.2166C1.91365 16.5747 2.84881 17.7801 3.98006 18.721C5.04959 19.6147 6.29256 20.2734 7.61443 20.6438C9.27771 21.1143 11.0527 21.1024 12.7324 20.7025C14.25 20.3378 15.6836 19.5737 16.8258 18.4683C18.0351 17.2982 18.8976 15.7638 19.357 14.1117C19.8554 12.3066 19.9226 10.3838 19.609 8.53764C16.473 8.53764 13.3371 8.53764 10.1957 8.53764C10.1957 9.90182 10.1957 11.2717 10.1957 12.6359C12.0101 12.6359 13.8301 12.6359 15.6441 12.6359C15.4312 13.9472 14.6922 15.1407 13.6394 15.8815C12.9785 16.3458 12.2226 16.6518 11.4386 16.7929C10.6492 16.9339 9.83709 16.9516 9.0531 16.7871C8.25232 16.6226 7.4906 16.2695 6.82459 15.7757C5.76052 14.9935 4.94881 13.8414 4.53435 12.5535C4.10896 11.2422 4.1031 9.77836 4.53435 8.46709C4.83123 7.54383 5.32967 6.68538 5.98474 5.9918C6.79099 5.12145 7.83826 4.50416 8.96951 4.25151C9.93826 4.03413 10.9574 4.07514 11.9039 4.37497C12.7101 4.63377 13.4496 5.09233 14.0597 5.70387C14.6758 5.0628 15.2859 4.41639 15.9019 3.77532C16.2211 3.42832 16.5629 3.09897 16.8761 2.74049C15.9465 1.83487 14.8492 1.10602 13.6562 0.647465C11.5172 -0.194176 9.09256 -0.211812 6.93123 0.576098Z" fill="white"/>
<path d="M6.93135 0.575878C9.09267 -0.212032 11.5177 -0.194395 13.6677 0.640683C14.8603 1.09924 15.9524 1.8285 16.8876 2.73371C16.5739 3.08644 16.238 3.42154 15.9134 3.76853C15.2974 4.40961 14.6872 5.05601 14.0712 5.69709C13.4606 5.08555 12.7216 4.62125 11.9153 4.36818C10.9688 4.06836 9.94971 4.02734 8.98096 4.24473C7.84971 4.49738 6.80283 5.12082 5.99619 5.98502C5.34111 6.679 4.84268 7.53746 4.5458 8.46031C3.454 7.57232 2.36182 6.67859 1.27002 5.79101C2.41768 3.36863 4.49541 1.45197 6.93135 0.575878Z" fill="#E94435"/>
<path d="M0.396071 8.42509C0.569509 7.50798 0.866383 6.61999 1.26404 5.78491C2.35584 6.6729 3.44802 7.56663 4.53982 8.45421C4.10857 9.76548 4.11443 11.2293 4.53982 12.5406C3.44802 13.4286 2.35584 14.3223 1.26404 15.2099C0.261696 13.1407 -0.0461162 10.7064 0.396071 8.42509Z" fill="#F8BB15"/>
<path d="M10.1999 8.53125C13.3359 8.53125 16.4718 8.53125 19.6132 8.53125C19.9269 10.3774 19.8597 12.3002 19.3613 14.1053C18.9023 15.7574 18.0398 17.2979 16.83 18.462C15.7718 17.5978 14.7078 16.7331 13.655 15.8689C14.7078 15.1339 15.4468 13.9346 15.6597 12.6234C13.8453 12.6234 12.0253 12.6234 10.2113 12.6234C10.1945 11.2654 10.1999 9.90117 10.1999 8.53125Z" fill="#547DBE"/>
<path d="M1.26355 15.2159C2.35535 14.3279 3.44753 13.4342 4.53933 12.5466C4.95378 13.8403 5.7655 14.9866 6.82956 15.7688C7.49597 16.2626 8.2573 16.6096 9.05808 16.7803C9.84206 16.9447 10.6596 16.9271 11.4436 16.786C12.2276 16.6449 12.9835 16.3393 13.6444 15.8746C14.7026 16.7388 15.7667 17.6034 16.8194 18.4676C15.6772 19.5788 14.2436 20.3375 12.726 20.7018C11.0518 21.1017 9.27644 21.1132 7.60808 20.6431C6.2866 20.2727 5.04324 19.614 3.97371 18.7203C2.84832 17.7737 1.91316 16.5682 1.26355 15.2159Z" fill="#34A751"/>
</g>
<defs>
<clipPath id="clip0_2007_1352">
<rect width="20" height="21" fill="white"/>
</clipPath>
</defs>
</svg>
