<svg width="24" height="24" viewBox="0 0 24 24" fill="none" xmlns="http://www.w3.org/2000/svg">
<path d="M10 2.25C8.3786 2.25 7.0966 2.24923 6.07715 2.37012C5.03906 2.49324 4.18605 2.75049 3.45508 3.32617C2.95403 3.72087 2.52188 4.20822 2.17676 4.7627C1.6819 5.55792 1.46208 6.47849 1.35547 7.61621C1.2497 8.74506 1.25 10.1699 1.25 12C1.25 13.8301 1.2497 15.2549 1.35547 16.3838C1.46208 17.5215 1.68192 18.4421 2.17676 19.2373C2.52186 19.7917 2.95398 20.2791 3.45508 20.6738C4.18606 21.2495 5.03905 21.5068 6.07715 21.6299C7.0966 21.7508 8.3786 21.75 10 21.75H14C15.6214 21.75 16.9034 21.7508 17.9229 21.6299C18.961 21.5068 19.814 21.2495 20.5449 20.6738C21.046 20.2791 21.4782 19.7917 21.8232 19.2373C22.3181 18.4421 22.5379 17.5215 22.6445 16.3838C22.7503 15.2549 22.75 13.8301 22.75 12C22.75 10.1699 22.7503 8.74507 22.6445 7.61621C22.5379 6.4785 22.3181 5.55792 21.8232 4.7627C21.4781 4.2082 21.046 3.72087 20.5449 3.32617C19.814 2.75048 18.9609 2.49323 17.9229 2.37012C16.9034 2.24923 15.6214 2.25 14 2.25H10ZM14 3.75C15.6578 3.75 16.8354 3.75138 17.7461 3.85938C18.6379 3.96513 19.186 4.16523 19.6172 4.50488C19.976 4.78758 20.2928 5.14183 20.5498 5.55469C20.8686 6.06681 21.0545 6.72261 21.1514 7.75586C21.2491 8.79844 21.25 10.141 21.25 12C21.25 13.859 21.249 15.2016 21.1514 16.2441C21.0545 17.2774 20.8686 17.9331 20.5498 18.4453C20.2928 18.8582 19.976 19.2125 19.6172 19.4951C19.186 19.8348 18.638 20.0349 17.7461 20.1406C16.8354 20.2486 15.6578 20.25 14 20.25H10.25V3.75H14ZM8.75 20.2461C7.72159 20.2399 6.91701 20.2193 6.25391 20.1406C5.36205 20.0349 4.81402 19.8348 4.38281 19.4951C4.02404 19.2125 3.70723 18.8582 3.4502 18.4453C3.13145 17.9331 2.94547 17.2774 2.84863 16.2441C2.75095 15.2016 2.75 13.859 2.75 12C2.75 10.141 2.75095 8.79844 2.84863 7.75586C2.94548 6.72261 3.13145 6.06681 3.4502 5.55469C3.7072 5.14182 4.024 4.78757 4.38281 4.50488C4.81402 4.16523 5.36207 3.96514 6.25391 3.85938C6.91701 3.78074 7.72159 3.75914 8.75 3.75293V20.2461Z" fill="#090F05"/>
<path d="M6 7H5M6 10H5" stroke="#090F05" stroke-width="1.5" stroke-linecap="round" stroke-linejoin="round"/>
</svg>
