<svg width="20" height="20" viewBox="0 0 20 20" fill="none" xmlns="http://www.w3.org/2000/svg">
<g clip-path="url(#clip0_371_5041)">
<path d="M17.0408 17.0413H14.0775V12.4004C14.0775 11.2937 14.0577 9.86913 12.5362 9.86913C10.9928 9.86913 10.7566 11.0749 10.7566 12.3198V17.041H7.79324V7.49745H10.6381V8.80167H10.6779C11.258 7.80983 12.3366 7.21744 13.4848 7.26007C16.4883 7.26007 17.0421 9.23569 17.0421 11.8059L17.0408 17.0413ZM4.44957 6.19292C3.49982 6.19309 2.72975 5.42328 2.72958 4.47351C2.72941 3.52373 3.4992 2.75365 4.44895 2.75348C5.39871 2.75331 6.16877 3.52311 6.16894 4.47289C6.16903 4.92899 5.98792 5.36644 5.66548 5.68901C5.34303 6.01157 4.90566 6.19284 4.44957 6.19292ZM5.93126 17.0413H2.9648V7.49745H5.93126V17.0413ZM18.5182 0.00149131H1.4757C0.670237 -0.00759854 0.00970817 0.637609 -0.00012207 1.44308V18.5566C0.00937161 19.3625 0.669847 20.0083 1.4757 19.9999H18.5182C19.3256 20.0099 19.9887 19.3641 19.9999 18.5566V1.44185C19.9884 0.634783 19.3252 -0.0103876 18.5182 0.000126709" fill="#0A66C2"/>
</g>
<defs>
<clipPath id="clip0_371_5041">
<rect width="20" height="20" fill="white"/>
</clipPath>
</defs>
</svg>
