<svg width="20" height="20" viewBox="0 0 20 20" fill="none" xmlns="http://www.w3.org/2000/svg">
<path d="M11.6606 12.5H11.6666M8.33325 12.5H8.33925" stroke="#090F05" stroke-opacity="0.3" stroke-width="2" stroke-linecap="round" stroke-linejoin="round"/>
<path d="M10 0.916992C12.4853 0.916992 14.5 2.93171 14.5 5.41699V7.69629C15.7818 8.8974 16.5839 10.6049 16.584 12.5C16.5838 16.1356 13.6356 19.0838 10 19.084C6.36439 19.0838 3.41717 16.1356 3.41699 12.5C3.41708 10.6049 4.21835 8.8974 5.5 7.69629V5.41699C5.5 2.93171 7.51472 0.916992 10 0.916992ZM10 7.41699C7.19281 7.41717 4.91717 9.69281 4.91699 12.5C4.91717 15.3072 7.19281 17.5838 10 17.584C12.8072 17.5838 15.0838 15.3072 15.084 12.5C15.0838 9.69281 12.8072 7.41717 10 7.41699ZM10 2.41699C8.34315 2.41699 7 3.76014 7 5.41699V6.63965C7.8997 6.17815 8.91934 5.91704 10 5.91699C11.0807 5.91704 12.1002 6.17811 13 6.63965V5.41699C13 3.76014 11.6569 2.41699 10 2.41699Z" fill="#090F05" fill-opacity="0.3"/>
</svg>
