<svg width="20" height="20" viewBox="0 0 20 20" fill="none" xmlns="http://www.w3.org/2000/svg">
<path d="M5.83325 7.08325L8.28494 8.53275C9.71425 9.37784 10.2856 9.37784 11.7149 8.53275L14.1666 7.08325" stroke="#090F05" stroke-opacity="0.3" stroke-width="1.5" stroke-linecap="round" stroke-linejoin="round"/>
<path d="M1.67989 11.2298C1.73437 13.7844 1.7616 15.0617 2.70421 16.0079C3.64682 16.9541 4.95869 16.987 7.58244 17.0529C9.1995 17.0936 10.8007 17.0936 12.4178 17.0529C15.0415 16.987 16.3533 16.9541 17.2959 16.0079C18.2386 15.0617 18.2658 13.7844 18.3203 11.2298C18.3378 10.4084 18.3378 9.59177 18.3203 8.77044C18.2658 6.2158 18.2386 4.93849 17.2959 3.9923C16.3533 3.04611 15.0415 3.01315 12.4178 2.94722C10.8007 2.90659 9.1995 2.90659 7.58244 2.94722C4.95869 3.01313 3.64682 3.04609 2.70421 3.99229C1.7616 4.93848 1.73436 6.21579 1.67989 8.77036C1.66237 9.59177 1.66237 10.4084 1.67989 11.2298Z" stroke="#090F05" stroke-opacity="0.3" stroke-width="1.5" stroke-linejoin="round"/>
</svg>
