<svg width="24" height="24" viewBox="0 0 24 24" fill="none" xmlns="http://www.w3.org/2000/svg">
<path fill-rule="evenodd" clip-rule="evenodd" d="M8.03809 2.25195C8.52447 2.24434 8.97353 2.35538 9.45215 2.54004C9.93269 2.72544 10.4907 3.00309 11.1738 3.34277L14.5059 5C14.9475 5.21959 15.0676 5.27347 15.1836 5.30078C15.2993 5.32801 15.4302 5.33301 15.9219 5.33301H18C18.9211 5.33301 19.6893 5.33155 20.2969 5.41504C20.9275 5.50173 21.4955 5.69257 21.9502 6.15723C22.4027 6.61975 22.5861 7.19417 22.6699 7.83105C22.751 8.44796 22.75 9.22916 22.75 10.1719V16.9121C22.75 17.8548 22.7511 18.6361 22.6699 19.2529C22.5861 19.8896 22.4026 20.4634 21.9502 20.9258C21.4955 21.3905 20.9276 21.5813 20.2969 21.668C19.6893 21.7514 18.9211 21.75 18 21.75H15.9219C15.4962 21.75 15.1636 21.754 14.8398 21.6777C14.5167 21.6016 14.2205 21.45 13.8379 21.2598L10.0234 19.3633C9.06163 18.8851 8.73209 18.7314 8.40332 18.6865C7.6522 18.5839 7.04057 18.9436 6.09668 19.4912C5.46198 19.8594 4.93591 20.1654 4.50196 20.3613C4.07116 20.5558 3.60344 20.7032 3.11036 20.6152C2.57709 20.52 2.09755 20.2341 1.75782 19.8125C1.44642 19.426 1.34375 18.9476 1.29688 18.4717C1.24962 17.9916 1.25 17.3749 1.25 16.6279V8.46387C1.25 7.89771 1.24887 7.41979 1.28711 7.02539C1.32691 6.6152 1.41366 6.23655 1.62012 5.87402C1.82711 5.51069 2.10826 5.2448 2.44043 5.00488C2.75881 4.77498 3.16812 4.53896 3.64942 4.25977L4.87696 3.54688C5.53771 3.16357 6.07698 2.84992 6.54493 2.63379C6.99877 2.42418 7.42943 2.28602 7.90039 2.25684C7.93299 2.25251 7.96622 2.25 8 2.25C8.01279 2.25 8.02546 2.25132 8.03809 2.25195ZM15.75 20.2471C15.8019 20.2473 15.8589 20.25 15.9219 20.25H18C18.9645 20.25 19.6111 20.2488 20.0928 20.1826C20.5508 20.1196 20.7469 20.0108 20.8779 19.877C21.0112 19.7408 21.1209 19.5331 21.1836 19.0566C21.2488 18.5604 21.25 17.8961 21.25 16.9121V10.1719C21.25 9.18756 21.2489 8.52271 21.1836 8.02637C21.1209 7.54994 21.0112 7.34225 20.8779 7.20605C20.7469 7.0723 20.5506 6.96433 20.0928 6.90137C19.6111 6.83517 18.9645 6.83301 18 6.83301H15.9219C15.8629 6.83301 15.8057 6.83015 15.75 6.83008V20.2471ZM8.75 17.2256C9.32797 17.3352 9.88919 17.6216 10.6914 18.0205L14.25 19.7881V6.54102C14.1216 6.48122 13.9856 6.4162 13.8379 6.34277L10.5059 4.68652C9.79801 4.33457 9.31231 4.09386 8.91211 3.93945C8.85565 3.91767 8.8012 3.90039 8.75 3.88281V17.2256ZM7.17383 3.99609C6.78396 4.17618 6.31425 4.44773 5.62989 4.84473L4.40235 5.55664C3.89563 5.85058 3.56294 6.04483 3.31934 6.2207C3.08969 6.38654 2.98743 6.50286 2.92286 6.61621C2.85788 6.73038 2.80835 6.88062 2.78028 7.16992C2.75064 7.47535 2.75 7.86882 2.75 8.46387V16.6279C2.75 17.4066 2.75079 17.9352 2.78907 18.3242C2.82769 18.7165 2.89504 18.8328 2.92578 18.8711C3.04155 19.0147 3.20161 19.1079 3.37403 19.1387C3.41147 19.1453 3.53391 19.1521 3.88379 18.9941C4.23155 18.8371 4.68023 18.5783 5.34375 18.1934L6.00782 17.8115C6.38064 17.6082 6.79473 17.4137 7.25 17.293V3.96289C7.22533 3.97379 7.19964 3.98417 7.17383 3.99609Z" fill="#090F05" fill-opacity="0.7"/>
</svg>
