<svg width="20" height="20" viewBox="0 0 20 20" fill="none" xmlns="http://www.w3.org/2000/svg">
<path d="M12.5 1.875C14.6858 1.87518 16.4588 3.64713 16.459 5.83301C16.459 7.1533 15.8112 8.3217 14.8174 9.04102C16.7677 9.92418 18.125 11.8868 18.125 14.167C18.1248 14.512 17.8451 14.792 17.5 14.792C17.1549 14.792 16.8752 14.512 16.875 14.167C16.875 11.8264 15.037 9.91426 12.7256 9.79688L12.5 9.79199L12.2256 9.78223C11.9515 9.76338 11.685 9.71651 11.4287 9.64453C11.2935 10.7669 10.6888 11.7439 9.81641 12.375C11.767 13.258 13.125 15.2195 13.125 17.5C13.125 17.8452 12.8452 18.125 12.5 18.125C12.1548 18.125 11.875 17.8452 11.875 17.5C11.875 15.0838 9.91624 13.125 7.5 13.125C5.08375 13.125 3.125 15.0838 3.125 17.5C3.125 17.8452 2.84518 18.125 2.5 18.125C2.15482 18.125 1.875 17.8452 1.875 17.5C1.875 15.2199 3.23243 13.2582 5.18262 12.375C4.1888 11.6557 3.54199 10.4865 3.54199 9.16602C3.54234 6.9803 5.31424 5.20818 7.5 5.20801C7.87136 5.20804 8.23045 5.26079 8.57129 5.35645C8.80685 3.39535 10.4755 1.87516 12.5 1.875ZM7.5 6.45801C6.00459 6.45818 4.79234 7.67065 4.79199 9.16602C4.79199 10.6616 6.00438 11.8748 7.5 11.875C8.99559 11.8748 10.209 10.6616 10.209 9.16602C10.2086 7.67066 8.99538 6.45818 7.5 6.45801ZM12.5 3.125C11.0045 3.12518 9.79217 4.3375 9.79199 5.83301C9.79199 5.86999 9.79442 5.90674 9.7959 5.94336C10.5734 6.49809 11.1412 7.32626 11.3594 8.28809C11.7057 8.44941 12.0915 8.54194 12.5 8.54199C13.9956 8.54182 15.209 7.32867 15.209 5.83301C15.2088 4.3375 13.9955 3.12518 12.5 3.125Z" fill="#24AC69"/>
</svg>
