<svg width="20" height="20" viewBox="0 0 20 20" fill="none" xmlns="http://www.w3.org/2000/svg">
<path d="M2.5 17.5L3.21469 14.9986C3.2925 14.7263 3.43843 14.4782 3.63872 14.2779L15.1718 2.74408C15.4973 2.41864 16.0249 2.41864 16.3503 2.74408L17.2552 3.6489C17.5806 3.97433 17.5806 4.50198 17.2552 4.82741L5.72205 16.3612C5.52177 16.5616 5.27375 16.7075 5.00141 16.7853L2.5 17.5Z" stroke="#838681" stroke-width="1.5" stroke-linecap="round" stroke-linejoin="round"/>
<path d="M13.3333 4.58203L15.3155 6.56426C16.1488 7.3976 16.5655 7.81426 16.5655 8.33203C16.5655 8.84983 16.1488 9.2665 15.3155 10.0998L14.5833 10.832" stroke="#838681" stroke-width="1.5" stroke-linecap="round" stroke-linejoin="round"/>
<path d="M7.08331 10.832L9.16661 12.9154" stroke="#838681" stroke-width="1.5" stroke-linecap="round" stroke-linejoin="round"/>
</svg>
