<svg width="48" height="48" viewBox="0 0 48 48" fill="none" xmlns="http://www.w3.org/2000/svg">
<rect width="48" height="48" rx="24" fill="white"/>
<g opacity="0.7">
<path d="M29.8333 22.6667C29.8333 19.7212 27.4454 17.3334 24.5 17.3334C21.5544 17.3334 19.1666 19.7212 19.1666 22.6667C19.1666 25.6122 21.5544 28 24.5 28C27.4454 28 29.8333 25.6122 29.8333 22.6667Z" fill="#090F05" stroke="#090F05" stroke-width="1.5" stroke-linecap="round" stroke-linejoin="round"/>
<path d="M15.2604 28C14.3528 26.4311 13.8334 24.6095 13.8334 22.6667C13.8334 16.7756 18.609 12 24.5 12C30.3911 12 35.1667 16.7756 35.1667 22.6667C35.1667 24.6095 34.6472 26.4311 33.7396 28" stroke="#090F05" stroke-width="1.5" stroke-linecap="round" stroke-linejoin="round"/>
<path d="M32.5 36C32.5 31.5817 28.9183 28 24.5 28C20.0817 28 16.5 31.5817 16.5 36" fill="#090F05"/>
<path d="M32.5 36C32.5 31.5817 28.9183 28 24.5 28C20.0817 28 16.5 31.5817 16.5 36" stroke="#090F05" stroke-width="1.5" stroke-linejoin="round"/>
</g>
</svg>
