<svg width="20" height="20" viewBox="0 0 20 20" fill="none" xmlns="http://www.w3.org/2000/svg">
<path d="M12.0834 7.50008C12.0834 8.65066 11.1506 9.58341 10 9.58341C8.84944 9.58341 7.91669 8.65066 7.91669 7.50008C7.91669 6.34949 8.84944 5.41675 10 5.41675C11.1506 5.41675 12.0834 6.34949 12.0834 7.50008Z" stroke="#090F05" stroke-opacity="0.5" stroke-width="1.5"/>
<path d="M11.0479 14.5781C10.7668 14.8487 10.3911 15.0001 10.0002 15.0001C9.60919 15.0001 9.23352 14.8487 8.95244 14.5781C6.3786 12.0841 2.92935 9.298 4.61145 5.25319C5.52094 3.06618 7.70414 1.66675 10.0002 1.66675C12.2962 1.66675 14.4794 3.06619 15.3889 5.25319C17.0689 9.29291 13.628 12.0927 11.0479 14.5781Z" stroke="#090F05" stroke-opacity="0.5" stroke-width="1.5"/>
<path d="M15 16.6667C15 17.5872 12.7614 18.3334 10 18.3334C7.23857 18.3334 5 17.5872 5 16.6667" stroke="#090F05" stroke-opacity="0.5" stroke-width="1.5" stroke-linecap="round"/>
</svg>
