<svg width="21" height="15" viewBox="0 0 21 15" fill="none" xmlns="http://www.w3.org/2000/svg">
<path d="M8.832 10.368C8.832 12.8 7.168 14.592 4.608 14.592C2.048 14.592 0 12.48 0 9.024C0 4.352 3.264 0.639999 7.744 0V2.688C5.248 3.2 3.456 4.864 3.456 6.912C3.904 6.656 4.48 6.464 5.248 6.464C7.232 6.464 8.832 7.872 8.832 10.368ZM20.288 10.368C20.288 12.8 18.56 14.592 16.064 14.592C13.44 14.592 11.392 12.48 11.392 9.024C11.392 4.352 14.72 0.639999 19.2 0V2.688C16.704 3.2 14.912 4.864 14.912 6.848C15.36 6.592 15.936 6.464 16.64 6.464C18.624 6.464 20.288 7.872 20.288 10.368Z" fill="#155DFC"/>
</svg>
