<svg width="21" height="15" viewBox="0 0 21 15" fill="none" xmlns="http://www.w3.org/2000/svg">
<path d="M11.456 4.2238C11.456 1.79179 13.12 -0.00020662 15.68 -0.000206396C18.24 -0.000206173 20.288 2.1118 20.288 5.56779C20.288 10.2398 17.024 13.9518 12.544 14.5918L12.544 11.9038C15.04 11.3918 16.832 9.72779 16.832 7.67979C16.384 7.93579 15.808 8.1278 15.04 8.1278C13.056 8.1278 11.456 6.71979 11.456 4.2238ZM2.57019e-05 4.2238C2.59145e-05 1.79179 1.72802 -0.000207616 4.22403 -0.000207398C6.84803 -0.000207169 8.89603 2.1118 8.89603 5.56779C8.89603 10.2398 5.56802 13.9518 1.08802 14.5918L1.08802 11.9038C3.58402 11.3918 5.37602 9.72779 5.37602 7.7438C4.92802 7.99979 4.35202 8.12779 3.64802 8.12779C1.66402 8.12779 2.54837e-05 6.71979 2.57019e-05 4.2238Z" fill="#155DFC"/>
</svg>
