<svg width="16" height="16" viewBox="0 0 16 16" fill="none" xmlns="http://www.w3.org/2000/svg">
<g clip-path="url(#clip0_180_10486)">
<path d="M8 -1L7.33676 0.79235C6.46709 3.14257 6.03225 4.31771 5.175 5.17503C4.31775 6.03221 3.14262 6.46704 0.79235 7.33683L-1 8L0.79235 8.66317C3.14262 9.53296 4.31775 9.96779 5.175 10.825C6.03225 11.6823 6.46709 12.8574 7.33676 15.2076L8 17L8.66317 15.2076C9.53296 12.8574 9.96778 11.6823 10.825 10.825C11.6823 9.96779 12.8574 9.53296 15.2076 8.66317L17 8L15.2076 7.33683C12.8574 6.46704 11.6823 6.03221 10.825 5.17503C9.96778 4.31771 9.53296 3.14257 8.66317 0.79235L8 -1Z" fill="#155DFC" stroke="#155DFC" stroke-linejoin="round"/>
</g>
<defs>
<clipPath id="clip0_180_10486">
<rect width="16" height="16" fill="white"/>
</clipPath>
</defs>
</svg>
