<svg width="40" height="40" viewBox="0 0 40 40" fill="none" xmlns="http://www.w3.org/2000/svg">
<path d="M33.9167 11.1833C33.9163 12.5002 33.4935 13.7824 32.7106 14.8413C31.9276 15.9003 30.8257 16.6802 29.5667 17.0666C29.855 16.127 30.0011 15.1495 30 14.1666C30.0001 12.4354 29.55 10.7338 28.6939 9.22903C27.8377 7.72426 26.605 6.46797 25.1167 5.58352C25.9418 5.20048 26.8403 5.00138 27.75 5C29.3875 5.00286 30.9569 5.65576 32.1132 6.81521C33.2696 7.97465 33.9182 9.54578 33.9167 11.1833ZM32.6667 18.8334C31.9666 18.6373 31.2172 18.7272 30.5833 19.0834C29.8707 19.4786 29.0798 19.7118 28.2668 19.7666C27.9302 20.2796 27.539 20.7547 27.1 21.1834C28.6746 21.7015 30.0763 22.6425 31.1521 23.9035C32.228 25.1646 32.9364 26.6971 33.2 28.3335H34.35C34.7194 28.3387 35.0833 28.2438 35.4031 28.059C35.7229 27.8742 35.9868 27.6063 36.1668 27.2837C36.4976 26.663 36.6694 25.97 36.6668 25.2666V24.0833C36.6667 21.5999 35.0168 19.4498 32.6667 18.8334ZM14.8834 5.58352C14.0583 5.20048 13.1597 5.00138 12.25 5C10.7734 5.00103 9.34606 5.53155 8.22722 6.49524C7.10838 7.45893 6.37221 8.79189 6.15238 10.2521C5.93256 11.7123 6.24365 13.2029 7.02918 14.4533C7.81471 15.7037 9.02258 16.6309 10.4335 17.0666C10.1451 16.127 9.99905 15.1495 10 14.1666C9.99996 12.4354 10.4501 10.7338 11.3062 9.22903C12.1624 7.72426 13.3951 6.46797 14.8834 5.58352ZM12.9 21.1833C12.4611 20.7545 12.0699 20.2794 11.7333 19.7664C10.9203 19.7117 10.1294 19.4784 9.41676 19.0833C8.78292 18.727 8.03354 18.6371 7.3334 18.8333C4.98333 19.4497 3.3334 21.5998 3.3334 24.0833V25.2665C3.33073 25.9698 3.50252 26.6629 3.8334 27.2835C4.01142 27.6041 4.27255 27.8708 4.58932 28.0556C4.90609 28.2403 5.26679 28.3363 5.63348 28.3334H6.80005C7.06368 26.6969 7.77213 25.1644 8.84794 23.9034C9.92376 22.6424 11.3255 21.7014 12.9 21.1833ZM25.9668 23.4501C25.6777 23.3774 25.3813 23.3383 25.0833 23.3334C24.5054 23.3346 23.9374 23.4838 23.4334 23.7667C22.3818 24.3462 21.2007 24.6501 20 24.6501C18.7994 24.6501 17.6183 24.3462 16.5667 23.7667C16.0627 23.4838 15.4947 23.3346 14.9168 23.3334C14.6188 23.3383 14.3224 23.3774 14.0333 23.4501C12.6326 23.8299 11.3965 24.6613 10.5165 25.8154C9.6366 26.9694 9.16212 28.3816 9.16669 29.8329V31.283C9.16724 32.1327 9.37917 32.9689 9.7834 33.7163C10.2 34.5163 11.0334 34.9997 11.9667 34.9997H28.0334C28.9667 34.9997 29.8 34.5163 30.2167 33.7163C30.6209 32.9689 30.8329 32.1327 30.8334 31.283V29.8332C30.838 28.3819 30.3636 26.9696 29.4837 25.8155C28.6037 24.6614 27.3675 23.8299 25.9668 23.4501ZM27.5 14.1666C27.5 12.6833 27.0602 11.2332 26.2361 9.99986C25.412 8.7665 24.2406 7.8052 22.8702 7.23754C21.4997 6.66989 19.9917 6.52136 18.5369 6.81075C17.082 7.10014 15.7456 7.81445 14.6967 8.86334C13.6479 9.91223 12.9335 11.2486 12.6442 12.7035C12.3548 14.1583 12.5033 15.6663 13.0709 17.0368C13.6386 18.4072 14.5999 19.5786 15.8333 20.4027C17.0666 21.2268 18.5167 21.6666 20 21.6666C21.9892 21.6666 23.8968 20.8765 25.3033 19.4699C26.7099 18.0634 27.5 16.1558 27.5 14.1666Z" fill="#A363F2"/>
</svg>
