<svg width="40" height="40" viewBox="0 0 40 40" fill="none" xmlns="http://www.w3.org/2000/svg">
<path d="M39 20C39 21.6213 38.3836 23.2426 37.1464 24.4797C36.5511 25.0751 36.0867 25.7717 35.77 26.5318C35.4533 27.2918 35.2887 28.1151 35.2887 28.9553C35.2887 30.7075 34.5793 32.2867 33.4351 33.4351C32.2867 34.5793 30.7076 35.2887 28.9553 35.2887C28.1151 35.2887 27.2918 35.4534 26.5318 35.77C25.7718 36.0867 25.0751 36.5511 24.4798 37.1464C23.3229 38.3034 21.8325 38.9156 20.3209 38.9915C20.2153 38.9958 20.1056 39 20 39C18.3787 39 16.7573 38.3836 15.5202 37.1464C14.9249 36.5511 14.2282 36.0867 13.4682 35.77C12.7082 35.4534 11.8849 35.2887 11.0447 35.2887C9.29245 35.2887 7.71334 34.5793 6.56489 33.4351C5.42068 32.2867 4.71135 30.7075 4.71135 28.9553C4.71135 28.1151 4.54668 27.2918 4.23001 26.5318C3.91334 25.7717 3.44888 25.0751 2.85356 24.4797C1.61645 23.2426 1 21.6213 1 20C1 18.3786 1.61645 16.7574 2.85356 15.5203C3.44888 14.9249 3.91334 14.2283 4.23001 13.4682C4.54668 12.7082 4.71135 11.8849 4.71135 11.0447C4.71135 9.2925 5.42068 7.71329 6.56489 6.56486C7.71334 5.42065 9.29245 4.71135 11.0447 4.71135C11.8849 4.71135 12.7082 4.54663 13.4682 4.22996C14.2282 3.91329 14.9249 3.44891 15.5202 2.85361C16.7573 1.61643 18.3787 1 20 1C20.1056 1 20.2153 1.00423 20.3209 1.00845C21.8325 1.08442 23.3229 1.69663 24.4798 2.85361C25.6662 4.04421 27.2749 4.71135 28.9553 4.71135C30.7076 4.71135 32.2867 5.42065 33.4351 6.56486C34.5793 7.71329 35.2887 9.2925 35.2887 11.0447C35.2887 11.8849 35.4533 12.7082 35.77 13.4682C36.0867 14.2283 36.5511 14.9249 37.1464 15.5203C38.3836 16.7574 39 18.3786 39 20Z" fill="#109138"/>
<path d="M16.7791 27.0908C16.3871 27.0908 16.0113 26.9351 15.734 26.658L10.95 21.874C10.3729 21.2967 10.3729 20.3612 10.95 19.7839C11.5273 19.2071 12.4628 19.2071 13.0401 19.7839L16.7791 23.5231L26.9598 13.3419C27.5371 12.7651 28.4726 12.7651 29.0499 13.3419C29.6269 13.9192 29.6269 14.8548 29.0499 15.4318L17.8241 26.658C17.5468 26.9351 17.171 27.0908 16.7791 27.0908Z" fill="white"/>
</svg>
