<svg width="40" height="40" viewBox="0 0 40 40" fill="none" xmlns="http://www.w3.org/2000/svg">
<g clip-path="url(#clip0_172_9048)">
<path d="M14.2934 22.6319C14.2934 23.4471 14.6172 24.2289 15.1936 24.8053C15.77 25.3817 16.5518 25.7055 17.367 25.7055C18.1821 25.7055 18.9639 25.3817 19.5403 24.8053C20.1167 24.2289 20.4405 23.4471 20.4405 22.6319C20.4402 22.4224 20.4189 22.2134 20.3768 22.0081L23.9718 18.4132C25.0089 20.0393 25.409 21.9911 25.0953 23.8942C24.7816 25.7972 23.7763 27.5174 22.2721 28.7246C20.768 29.9319 18.871 30.5412 16.9452 30.4356C15.0193 30.33 13.2003 29.517 11.8372 28.1525C10.474 26.7881 9.66274 24.9683 9.55898 23.0424C9.45522 21.1165 10.0663 19.2201 11.275 17.717C12.4837 16.214 14.2048 15.2103 16.1081 14.8984C18.0114 14.5865 19.9629 14.9885 21.588 16.0272L17.9908 19.6243C17.7857 19.5811 17.5766 19.5598 17.367 19.5607C16.5522 19.5606 15.7707 19.8841 15.1943 20.46C14.618 21.0359 14.2939 21.8171 14.2934 22.6319ZM27.3914 14.9935C29.3324 17.5376 30.2343 20.7241 29.9144 23.9081C29.5944 27.092 28.0767 30.0355 25.6683 32.1426C23.26 34.2496 20.141 35.3629 16.9427 35.257C13.7445 35.1511 10.706 33.8339 8.44233 31.5721C6.17867 29.3103 4.85899 26.2728 4.75045 23.0747C4.64191 19.8765 5.75262 16.7566 7.85772 14.3465C9.96282 11.9365 12.905 10.4163 16.0887 10.0938C19.2724 9.77126 22.4597 10.6705 25.0054 12.6094L28.3977 9.21716C25.2923 6.65718 21.3917 5.25965 17.3672 5.26505C7.77508 5.26505 0 13.04 0 22.6319C0 32.2238 7.77508 39.9991 17.3672 39.9991C26.9593 39.9991 34.7344 32.2241 34.7344 22.6319C34.7405 18.6077 33.3425 14.7074 30.7812 11.6035L27.3914 14.9935ZM37.0506 3.74513L38.4701 2.32575C38.5235 2.27385 38.566 2.21185 38.5952 2.14337C38.6244 2.07488 38.6398 2.00127 38.6403 1.92682C38.6408 1.85236 38.6265 1.77855 38.5983 1.70966C38.57 1.64077 38.5283 1.57819 38.4757 1.52554C38.423 1.4729 38.3604 1.43124 38.2915 1.403C38.2226 1.37476 38.1488 1.36049 38.0744 1.36103C37.9999 1.36156 37.9263 1.37689 37.8578 1.40612C37.7893 1.43535 37.7274 1.4779 37.6755 1.5313L36.2558 2.95083L35.1596 0.0012207L30.6152 4.5456L31.712 7.49466L16.9708 22.2358C16.8672 22.3416 16.8095 22.4839 16.8102 22.6319C16.811 22.78 16.8702 22.9217 16.9748 23.0264C17.0795 23.1311 17.2213 23.1902 17.3693 23.1909C17.5173 23.1917 17.6597 23.134 17.7654 23.0304L32.5076 8.28817L35.4555 9.38372L40 4.83927L37.0506 3.74513Z" fill="#5499FF"/>
</g>
<defs>
<clipPath id="clip0_172_9048">
<rect width="40" height="40" fill="white"/>
</clipPath>
</defs>
</svg>
