<svg width="20" height="20" viewBox="0 0 20 20" fill="none" xmlns="http://www.w3.org/2000/svg">
<g clip-path="url(#clip0_368_21145)">
<path d="M8.10038 7.86769V7.08944C7.83024 7.04667 7.55738 7.02322 7.28389 7.0193C4.63614 7.01366 2.292 8.72948 1.49688 11.255C0.701755 13.7805 1.64031 16.5298 3.81362 18.042C3.01667 17.189 2.48361 16.1237 2.27879 14.9745C2.07398 13.8252 2.20616 12.6413 2.65939 11.5656C3.11263 10.4898 3.86753 9.56823 4.83298 8.91209C5.79844 8.25592 6.93317 7.89324 8.10022 7.86779L8.10038 7.86769Z" fill="#25F4EE"/>
<path d="M8.24719 16.6834C9.72757 16.6814 10.9444 15.5152 11.0092 14.0362V0.838347H13.4203C13.3711 0.562567 13.3476 0.28281 13.3502 0.00268555H10.0523V13.1878C9.99746 14.6743 8.77772 15.8517 7.29025 15.8541C6.84575 15.8503 6.4085 15.7411 6.01453 15.5352C6.26987 15.889 6.60521 16.1774 6.99322 16.3769C7.38123 16.5765 7.81089 16.6815 8.24719 16.6834ZM17.9238 5.31624V4.58265C17.0364 4.583 16.1688 4.32118 15.4297 3.83002C16.0776 4.58319 16.9531 5.10488 17.9238 5.31624Z" fill="#25F4EE"/>
<path d="M15.4297 3.83015C14.7016 3.00112 14.3003 1.93538 14.3006 0.832031H13.4203C13.534 1.44206 13.7708 2.02252 14.1163 2.53799C14.4618 3.05346 14.9086 3.49312 15.4297 3.83015ZM7.28386 10.3175C6.66645 10.3206 6.06779 10.53 5.58307 10.9125C5.09835 11.295 4.75541 11.8285 4.60878 12.4283C4.46211 13.028 4.52016 13.6596 4.77372 14.2226C5.02725 14.7856 5.46173 15.2476 6.00804 15.5353C5.70932 15.1229 5.53047 14.636 5.49117 14.1282C5.4519 13.6205 5.55372 13.1119 5.7854 12.6584C6.0171 12.205 6.36964 11.8243 6.80409 11.5587C7.23851 11.293 7.73793 11.1526 8.24715 11.153C8.52399 11.1566 8.79889 11.1997 9.06355 11.281V7.92536C8.79327 7.88482 8.52045 7.86351 8.24715 7.8616H8.10036V10.4131C7.8343 10.3417 7.55924 10.3095 7.28386 10.3175Z" fill="#FE2C55"/>
<path d="M17.9238 5.31616V7.86774C16.281 7.86455 14.6809 7.34455 13.3502 6.38146V13.0856C13.3431 16.4309 10.6292 19.1392 7.28387 19.1392C6.04145 19.1414 4.82894 18.7581 3.8136 18.042C4.64154 18.9326 5.71848 19.5531 6.90413 19.8229C8.08974 20.0926 9.32916 19.999 10.4609 19.5544C11.5926 19.1097 12.5642 18.3345 13.249 17.3298C13.9339 16.3251 14.3004 15.1374 14.3006 13.9215V7.23626C15.6359 8.19304 17.2379 8.70624 18.8806 8.7034V5.41798C18.559 5.41702 18.2384 5.38289 17.9238 5.31616Z" fill="#FE2C55"/>
<path d="M13.3502 13.0858V6.38166C14.685 7.33927 16.2874 7.85257 17.9302 7.84878V5.29729C16.9596 5.09232 16.0821 4.57739 15.4297 3.83015C14.9087 3.49312 14.4618 3.05346 14.1163 2.53799C13.7708 2.02252 13.534 1.44206 13.4203 0.832031H11.0092V14.0365C10.9858 14.6113 10.7838 15.1644 10.4315 15.6191C10.0792 16.0739 9.59392 16.4075 9.04321 16.5738C8.49252 16.74 7.90372 16.7306 7.35861 16.5468C6.81354 16.363 6.33922 16.014 6.00161 15.5482C5.45523 15.2606 5.02066 14.7985 4.76707 14.2355C4.51345 13.6725 4.45536 13.0408 4.60203 12.441C4.74869 11.8412 5.09166 11.3076 5.57644 10.9251C6.06123 10.5427 6.65999 10.3332 7.27747 10.3301C7.5544 10.3326 7.82949 10.3756 8.09396 10.4578V7.90619C6.92066 7.9261 5.77845 8.28693 4.80668 8.94476C3.83488 9.60256 3.0755 10.5289 2.62109 11.6109C2.16667 12.6928 2.03687 13.8836 2.24751 15.038C2.45816 16.1924 3.00014 17.2606 3.80739 18.1124C4.83268 18.8048 6.04691 19.1635 7.28391 19.1394C10.6292 19.1394 13.3431 16.4311 13.3502 13.0858Z" fill="#090F05"/>
</g>
<defs>
<clipPath id="clip0_368_21145">
<rect width="20" height="20" fill="white"/>
</clipPath>
</defs>
</svg>
