<svg width="24" height="24" viewBox="0 0 24 24" fill="none" xmlns="http://www.w3.org/2000/svg">
<path d="M14.75 9.5C14.75 11.0188 13.5188 12.25 12 12.25C10.4812 12.25 9.25 11.0188 9.25 9.5C9.25 7.98122 10.4812 6.75 12 6.75C13.5188 6.75 14.75 7.98122 14.75 9.5Z" stroke="#090F05" stroke-opacity="0.7" stroke-width="1.5"/>
<path d="M12 1.25C17.937 1.25 22.75 6.06293 22.75 12C22.75 17.937 17.937 22.75 12 22.75C6.06293 22.75 1.25 17.937 1.25 12C1.25 6.06294 6.06294 1.25 12 1.25ZM10.4014 16.25C8.87634 16.2501 7.46856 17.0676 6.71191 18.3916L6.23242 19.2285C7.81418 20.4923 9.81798 21.25 12 21.25C14.1817 21.25 16.1849 20.492 17.7666 19.2285L17.2881 18.3916C16.5315 17.0676 15.1236 16.2501 13.5986 16.25H10.4014ZM12 2.75C6.89136 2.75 2.75 6.89136 2.75 12C2.75 14.3712 3.64335 16.5329 5.11035 18.1699L5.40918 17.6475C6.43288 15.8561 8.33804 14.7501 10.4014 14.75H13.5986C15.6619 14.7501 17.5671 15.8561 18.5908 17.6475L18.8887 18.1699C20.3559 16.5328 21.25 14.3714 21.25 12C21.25 6.89137 17.1086 2.75 12 2.75Z" fill="#090F05" fill-opacity="0.7"/>
</svg>
