<svg width="24" height="24" viewBox="0 0 24 24" fill="none" xmlns="http://www.w3.org/2000/svg">
<path fill-rule="evenodd" clip-rule="evenodd" d="M18.733 19.3938C20.7403 17.5648 22 14.9295 22 12C22 6.47715 17.5228 2 12 2C6.47715 2 2 6.47715 2 12C2 14.9294 3.25966 17.5647 5.26689 19.3937L6.06034 18.0194C6.95055 16.4616 8.60727 15.5001 10.4016 15.5001H13.5983C15.3926 15.5001 17.0493 16.4616 17.9395 18.0194L18.733 19.3938Z" fill="white"/>
<path d="M12 22C14.3314 22 16.4764 21.2022 18.177 19.8646M18.733 19.3938C20.7403 17.5648 22 14.9295 22 12C22 6.47715 17.5228 2 12 2C6.47715 2 2 6.47715 2 12C2 14.9294 3.25966 17.5647 5.26689 19.3937L6.06034 18.0194C6.95055 16.4616 8.60727 15.5001 10.4016 15.5001H13.5983C15.3926 15.5001 17.0493 16.4616 17.9395 18.0194L18.733 19.3938Z" stroke="#155DFC" stroke-width="1.5"/>
<path d="M14.75 9.5C14.75 11.0188 13.5188 12.25 12 12.25C10.4812 12.25 9.25 11.0188 9.25 9.5C9.25 7.98122 10.4812 6.75 12 6.75C13.5188 6.75 14.75 7.98122 14.75 9.5Z" fill="#155DFC" stroke="#155DFC" stroke-width="1.5"/>
<path d="M12 22.0001C14.3314 22.0001 16.4764 21.2023 18.177 19.8647" stroke="#155DFC" stroke-width="1.5" stroke-linecap="round" stroke-linejoin="round"/>
<path d="M18.7332 19.3937C18.5666 19.5454 18.3949 19.6917 18.2183 19.8321C18.2046 19.8429 18.1909 19.8538 18.1772 19.8645C16.4766 21.2021 14.3316 21.9999 12.0002 21.9999C9.74205 21.9999 7.65871 21.2514 5.98475 19.989C5.73626 19.8016 5.49678 19.6029 5.26709 19.3936L6.06054 18.0193C6.95075 16.4615 8.60747 15.5 10.4018 15.5H13.5985C15.3928 15.5 17.0495 16.4615 17.9397 18.0193L18.7332 19.3937Z" fill="#155DFC"/>
<path d="M18.2183 19.8321C18.3949 19.6917 18.5666 19.5454 18.7332 19.3937L17.9397 18.0193C17.0495 16.4615 15.3928 15.5 13.5985 15.5H10.4018C8.60747 15.5 6.95075 16.4615 6.06054 18.0193L5.26709 19.3936C5.49678 19.6029 5.73626 19.8016 5.98475 19.989C7.65871 21.2514 9.74205 21.9999 12.0002 21.9999C14.3316 21.9999 16.4766 21.2021 18.1772 19.8645M18.2183 19.8321C18.2046 19.8429 18.1909 19.8538 18.1772 19.8645M18.2183 19.8321L18.1772 19.8645" stroke="#155DFC" stroke-width="1.5"/>
</svg>
