<svg width="32" height="32" viewBox="0 0 32 32" fill="none" xmlns="http://www.w3.org/2000/svg">
<g opacity="0.7">
<path d="M21.3333 14.6667C21.3333 11.7212 18.9454 9.33337 16 9.33337C13.0544 9.33337 10.6666 11.7212 10.6666 14.6667C10.6666 17.6122 13.0544 20 16 20C18.9454 20 21.3333 17.6122 21.3333 14.6667Z" fill="#090F05" stroke="#090F05" stroke-width="1.5" stroke-linecap="round" stroke-linejoin="round"/>
<path d="M6.76039 20C5.85281 18.4311 5.33337 16.6095 5.33337 14.6667C5.33337 8.77563 10.109 4 16 4C21.8911 4 26.6667 8.77563 26.6667 14.6667C26.6667 16.6095 26.1472 18.4311 25.2396 20" stroke="#090F05" stroke-width="1.5" stroke-linecap="round" stroke-linejoin="round"/>
<path d="M24 28C24 23.5817 20.4183 20 16 20C11.5817 20 8 23.5817 8 28" fill="#090F05"/>
<path d="M24 28C24 23.5817 20.4183 20 16 20C11.5817 20 8 23.5817 8 28" stroke="#090F05" stroke-width="1.5" stroke-linejoin="round"/>
</g>
</svg>
